<?xml version="1.0" standalone="no"?>
<!DOCTYPE svg PUBLIC "-//W3C//DTD SVG 20010904//EN"
 "http://www.w3.org/TR/2001/REC-SVG-20010904/DTD/svg10.dtd">
<svg version="1.0" xmlns="http://www.w3.org/2000/svg"
 width="1000.000000pt" height="702.000000pt" viewBox="0 0 1000.000000 702.000000"
 preserveAspectRatio="xMidYMid meet">
<metadata>
Created by potrace 1.16, written by Peter Selinger 2001-2019
</metadata>
<g transform="translate(0.000000,702.000000) scale(0.100000,-0.100000)"
fill="#000000" stroke="none">
<path d="M7105 6814 c-139 -29 -427 -85 -735 -144 -235 -45 -664 -129 -970
-190 -107 -21 -325 -64 -485 -95 -159 -31 -380 -73 -490 -95 -110 -21 -330
-64 -490 -95 -159 -30 -378 -73 -485 -95 -107 -21 -325 -64 -485 -95 -504 -98
-699 -137 -725 -147 -39 -15 -79 -58 -86 -93 -3 -18 12 -146 36 -296 23 -145
55 -347 70 -449 16 -102 38 -243 50 -315 55 -354 100 -652 100 -669 0 -15 -3
-17 -12 -8 -7 7 -17 8 -27 2 -9 -5 -77 -20 -150 -34 -74 -15 -137 -29 -141
-31 -4 -3 -34 -6 -66 -9 -33 -2 -70 -9 -84 -14 -15 -6 -57 -13 -95 -17 -39 -4
-74 -11 -80 -15 -5 -4 -26 -10 -45 -13 -19 -3 -72 -12 -117 -19 -46 -7 -83
-16 -83 -20 0 -4 -10 -8 -23 -8 -13 0 -62 -9 -111 -19 l-87 -19 -32 66 c-18
37 -36 66 -42 64 -6 -2 -9 -30 -7 -67 1 -42 -1 -65 -8 -65 -6 0 -8 4 -5 10 3
5 2 10 -4 10 -5 0 -11 -5 -13 -11 -3 -9 -10 -9 -27 0 -19 11 -26 10 -42 -5
-11 -10 -18 -26 -16 -36 4 -15 -1 -18 -34 -18 -22 0 -52 -6 -67 -14 -15 -8
-62 -17 -105 -21 -42 -4 -80 -11 -83 -16 -3 -5 -32 -9 -65 -9 -32 0 -59 -4
-59 -8 0 -12 -47 -32 -75 -32 -14 0 -25 5 -25 11 0 15 -47 59 -54 51 -3 -3 -6
-18 -6 -32 0 -51 -21 -56 -126 -35 -21 5 -34 2 -43 -9 -8 -9 -26 -16 -41 -16
-35 0 -61 -10 -55 -20 3 -5 -23 -8 -57 -7 -35 0 -93 -3 -130 -7 l-68 -8 0
-1794 0 -1794 5000 0 5000 0 0 2795 c0 2355 -2 2795 -14 2795 -7 0 -25 -9 -40
-21 -22 -17 -29 -19 -42 -8 -27 22 -11 43 41 56 l50 13 -54 -5 c-49 -4 -53 -3
-48 15 7 27 -20 41 -52 27 -15 -5 -77 -9 -138 -8 -87 2 -113 -1 -113 -11 0 -7
-19 -21 -43 -31 -40 -17 -43 -17 -54 0 -12 16 -13 16 -13 0 0 -9 -5 -17 -10
-17 -7 0 -8 13 -5 34 7 33 -8 59 -18 32 -4 -9 -33 -15 -91 -19 -47 -3 -101
-13 -120 -22 -26 -13 -52 -15 -99 -11 -59 4 -68 2 -118 -28 -60 -36 -128 -46
-339 -51 -127 -3 -146 -6 -185 -27 -26 -14 -31 -14 -40 -1 -9 13 -16 13 -33 4
-14 -8 -28 -8 -39 -3 -22 12 -111 0 -172 -22 -24 -9 -60 -16 -81 -16 -21 0
-56 -7 -78 -14 -28 -10 -44 -12 -48 -5 -4 6 -11 1 -18 -13 -16 -32 -42 -35
-50 -4 l-6 25 -43 -24 c-64 -36 -222 -69 -372 -78 -16 -1 -32 -5 -35 -8 -3 -4
-15 -9 -27 -13 -25 -8 -30 3 -11 22 20 20 -11 14 -70 -13 -29 -13 -58 -22 -65
-19 -8 3 -25 0 -40 -5 -14 -6 -28 -7 -31 -3 -3 5 2 82 10 173 14 155 55 649
90 1075 15 178 15 194 -1 227 -26 55 -50 57 -230 21z m43 -216 c-4 -28 29 -20
-503 -123 -242 -48 -618 -122 -835 -165 -217 -43 -537 -106 -710 -140 -173
-34 -594 -117 -935 -185 -1136 -226 -1742 -345 -1759 -345 -10 0 -16 9 -16 25
0 29 7 31 31 9 19 -17 39 -11 39 12 0 17 36 19 43 2 3 -8 6 -6 6 5 1 18 31 25
31 7 0 -18 38 -10 43 9 5 21 89 40 95 21 2 -5 13 -10 24 -10 17 0 18 3 8 15
-11 13 -8 15 13 15 14 0 28 -4 32 -10 3 -5 12 -7 20 -4 8 4 12 10 10 15 -3 5
6 11 21 15 15 4 29 2 33 -4 5 -8 17 -8 36 -3 l30 9 -30 2 c-27 2 -25 3 13 12
25 5 48 6 55 1 7 -6 32 -4 62 3 34 8 42 13 25 14 -20 2 -18 4 14 12 29 8 40 7
46 -2 5 -9 17 -10 36 -5 l29 8 -25 7 c-18 5 7 12 95 29 66 12 158 31 205 41
47 11 227 47 400 80 173 34 509 99 745 146 237 47 498 98 580 115 83 16 168
33 190 39 22 5 148 30 280 55 132 25 281 55 330 65 50 10 209 42 355 70 146
28 274 54 284 57 15 4 18 2 13 -12 -5 -12 -2 -16 11 -13 9 2 17 10 17 18 0 8
8 16 17 18 13 2 16 -1 12 -12 -4 -10 -1 -16 7 -16 21 0 44 18 36 27 -8 8 37
19 213 53 126 24 120 24 120 5 0 -8 4 -15 8 -15 12 0 49 29 37 30 -20 1 21 20
43 20 18 0 23 -5 20 -22z m-808 -409 l0 -62 41 6 40 5 -6 -91 c-7 -120 -29
-568 -57 -1207 -14 -322 -26 -518 -33 -522 -5 -4 -35 -12 -65 -18 -30 -6 -80
-17 -110 -25 -30 -8 -183 -44 -340 -80 -157 -36 -312 -72 -345 -80 -33 -8
-247 -57 -475 -110 -228 -53 -518 -121 -645 -151 -126 -30 -300 -70 -385 -90
-142 -32 -454 -105 -788 -185 -73 -17 -135 -29 -138 -27 -2 3 -5 22 -7 43 l-2
39 55 12 c30 6 98 22 150 34 52 12 121 28 153 35 32 7 61 15 64 19 6 6 -22
275 -30 282 -2 2 -99 -18 -216 -44 -116 -27 -214 -46 -216 -42 -2 3 91 28 208
54 117 26 215 51 219 54 8 8 -12 254 -22 265 -6 7 -222 -35 -349 -68 -104 -27
-92 -51 -130 258 -18 149 -39 317 -47 372 -12 88 -66 519 -79 633 -2 23 -2 42
1 42 3 0 51 9 106 20 55 12 135 27 177 35 143 27 186 36 321 65 74 16 218 46
320 66 102 20 253 49 335 66 83 16 170 34 195 38 253 49 402 79 675 135 176
36 399 81 495 100 96 19 231 46 300 60 69 14 161 32 205 40 44 8 152 30 240
49 88 18 166 34 173 35 8 1 12 -17 12 -60z m787 -2016 c-9 -136 -20 -170 -67
-204 -28 -21 -144 -52 -519 -139 -141 -32 -357 -84 -481 -113 l-225 -55 -5
-93 -5 -93 -165 -41 -165 -42 3 -50 c3 -45 0 -55 -28 -86 -19 -22 -49 -42 -78
-51 -108 -35 -1026 -256 -1063 -256 -38 0 -92 20 -114 44 -21 22 -36 63 -58
156 -16 68 -27 95 -38 94 -14 -1 -314 -71 -335 -79 -7 -2 -5 -36 7 -112 9 -59
16 -109 16 -109 -2 -2 -201 -55 -426 -114 -63 -17 -116 -29 -118 -26 -2 2 -14
53 -26 112 -12 60 -27 109 -32 109 -15 0 -197 -43 -325 -76 -139 -36 -188 -44
-234 -35 -45 9 -67 55 -91 191 -10 59 -24 105 -33 112 -8 7 -12 19 -8 30 5 15
4 15 -10 -2 -11 -14 -18 -16 -21 -8 -3 8 -14 11 -29 7 -20 -5 -24 -2 -24 17 0
12 6 30 14 38 20 22 9 71 -15 71 -10 0 -20 -4 -23 -9 -4 -5 -37 -14 -74 -21
-85 -14 -106 -25 -64 -35 17 -3 39 -2 49 3 10 5 39 9 65 10 l47 2 -14 -33 c-9
-22 -21 -33 -39 -35 -14 -2 -26 -9 -26 -17 0 -8 -9 -16 -20 -20 -10 -3 -31
-20 -45 -37 -20 -24 -31 -29 -53 -25 -17 3 -46 -4 -81 -20 -43 -21 -58 -24
-72 -15 -14 9 -20 8 -27 -4 -5 -9 -13 -15 -18 -15 -5 1 -12 -15 -15 -36 -5
-38 -8 -36 -25 21 -5 16 -15 31 -22 34 -11 3 -11 -1 1 -19 8 -13 17 -41 20
-61 5 -35 4 -38 -18 -38 -21 0 -24 -6 -35 -87 -7 -49 -15 -83 -17 -76 -2 7
-10 10 -17 7 -25 -10 -37 21 -21 53 8 16 16 40 17 54 3 23 0 24 -58 27 -59 3
-62 2 -68 -24 -8 -31 -5 -36 28 -38 14 0 26 -2 26 -3 0 -1 -3 -8 -6 -16 -5
-13 -11 -12 -39 6 -32 22 -45 50 -45 104 0 14 -4 21 -10 18 -6 -3 -11 -61 -12
-133 -1 -70 -3 -98 -5 -62 -5 93 -7 96 -46 66 -32 -25 -33 -27 -29 -87 5 -61
4 -61 -19 -54 -31 10 -48 33 -50 70 -4 56 -5 60 -17 58 -19 -5 -14 21 10 47
l22 23 -27 -7 c-21 -5 -27 -3 -27 10 0 11 8 15 30 12 19 -2 34 3 40 12 9 13
11 13 21 0 8 -12 10 -12 7 5 -4 24 -46 32 -78 15 -17 -9 -25 -8 -39 4 -17 16
-18 14 -13 -33 4 -47 3 -49 -17 -44 -31 8 -35 19 -21 67 13 47 43 68 114 81
20 4 41 15 47 24 8 13 9 13 4 -5 -4 -15 1 -24 19 -32 19 -8 26 -8 29 1 7 20
-4 36 -19 30 -21 -8 -17 15 6 29 12 8 20 24 20 42 0 21 -3 26 -12 18 -12 -9
-40 -15 -133 -29 -22 -3 -45 -10 -52 -15 -7 -6 -30 -4 -64 6 -43 13 -64 14
-118 5 -36 -6 -75 -16 -87 -21 -12 -5 -32 -8 -45 -7 -13 2 -28 1 -34 -2 -5 -4
-27 -9 -47 -13 -44 -8 -53 10 -10 20 106 23 168 54 107 54 -32 0 -32 23 0 40
14 8 24 19 21 26 -3 8 0 11 8 8 7 -3 26 2 42 11 26 13 30 13 40 0 6 -8 33 -18
60 -22 46 -6 48 -5 35 11 -8 10 -23 15 -33 13 -10 -3 -18 0 -18 6 0 20 51 37
111 37 41 0 63 5 81 20 27 21 48 12 48 -22 0 -24 23 -32 50 -18 l21 11 -23 19
-23 19 37 -6 c23 -3 44 -1 52 7 12 9 19 8 37 -9 25 -23 33 -24 64 -11 16 7 14
9 -15 9 -26 1 -31 4 -20 11 8 5 35 9 60 9 37 -1 41 -2 20 -9 -22 -7 -20 -8 14
-9 33 -1 37 1 26 14 -13 16 -9 17 75 19 24 1 30 5 28 21 -1 11 2 22 7 25 4 3
11 22 14 43 7 42 -10 51 -32 17 -10 -16 -16 -18 -30 -9 -20 13 -128 4 -137
-11 -7 -11 31 -23 45 -15 5 3 10 0 10 -7 0 -9 -18 -13 -60 -14 -35 -1 -60 2
-60 9 0 14 -160 3 -190 -13 -13 -7 -55 -16 -94 -21 -182 -21 -241 -31 -247
-41 -4 -6 -12 -7 -18 -3 -7 4 -28 -1 -47 -10 -19 -9 -56 -18 -82 -20 -49 -5
-67 -8 -92 -18 -8 -3 -37 -8 -65 -11 -72 -9 -45 10 56 40 46 13 86 29 87 34 2
6 17 10 33 10 29 0 39 13 19 25 -23 14 -7 23 41 22 44 -1 50 -3 46 -19 -5 -16
0 -18 36 -14 23 2 67 10 97 17 l55 14 -48 3 c-47 3 -62 16 -29 26 33 9 122 18
122 12 0 -4 -10 -11 -22 -16 -19 -7 -16 -9 20 -9 46 -1 51 5 25 25 -17 13 -17
13 0 14 9 0 17 3 17 8 0 4 17 7 38 8 20 0 50 3 66 7 70 16 114 19 120 8 5 -7
-9 -11 -41 -11 -49 0 -103 -18 -103 -33 0 -9 86 1 110 13 8 4 39 10 69 14 30
4 62 11 72 17 10 5 66 9 125 10 88 1 111 4 124 18 26 29 100 55 84 30 -5 -9 1
-10 22 -5 16 4 45 10 64 14 25 6 31 10 21 16 -18 11 -116 9 -156 -4 -16 -5
-64 -21 -105 -34 -45 -15 -79 -21 -85 -16 -6 5 -29 5 -54 -1 -48 -11 -57 -8
-48 16 6 14 24 17 125 19 15 1 33 7 40 13 7 7 32 13 55 13 48 0 155 18 179 31
10 5 25 9 33 9 8 0 15 5 15 11 0 7 12 9 34 5 20 -4 37 -2 41 4 3 5 23 10 43
11 20 0 30 3 22 6 -8 3 -18 11 -22 17 -4 7 -13 4 -26 -7 -13 -12 -36 -17 -75
-17 -46 0 -57 -3 -57 -16 0 -11 -5 -14 -16 -10 -9 3 -20 6 -25 6 -6 0 -7 5 -4
10 3 6 15 10 26 10 10 0 19 4 19 9 0 5 25 15 55 21 30 6 55 16 55 21 0 5 16 9
36 9 31 0 34 2 21 14 -15 16 -57 11 -57 -6 0 -6 -7 -7 -16 -4 -9 3 -33 2 -53
-4 -20 -5 -50 -6 -66 -2 -27 8 -24 9 35 22 36 7 68 17 71 22 3 5 29 10 58 10
29 1 54 5 57 10 3 4 16 8 29 8 13 0 25 6 28 13 2 6 10 -28 17 -78 7 -49 18
-123 25 -162 7 -40 8 -73 4 -73 -5 0 -9 9 -9 21 0 18 -4 20 -47 13 -58 -8 -99
-26 -96 -42 2 -7 -4 -12 -13 -12 -10 0 -14 6 -10 15 12 34 -77 45 -169 21 -32
-9 -75 -17 -95 -17 -30 -2 -31 -3 -8 -6 32 -5 38 -33 8 -33 -11 0 -20 -5 -20
-11 0 -8 14 -9 48 -4 26 5 62 8 80 7 22 0 32 4 32 14 0 10 7 13 24 8 13 -3 33
-1 44 5 18 9 23 6 43 -25 l22 -36 16 37 c14 33 21 38 58 41 39 4 73 -14 45
-24 -19 -6 -14 -28 8 -29 16 -1 18 3 13 30 -5 31 -5 31 10 12 13 -16 17 -17
18 -5 2 21 16 -38 18 -74 1 -23 -2 -26 -12 -17 -8 6 -17 8 -20 4 -14 -13 -6
-49 12 -60 18 -11 20 -9 23 15 2 15 7 -2 12 -40 6 -56 11 -68 26 -68 18 0 183
37 590 134 58 14 251 59 430 101 179 41 352 82 385 90 161 38 250 59 490 115
317 74 674 158 895 210 91 22 255 60 365 86 331 77 354 82 510 119 83 20 227
54 320 75 94 22 262 62 375 89 113 27 210 49 215 50 7 1 7 -42 2 -126z m90
-228 c24 -76 108 -155 193 -180 107 -33 218 -23 273 23 13 12 20 13 29 4 7 -7
8 -12 2 -12 -6 0 -25 -13 -44 -30 -18 -16 -58 -39 -87 -50 -113 -42 -224 -16
-310 72 -67 69 -93 123 -93 191 0 53 12 86 18 50 2 -10 10 -40 19 -68z m933
-485 c15 -36 116 -133 130 -125 6 3 15 3 21 -1 8 -5 8 -8 0 -14 -7 -4 14 -19
51 -36 58 -27 72 -29 175 -29 129 0 127 15 23 -135 -78 -113 -121 -156 -179
-183 -49 -21 -119 -19 -182 7 -19 7 -40 11 -47 9 -21 -8 -62 6 -62 21 0 8 9
16 19 18 18 3 18 6 -10 46 -25 37 -29 52 -29 110 0 66 57 342 71 342 4 0 12
-13 19 -30z m-972 -79 c21 -11 59 -42 84 -69 81 -87 204 -286 223 -362 l6 -25
-143 -3 c-79 -2 -170 -5 -203 -5 -50 -2 -61 1 -70 18 -5 11 -56 89 -112 173
-57 84 -103 162 -103 173 0 34 44 66 126 93 95 30 143 32 192 7z m-1119 -248
c7 -16 22 -53 33 -83 11 -30 24 -64 28 -75 5 -11 23 -56 40 -99 22 -60 27 -83
18 -93 -6 -7 -8 -17 -4 -20 4 -4 11 -2 15 6 7 10 10 9 14 -3 4 -9 2 -16 -3
-16 -6 0 -6 -10 0 -26 18 -47 13 -73 -17 -80 -57 -13 -143 -35 -155 -39 -15
-6 -52 80 -42 96 3 5 -2 9 -10 9 -20 0 -20 -4 1 -58 16 -43 16 -45 -2 -58 -10
-8 -29 -14 -41 -14 -12 0 -29 -2 -36 -5 -10 -4 -18 6 -26 33 -19 62 -16 69 28
76 22 3 40 7 40 9 0 8 -38 108 -43 113 -3 3 0 -17 8 -45 15 -58 11 -65 -48
-75 -37 -7 -37 -7 -23 -34 37 -75 30 -92 -46 -106 -34 -6 -38 -5 -38 13 0 11
-4 23 -10 26 -5 3 -10 17 -10 30 0 20 7 26 40 35 44 12 43 11 34 35 -6 14 -8
13 -21 -5 -8 -11 -20 -20 -28 -20 -7 0 -25 -4 -39 -9 l-25 -10 20 -40 c26 -54
24 -67 -8 -75 -16 -3 -38 -8 -50 -12 -18 -5 -24 0 -37 31 -23 54 -20 63 19 71
19 3 38 10 41 16 6 10 -25 107 -39 123 -7 6 -8 4 -4 -7 4 -10 9 -40 13 -67 l6
-48 -37 -7 c-20 -4 -43 -10 -50 -12 -15 -6 -45 53 -45 87 0 14 -7 19 -27 18
-22 -1 -24 -3 -7 -6 17 -3 23 -14 29 -50 4 -25 3 -49 -2 -53 -13 -13 -87 -30
-94 -22 -3 4 -12 28 -19 55 -11 41 -16 47 -39 46 -14 -1 -19 -3 -10 -6 15 -4
39 -62 39 -95 0 -14 -86 -42 -100 -33 -3 2 -12 27 -20 54 -8 29 -19 51 -27 51
-15 0 -17 -12 -3 -26 6 -6 11 -28 13 -49 2 -38 1 -39 -43 -52 -24 -7 -47 -10
-52 -5 -4 4 -13 30 -20 59 -9 35 -17 49 -26 45 -8 -6 -8 -20 3 -57 18 -57 13
-64 -45 -75 -40 -7 -41 -7 -55 27 -8 20 -15 44 -15 54 0 11 -7 19 -15 19 -19
0 -19 -7 0 -60 17 -49 15 -55 -22 -63 -16 -3 -36 -9 -45 -12 -13 -5 -21 2 -32
30 -21 49 -20 65 3 65 11 0 22 4 25 9 6 9 -26 107 -39 119 -4 4 -5 -1 -2 -11
4 -10 10 -36 13 -57 6 -35 4 -38 -26 -49 -18 -6 -41 -11 -51 -11 -11 0 -19 -4
-19 -10 0 -5 11 -10 25 -10 18 0 28 -7 35 -26 18 -47 13 -61 -26 -68 -19 -4
-43 -10 -51 -13 -13 -5 -15 -2 -11 15 4 12 3 20 -2 17 -7 -5 -20 27 -20 53 0
6 9 12 20 12 26 0 26 39 0 95 -17 37 -19 38 -19 13 -1 -15 4 -39 9 -54 14 -35
6 -41 -56 -49 l-51 -7 -7 42 c-4 24 -10 48 -13 53 -3 6 -7 24 -9 40 -1 16 -10
37 -19 46 -17 15 -17 15 -10 -4 5 -11 9 -36 9 -55 1 -19 4 -37 8 -41 5 -3 11
-26 14 -51 l6 -46 -43 -10 c-24 -5 -47 -7 -51 -5 -4 2 -13 23 -19 46 -7 23
-16 47 -19 52 -4 6 -11 27 -14 49 -9 46 -20 40 -18 -9 1 -31 -2 -36 -31 -45
l-32 -10 36 5 c35 5 37 4 43 -30 4 -20 9 -42 12 -49 6 -16 -45 -39 -77 -34
-18 2 -28 18 -52 91 -16 48 -33 87 -37 87 -9 0 0 -91 10 -105 4 -5 11 -29 15
-52 6 -39 5 -43 -14 -43 -11 0 -22 -4 -25 -8 -2 -4 -18 -9 -35 -10 -25 -2 -31
2 -31 17 0 11 -4 23 -10 26 -5 3 -10 1 -10 -6 0 -7 -3 -9 -6 -6 -4 4 -2 12 3
19 7 9 6 24 -3 48 l-14 35 3 -32 c2 -18 0 -30 -5 -27 -4 3 -8 12 -8 20 0 8
-11 39 -24 67 -13 29 -26 67 -30 84 -6 36 -13 32 89 53 49 11 191 44 510 120
88 21 219 52 290 69 72 17 213 50 315 75 102 24 266 63 365 86 99 24 209 51
245 60 89 24 95 24 109 -7z m-4015 -261 c-5 -16 -5 -16 6 1 12 18 45 23 55 7
4 -6 -1 -7 -11 -3 -14 5 -16 2 -11 -17 7 -26 -12 -110 -25 -110 -4 0 -8 -7 -8
-15 0 -9 -7 -18 -15 -21 -10 -4 -13 -14 -9 -29 4 -14 0 -28 -11 -36 -9 -8 -24
-22 -34 -32 -40 -39 -33 14 7 65 8 9 11 21 8 26 -8 14 35 193 45 186 4 -2 6
-12 3 -22z m596 -49 c41 -8 120 -81 120 -112 0 -12 -7 -24 -16 -28 -8 -3 -22
-23 -31 -45 -12 -30 -28 -46 -68 -69 -28 -16 -58 -40 -65 -54 -8 -15 -19 -24
-28 -20 -7 3 -30 5 -50 5 -29 0 -43 8 -78 44 -57 60 -71 104 -50 160 37 97
143 144 266 119z m6386 -94 c113 -36 217 -102 297 -188 72 -78 121 -168 85
-156 -7 2 -27 6 -44 8 -18 3 -41 14 -51 24 -11 11 -34 26 -52 34 -17 8 -29 19
-27 26 3 7 1 15 -4 18 -6 4 -10 1 -10 -5 0 -6 -5 -8 -10 -5 -6 4 -8 10 -5 15
3 5 -3 11 -13 14 -10 4 -27 14 -38 24 -39 36 -111 70 -196 92 -83 22 -88 22
-113 6 -17 -11 -24 -23 -21 -33 4 -9 1 -22 -5 -29 -6 -8 -9 -20 -6 -27 6 -16
-12 -41 -36 -50 -12 -5 -16 -13 -13 -25 4 -11 -2 -27 -14 -40 -11 -11 -20 -25
-20 -30 0 -12 -142 -14 -160 -2 -8 5 -10 10 -5 10 20 1 -21 20 -42 20 -12 0
-26 6 -30 14 -10 18 -71 28 -94 15 -10 -5 -20 -19 -22 -31 -3 -13 -3 1 -1 30
12 151 159 277 354 302 87 12 197 0 296 -31z m-2770 -185 c-2 -6 -17 -14 -33
-16 -26 -5 -149 -31 -199 -43 -17 -4 -25 3 -39 34 -21 47 -16 58 33 67 20 4
75 17 122 29 l85 22 18 -40 c10 -22 16 -46 13 -53z m-4470 41 c3 -14 13 -29
22 -34 14 -8 14 -12 3 -25 -8 -9 -11 -19 -8 -22 10 -11 133 18 176 42 24 13
46 24 49 24 12 0 -50 -42 -82 -55 -51 -22 -213 -43 -275 -37 -44 4 -52 2 -46
-9 6 -11 5 -11 -4 -3 -7 7 -27 10 -45 7 -31 -4 -33 -3 -43 44 -6 26 -10 50 -8
52 4 4 77 -39 85 -50 3 -4 23 -12 45 -18 80 -22 150 -8 112 22 -17 14 -31 63
-22 77 12 19 35 10 41 -15z m895 -877 l41 -23 15 23 c10 14 26 22 44 22 25 0
29 -4 29 -29 0 -17 -11 -42 -26 -60 -31 -37 -67 -40 -124 -11 -40 21 -70 18
-70 -6 0 -9 -12 -14 -36 -14 l-37 0 6 38 c8 45 47 82 88 82 17 0 48 -10 70
-22z m-874 -144 l41 -19 -24 -53 -23 -53 -32 17 c-18 9 -58 19 -89 21 -50 5
-60 3 -80 -17 l-23 -23 21 -17 c12 -10 56 -26 98 -35 92 -22 133 -48 157 -98
27 -54 16 -108 -32 -156 -44 -44 -96 -61 -184 -61 -61 0 -191 31 -200 48 -2 4
7 30 20 58 l23 52 42 -20 c23 -11 67 -23 98 -25 67 -6 103 8 98 39 -3 22 -4
22 -141 62 -32 10 -73 31 -92 47 -81 72 -43 202 71 245 55 20 196 14 251 -12z
m1585 -7 c62 -36 104 -87 123 -149 19 -65 19 -91 -1 -157 -55 -187 -322 -244
-465 -101 -48 48 -79 119 -79 180 0 61 31 132 79 180 62 62 114 80 217 77 66
-3 89 -8 126 -30z m-2419 9 c109 -39 167 -121 167 -235 -1 -104 -43 -176 -135
-224 -35 -19 -59 -22 -207 -25 l-168 -4 0 251 0 251 153 0 c101 -1 165 -5 190
-14z m397 -236 l0 -250 -70 0 -70 0 0 250 0 250 70 0 70 0 0 -250z m960 195
l0 -55 -125 0 -125 0 0 -40 0 -40 110 0 110 0 0 -55 0 -55 -110 0 -110 0 0
-45 0 -45 130 0 130 0 0 -55 0 -55 -200 0 -200 0 0 250 0 250 195 0 195 0 0
-55z m322 -72 l103 -128 3 128 3 127 69 0 70 0 0 -250 0 -250 -58 0 -58 0
-105 127 -104 127 -3 -127 -3 -127 -69 0 -70 0 0 250 0 250 59 0 59 0 104
-127z m93 -500 c22 -12 50 -32 63 -46 l23 -24 -44 -36 -44 -36 -48 25 c-55 28
-91 30 -140 10 -46 -19 -75 -69 -75 -127 0 -91 71 -149 165 -135 l45 7 0 70 0
69 65 0 65 0 0 -106 0 -105 -57 -27 c-50 -23 -71 -27 -153 -27 -85 0 -100 3
-141 27 -65 38 -106 89 -125 154 -38 132 26 264 152 315 66 26 191 22 249 -8z
m2335 6 c25 -11 57 -32 73 -47 l27 -26 -41 -42 -42 -43 -33 26 c-67 50 -164
37 -204 -29 -26 -43 -26 -113 0 -156 39 -63 138 -79 201 -33 16 12 32 21 37
21 4 0 26 -18 47 -41 l40 -40 -30 -25 c-50 -40 -97 -58 -165 -62 -82 -5 -138
10 -192 51 -56 43 -84 86 -99 153 -28 125 44 256 167 299 59 21 161 18 214 -6z
m515 4 c69 -23 139 -95 159 -164 20 -66 20 -92 0 -158 -55 -187 -322 -244
-465 -101 -48 48 -79 119 -79 180 0 15 7 50 16 79 19 66 90 141 155 164 59 21
154 21 214 0z m-2334 -21 c90 -47 123 -146 79 -236 -11 -23 -33 -50 -49 -61
l-30 -19 55 -78 54 -78 -77 0 -78 0 -44 65 c-42 61 -47 65 -83 65 l-38 0 0
-65 0 -65 -70 0 -70 0 0 250 0 250 149 0 c143 0 151 -1 202 -28z m586 -192
c52 -118 101 -230 108 -247 l14 -33 -74 0 -74 0 -20 45 -20 45 -105 0 -104 0
-18 -45 -17 -45 -74 0 c-56 0 -74 3 -70 13 26 61 207 470 212 478 4 5 36 9 77
7 l70 -3 95 -215z m553 165 l0 -55 -125 0 -125 0 0 -55 0 -55 110 0 110 0 0
-55 0 -55 -110 0 -110 0 0 -85 0 -85 -70 0 -70 0 0 250 0 250 195 0 195 0 0
-55z m210 -195 l0 -250 -70 0 -70 0 0 250 0 250 70 0 70 0 0 -250z"/>
<path d="M5468 5647 l-137 -102 0 -152 c-1 -83 3 -154 8 -157 25 -16 273 -86
283 -80 6 4 47 33 92 66 44 33 105 75 134 95 l52 36 1 111 c0 61 2 130 4 153
3 41 3 42 -38 57 -106 38 -230 76 -245 75 -10 0 -79 -46 -154 -102z m279 48
c128 -43 143 -52 143 -89 0 -25 -2 -27 -16 -15 -14 11 -19 10 -35 -10 -24 -29
-24 -49 1 -86 21 -32 26 -65 10 -65 -5 0 -10 8 -10 17 0 13 -3 14 -11 6 -7 -7
-9 -19 -6 -28 9 -22 37 -31 48 -14 6 10 9 6 9 -15 0 -23 -3 -27 -20 -23 -11 3
-20 1 -20 -3 0 -5 7 -10 16 -12 16 -3 -224 -188 -245 -188 -30 0 -251 75 -255
86 -3 7 -6 71 -7 141 l-1 128 23 -1 c15 -1 17 1 6 3 -10 3 -17 8 -15 13 6 18
244 189 263 189 12 1 66 -15 122 -34z"/>
<path d="M4725 5552 c-75 -26 -135 -65 -187 -120 -155 -165 -140 -384 32 -469
48 -25 66 -28 145 -27 79 0 98 4 157 31 150 70 249 207 250 348 1 153 -112
255 -280 255 -37 -1 -90 -8 -117 -18z m253 -29 c106 -50 156 -176 117 -294
-24 -73 -53 -117 -115 -172 -181 -163 -440 -142 -518 43 -21 51 -13 163 18
225 52 108 186 206 306 224 78 12 128 5 192 -26z"/>
<path d="M3900 5390 c-251 -44 -425 -295 -336 -485 118 -255 533 -203 674 85
21 45 27 69 27 130 0 66 -4 82 -31 130 -61 107 -197 164 -334 140z m197 -40
c58 -26 98 -62 126 -115 34 -63 31 -183 -7 -254 -56 -107 -176 -196 -300 -221
-142 -29 -286 36 -336 152 -18 43 -22 65 -18 123 6 84 30 137 96 207 116 124
300 170 439 108z"/>
<path d="M3725 5111 c-20 -8 -23 -42 -9 -133 5 -35 8 -37 32 -32 52 13 64 33
60 97 -5 73 -27 90 -83 68z"/>
<path d="M5438 4987 c-61 -37 -115 -82 -111 -94 3 -7 -13 -15 -39 -20 -40 -8
-43 -11 -46 -45 -3 -29 -6 -35 -22 -31 -10 3 -27 0 -37 -6 -11 -6 -13 -11 -5
-11 9 0 11 -7 7 -21 -6 -19 -4 -21 16 -16 13 4 28 7 33 7 4 0 6 7 2 15 -3 10
1 15 13 15 10 0 33 3 50 6 23 5 31 3 31 -8 0 -8 26 -22 66 -35 53 -18 70 -20
85 -10 10 6 19 16 19 21 0 4 -6 3 -14 -3 -10 -8 -29 -6 -80 9 -36 12 -66 24
-66 29 0 4 26 14 58 20 31 7 68 17 82 21 14 5 67 16 118 25 50 10 93 20 93 24
7 38 7 71 1 75 -7 4 -37 -1 -158 -29 -12 -3 -22 -10 -21 -17 1 -37 -4 -58 -13
-53 -5 3 -10 18 -10 32 0 28 -1 28 -117 7 -43 -8 -42 5 4 36 21 14 46 32 56
40 9 8 34 17 55 20 35 5 35 6 10 11 -18 4 -39 -1 -60 -14z"/>
<path d="M4400 4779 c0 -4 -57 -49 -126 -100 -107 -80 -125 -97 -121 -116 3
-17 -1 -25 -17 -28 -11 -3 -48 -11 -81 -18 l-60 -14 -3 -62 c-2 -36 -7 -59
-13 -56 -12 8 -119 -16 -119 -27 0 -4 4 -8 8 -8 5 0 17 -6 27 -14 18 -13 18
-14 -4 -45 -27 -37 -22 -38 76 -15 77 18 98 30 83 49 -7 9 4 15 45 24 60 13
75 10 75 -19 0 -21 11 -25 165 -63 117 -29 133 -30 159 -6 10 10 68 53 128 96
92 66 108 82 108 105 0 23 6 29 38 37 49 14 73 14 70 -1 -5 -20 29 -21 110 -3
l76 17 -25 22 -26 23 20 27 c10 15 17 30 13 33 -3 4 -31 -1 -61 -9 l-55 -15
-2 26 c-1 14 -2 33 -4 41 -1 8 -2 20 -3 27 -1 8 -16 8 -58 -3 -82 -19 -101
-18 -105 7 -2 18 -22 27 -118 55 -115 34 -200 48 -200 33z m169 -77 c52 -15
96 -33 98 -39 3 -7 -32 -19 -89 -32 -51 -11 -156 -34 -232 -51 -77 -16 -141
-28 -144 -25 -7 7 38 45 142 120 64 47 94 63 110 59 11 -3 63 -17 115 -32z
m101 -240 c0 -15 -156 -138 -211 -166 -10 -5 -38 -2 -73 8 -31 9 -81 23 -111
32 -30 8 -55 21 -55 28 0 9 37 21 103 36 172 38 180 39 262 59 44 11 81 20 83
20 1 1 2 -7 2 -17z"/>
<path d="M5460 4652 c-8 -3 -20 -10 -27 -16 -6 -6 -34 -27 -62 -46 -28 -19
-49 -42 -48 -49 1 -10 -12 -18 -40 -24 -41 -8 -43 -10 -43 -42 0 -26 -3 -33
-15 -29 -24 10 -49 -4 -36 -19 8 -10 7 -17 -2 -27 -10 -10 -7 -12 13 -6 14 3
28 6 32 6 4 0 5 6 2 14 -3 9 7 15 33 19 54 10 63 9 63 -6 0 -14 90 -47 127
-47 21 0 143 86 143 102 0 5 -29 -11 -64 -36 -36 -25 -71 -46 -78 -46 -34 0
-120 32 -111 41 6 6 61 21 124 35 163 35 202 46 218 58 11 9 13 7 7 -11 -6
-19 -4 -21 20 -14 19 5 28 14 29 30 2 20 -2 22 -27 17 -26 -5 -28 -3 -28 25 0
21 -4 30 -12 26 -7 -2 -39 -10 -70 -17 -54 -12 -71 -24 -48 -32 5 -1 7 -13 4
-25 -8 -29 -24 -20 -24 13 0 18 -5 24 -22 23 -13 0 -18 -3 -12 -5 12 -5 6 -64
-7 -64 -5 0 -9 14 -9 31 0 31 -1 31 -37 25 -21 -3 -56 -9 -78 -12 l-40 -6 62
46 c69 51 78 53 148 31 44 -13 66 -13 54 0 -11 11 -126 41 -139 37z"/>
<path d="M3193 1455 c-105 -45 -95 -216 15 -255 37 -13 47 -13 84 0 111 39
120 211 13 256 -43 17 -71 17 -112 -1z"/>
<path d="M770 1330 l0 -140 68 0 c105 0 162 49 162 140 0 91 -57 140 -162 140
l-68 0 0 -140z"/>
<path d="M5433 845 c-105 -45 -95 -216 15 -255 37 -13 47 -13 84 0 111 39 120
211 13 256 -43 17 -71 17 -112 -1z"/>
<path d="M3050 784 l0 -76 66 4 c77 5 94 20 94 79 0 51 -27 69 -102 69 l-58 0
0 -76z"/>
</g>
</svg>
