<?xml version="1.0" standalone="no"?>
<!DOCTYPE svg PUBLIC "-//W3C//DTD SVG 20010904//EN"
 "http://www.w3.org/TR/2001/REC-SVG-20010904/DTD/svg10.dtd">
<svg version="1.0" xmlns="http://www.w3.org/2000/svg"
 width="1024.000000pt" height="512.000000pt" viewBox="0 0 1024.000000 512.000000"
 preserveAspectRatio="xMidYMid meet">
<metadata>
Created by potrace 1.16, written by Peter Selinger 2001-2019
</metadata>
<g transform="translate(0.000000,512.000000) scale(0.100000,-0.100000)"
fill="#000000" stroke="none">
<path d="M5665 4373 c-205 -412 -464 -927 -574 -1146 -111 -219 -201 -406
-201 -415 0 -17 86 -78 228 -162 104 -61 107 -81 13 -95 -62 -8 -83 -15 -79
-25 2 -5 163 -105 358 -222 412 -248 456 -276 494 -312 l29 -26 -102 0 c-68 0
-101 -4 -101 -11 0 -8 -6 -7 -17 2 -11 10 -14 10 -9 2 5 -10 -11 -13 -72 -13
-73 0 -88 4 -169 41 -48 22 -95 45 -103 50 -44 28 -143 69 -165 69 -18 0 -28
7 -35 25 -11 29 -35 32 -103 13 -40 -10 -48 -9 -88 13 -24 13 -43 28 -42 33 1
5 16 14 33 20 55 19 34 31 -45 28 -59 -3 -81 1 -114 18 -23 11 -41 16 -41 11
0 -17 64 -59 108 -70 23 -7 42 -18 42 -25 0 -23 89 -76 127 -76 24 0 33 -4 33
-17 0 -9 10 -28 23 -41 20 -23 21 -25 2 -17 -11 4 -32 10 -47 12 -15 3 -35 14
-44 24 -9 10 -27 19 -39 19 -11 0 -30 7 -41 15 -24 18 -64 19 -64 2 0 -16 -61
-47 -92 -47 -24 0 -108 40 -108 51 0 8 15 11 110 27 31 5 46 13 48 25 5 27
-24 31 -113 13 -113 -22 -141 -20 -192 9 -23 14 -43 21 -43 15 0 -14 78 -69
109 -77 14 -3 42 -23 62 -43 20 -21 61 -49 90 -63 30 -14 60 -35 67 -46 7 -12
11 -21 9 -21 -6 0 -78 38 -90 48 -7 5 -34 17 -62 27 -27 10 -58 27 -68 37 -24
25 -162 32 -177 9 -11 -19 -77 -16 -115 5 -19 10 -35 21 -35 25 0 4 33 13 72
20 55 11 74 18 76 32 5 28 -26 32 -112 14 -45 -10 -94 -17 -111 -17 -31 0
-123 54 -108 63 4 3 37 11 73 17 72 14 90 24 73 41 -8 8 -28 8 -75 -1 -123
-25 -154 -24 -203 3 -25 14 -45 24 -45 22 0 -11 91 -67 122 -76 22 -5 38 -16
38 -24 0 -19 99 -85 128 -85 14 0 26 -8 31 -23 11 -28 76 -75 124 -88 42 -11
59 -49 22 -49 -13 0 -31 7 -39 16 -20 19 -140 84 -157 84 -6 0 -22 11 -35 25
-20 22 -30 25 -58 19 -40 -7 -66 3 -45 17 12 8 11 11 -1 19 -18 12 -30 13 -29
3 4 -22 -3 -32 -23 -39 -12 -3 -28 -13 -36 -20 -18 -18 -27 -18 -48 3 -18 18
-21 19 -49 22 -8 0 -15 6 -15 12 0 7 10 9 25 5 14 -4 25 -2 25 4 0 5 9 10 20
10 23 0 70 20 70 31 0 4 -7 15 -15 23 -15 14 -77 15 -123 0 -20 -6 -4 37 24
63 28 26 31 37 7 25 -10 -5 -24 -7 -30 -5 -7 3 -13 0 -13 -6 0 -6 -7 -11 -15
-11 -8 0 -12 -6 -10 -13 3 -6 -4 -18 -15 -25 -18 -11 -20 -10 -16 20 2 23 9
34 22 36 32 5 64 25 64 39 0 7 -4 13 -10 13 -5 0 -10 -4 -10 -10 0 -32 -70 8
-70 41 -1 25 -28 51 -62 58 -48 10 -73 3 -102 -26 -14 -14 -26 -20 -26 -14 0
22 29 69 59 94 l30 25 -24 22 c-20 19 -26 20 -46 8 -13 -7 -28 -19 -33 -27 -6
-10 -10 -10 -15 -2 -5 7 -14 -1 -25 -22 -10 -18 -35 -44 -55 -57 -38 -25 -111
-36 -111 -17 0 8 -3 8 -11 0 -14 -14 -39 -6 -39 14 0 8 4 12 9 8 12 -7 17 2
25 49 7 36 6 38 -8 26 -24 -19 -32 -4 -11 20 17 19 17 20 0 20 -14 0 -15 3 -6
14 9 10 9 20 2 34 -7 13 -6 26 4 46 8 14 12 33 8 41 -3 9 1 15 11 15 9 0 16 5
16 10 0 6 -5 10 -10 10 -6 0 -8 13 -5 30 12 66 -48 18 -129 -105 -26 -38 -66
-97 -91 -130 -24 -33 -54 -78 -67 -100 -19 -32 -30 -41 -56 -43 -29 -3 -33 0
-38 27 -6 30 -24 44 -24 19 0 -9 -4 -8 -10 2 -9 13 -10 13 -10 0 0 -12 -2 -13
-9 -1 -7 11 -11 9 -20 -8 -7 -12 -9 -26 -6 -31 4 -6 -1 -7 -11 -3 -13 5 -16 3
-11 -10 3 -9 0 -17 -8 -19 -13 -3 -13 -7 -1 -30 13 -24 12 -26 -2 -20 -14 5
-15 3 -5 -10 16 -19 9 -26 -21 -21 -13 3 -30 16 -37 30 -14 25 -13 25 -84 9
-5 -1 -20 -7 -32 -14 -38 -21 -72 -15 -79 13 -4 17 -13 25 -28 25 -11 1 -61 3
-110 5 -129 7 -211 -7 -242 -40 -36 -39 -39 -25 -6 21 15 21 34 54 41 72 15
37 40 53 123 76 68 20 93 43 63 60 -11 6 -39 30 -62 54 -46 46 -56 90 -29 127
11 16 18 17 57 7 58 -15 60 -9 5 14 -25 11 -46 22 -46 27 0 4 16 32 36 62 20
29 33 59 29 65 -3 5 3 26 15 44 14 24 17 36 9 41 -6 4 -14 3 -18 -2 -3 -5 -16
-26 -29 -46 -13 -20 -27 -37 -31 -37 -4 0 -20 -21 -34 -47 -35 -62 -51 -83
-66 -83 -6 0 -11 -7 -11 -15 0 -21 -27 -19 -39 3 -12 18 -18 14 -46 -34 -10
-16 -12 -16 -38 1 -15 9 -27 24 -27 31 0 10 -13 14 -45 14 -33 0 -50 6 -65 22
-11 12 -20 25 -20 30 0 4 -9 8 -20 8 -11 0 -20 6 -20 14 0 31 -116 30 -135 -1
-5 -9 -17 -24 -25 -33 -21 -23 -48 -68 -67 -110 -17 -39 -30 -51 -50 -43 -7 3
-13 -1 -13 -10 0 -18 -50 -29 -68 -14 -20 16 -63 17 -79 1 -19 -18 -40 -18
-51 2 -7 13 -14 10 -40 -20 -25 -29 -39 -36 -67 -36 -19 0 -35 -5 -35 -11 0
-6 -9 -9 -20 -6 -11 3 -20 0 -20 -5 0 -6 -7 -5 -16 3 -11 9 -17 10 -23 1 -10
-17 -100 -54 -112 -46 -6 4 -15 1 -19 -6 -4 -7 -21 -14 -38 -16 -25 -3 -32 1
-42 26 -16 38 -32 39 -24 3 18 -85 41 -149 85 -246 27 -59 49 -110 49 -112 0
-3 -16 -5 -35 -5 -19 0 -35 -4 -35 -10 0 -5 -18 -10 -40 -10 -22 0 -40 4 -40
10 0 5 -11 12 -24 16 -29 7 -85 95 -142 221 -33 74 -54 102 -54 72 0 -18 -23
-34 -65 -46 -22 -6 -87 -25 -145 -41 -58 -17 -136 -35 -175 -42 -38 -7 -81
-17 -95 -23 -14 -5 -45 -13 -70 -17 -25 -5 -80 -14 -122 -21 l-78 -14 0 -1102
0 -1103 5120 0 5120 0 0 915 0 915 -520 -2 c-286 -2 -520 -1 -520 2 0 3 23 46
51 95 27 50 66 122 86 160 19 39 77 147 128 240 183 337 547 1007 689 1269
l86 160 -2 350 -3 349 -155 53 c-85 28 -272 92 -415 141 -143 50 -266 88 -272
86 -7 -3 -120 32 -250 77 -131 45 -388 133 -571 196 l-334 114 -493 -2 -494
-3 277 -99 c290 -103 1106 -398 1567 -566 149 -54 414 -151 590 -214 330 -120
365 -138 365 -188 0 -12 -25 -67 -57 -122 -169 -302 -223 -399 -223 -402 0 -2
-14 -27 -31 -56 -17 -29 -65 -114 -106 -188 -42 -74 -95 -166 -120 -205 -61
-96 -273 -464 -284 -494 -15 -37 -143 -252 -222 -371 -83 -125 -130 -185 -244
-312 -24 -27 -27 -28 -134 -28 -71 0 -108 -4 -104 -10 4 -7 -68 -10 -208 -10
-195 0 -219 2 -268 21 -30 12 -88 35 -129 51 -41 16 -84 33 -95 38 -11 5 -99
44 -195 86 -191 84 -645 307 -1290 633 -228 116 -425 210 -438 211 -33 0 -140
47 -170 75 -14 13 -36 26 -48 29 -23 6 -57 27 -124 77 -33 24 -129 73 -228
115 -34 14 -48 27 -65 62 l-20 45 441 883 442 883 42 12 c25 6 64 8 93 4 95
-12 109 -11 113 9 2 10 -2 22 -10 27 -7 5 -84 9 -171 9 l-157 0 -375 -747z
m-3591 -2390 c-15 -27 -36 -68 -45 -93 -10 -25 -18 -39 -19 -32 0 9 -60 12
-262 13 l-263 0 71 28 c157 62 409 126 512 130 l34 1 -28 -47z m-279 -1310
c22 -12 50 -32 63 -46 l23 -25 -43 -35 -44 -36 -49 24 c-55 29 -91 31 -140 11
-46 -19 -75 -69 -75 -127 0 -91 71 -149 165 -135 l45 7 0 70 0 69 65 0 65 0 0
-106 0 -105 -57 -27 c-50 -23 -71 -27 -153 -27 -85 0 -100 3 -141 27 -63 37
-105 88 -124 150 -19 65 -19 91 1 157 19 66 90 141 155 164 62 23 190 18 244
-10z m964 11 c28 -8 54 -21 57 -28 3 -7 -4 -33 -15 -59 l-20 -46 -43 19 c-60
27 -139 27 -164 -1 -19 -21 -18 -21 3 -39 13 -10 55 -25 95 -34 81 -18 129
-43 152 -78 48 -74 16 -165 -73 -211 -44 -22 -68 -27 -126 -27 -65 0 -155 19
-197 41 -16 9 -16 13 5 57 12 26 23 49 24 50 1 2 27 -5 58 -17 57 -21 149 -28
173 -12 8 4 12 19 10 31 -3 24 -2 24 -141 64 -72 21 -124 65 -133 113 -14 75
34 150 112 178 52 19 159 18 223 -1z m1206 -1 c95 -32 175 -143 175 -243 0
-100 -80 -211 -175 -243 -62 -22 -148 -22 -210 0 -95 32 -175 143 -175 243 0
15 7 50 16 79 19 66 90 141 155 164 59 21 154 21 214 0z m4744 1 c28 -8 54
-21 57 -28 3 -7 -4 -33 -15 -59 l-20 -46 -43 19 c-60 27 -139 27 -164 -1 -19
-21 -18 -21 3 -39 13 -10 55 -25 95 -34 81 -18 129 -43 152 -78 48 -74 16
-165 -73 -211 -44 -22 -68 -27 -126 -27 -65 0 -155 19 -197 41 -16 9 -16 13 5
57 12 26 23 49 24 50 1 2 27 -5 58 -17 57 -21 149 -28 173 -12 8 4 12 19 10
31 -3 24 -2 24 -141 64 -72 21 -124 65 -133 113 -14 75 34 150 112 178 52 19
159 18 223 -1z m-6359 -49 l0 -55 -125 0 -125 0 0 -40 0 -40 110 0 110 0 0
-55 0 -55 -110 0 -110 0 0 -45 0 -45 130 0 130 0 0 -55 0 -55 -200 0 -200 0 0
250 0 250 195 0 195 0 0 -55z m960 0 l0 -55 -75 0 -75 0 0 -195 0 -195 -75 0
-75 0 0 195 0 195 -75 0 -75 0 0 55 0 55 225 0 225 0 0 -55z m200 -195 l0
-250 -70 0 -70 0 0 250 0 250 70 0 70 0 0 -250z m934 119 l106 -131 0 131 0
131 70 0 70 0 0 -250 0 -250 -58 0 -58 0 -104 126 -105 127 -3 -127 -3 -126
-69 0 -70 0 0 250 0 250 59 0 58 0 107 -131z m951 104 c92 -48 135 -120 135
-223 0 -103 -43 -175 -135 -223 -35 -19 -59 -22 -207 -25 l-168 -4 0 252 0
252 168 -4 c148 -3 172 -6 207 -25z m605 -28 l0 -55 -125 0 -125 0 0 -40 0
-40 110 0 110 0 0 -55 0 -55 -110 0 -110 0 0 -45 0 -45 130 0 130 0 0 -55 0
-55 -200 0 -200 0 0 250 0 250 195 0 195 0 0 -55z m661 27 c91 -47 123 -146
78 -239 -11 -23 -34 -51 -49 -60 l-29 -17 55 -78 54 -78 -77 0 -78 1 -44 64
c-41 61 -45 65 -82 65 l-39 0 0 -65 0 -65 -70 0 -70 0 0 250 0 250 149 0 c143
0 151 -1 202 -28z m569 -27 l0 -55 -125 0 -125 0 0 -40 0 -40 110 0 110 0 0
-55 0 -55 -110 0 -110 0 0 -45 0 -45 130 0 130 0 0 -55 0 -55 -200 0 -200 0 0
250 0 250 195 0 195 0 0 -55z m475 28 c92 -48 135 -120 135 -223 0 -103 -43
-175 -135 -223 -35 -19 -59 -22 -207 -25 l-168 -4 0 252 0 252 168 -4 c148 -3
172 -6 207 -25z m605 -28 l0 -55 -125 0 -125 0 0 -40 0 -40 110 0 110 0 0 -55
0 -55 -110 0 -110 0 0 -45 0 -45 130 0 130 0 0 -55 0 -55 -200 0 -200 0 0 250
0 250 195 0 195 0 0 -55z"/>
<path d="M3803 565 c-105 -45 -95 -216 15 -255 37 -13 47 -13 84 0 111 39 120
211 13 256 -43 17 -71 17 -112 -1z"/>
<path d="M5160 440 l0 -140 68 0 c105 0 162 49 162 140 0 91 -57 140 -162 140
l-68 0 0 -140z"/>
<path d="M6450 504 l0 -76 66 4 c77 5 94 20 94 79 0 51 -27 69 -102 69 l-58 0
0 -76z"/>
<path d="M7470 440 l0 -140 68 0 c105 0 162 49 162 140 0 91 -57 140 -162 140
l-68 0 0 -140z"/>
<path d="M6303 4698 c-12 -13 -49 -79 -82 -147 -34 -68 -71 -137 -83 -154 -36
-50 -16 -69 154 -148 106 -49 168 -72 220 -80 43 -7 94 -24 124 -41 30 -17 58
-26 68 -22 23 9 75 115 83 169 l6 44 -57 -2 c-48 -3 -56 -1 -56 14 0 36 41
109 62 109 4 0 8 -13 8 -29 0 -59 73 -48 105 15 11 22 35 55 53 75 52 56 31
78 -108 113 -34 9 -96 30 -138 47 -63 25 -91 30 -154 30 -46 0 -92 6 -113 14
-48 21 -68 19 -92 -7z"/>
<path d="M7628 4619 c-10 -5 -18 -18 -18 -28 0 -15 28 -30 128 -69 130 -52
230 -81 250 -74 29 9 6 35 -65 71 -63 31 -263 112 -275 111 -2 0 -11 -5 -20
-11z"/>
<path d="M8291 4347 c-8 -11 0 -21 39 -46 27 -18 78 -44 112 -58 35 -13 77
-31 93 -38 34 -16 286 -108 325 -120 26 -8 697 -267 815 -314 29 -12 63 4 71
33 8 32 0 43 -39 55 -40 12 -653 243 -797 301 -411 165 -592 219 -619 187z"/>
<path d="M3362 4246 c-10 -12 -31 -41 -46 -66 -15 -25 -40 -63 -56 -85 -41
-56 -39 -72 10 -77 28 -2 40 0 40 9 0 15 51 18 66 4 5 -5 43 -17 84 -26 84
-20 144 -45 181 -73 13 -11 35 -23 49 -27 54 -15 316 -139 340 -160 43 -37
113 -85 126 -85 13 0 84 81 84 95 0 5 21 39 47 77 26 39 42 72 37 77 -5 4 -40
18 -79 31 -38 12 -93 33 -120 46 -28 13 -55 24 -61 24 -6 0 -63 22 -125 49
-63 26 -143 53 -178 59 -37 7 -103 31 -155 56 -50 25 -121 56 -158 69 l-67 24
-19 -21z"/>
<path d="M6082 3798 c-14 -14 -16 -62 -3 -87 13 -23 110 -56 143 -48 32 8 51
48 38 82 -18 47 -146 85 -178 53z"/>
<path d="M5747 3623 c-36 -29 -56 -58 -88 -127 -48 -104 -45 -123 25 -157 67
-33 83 -24 139 80 40 75 47 97 47 144 0 52 -2 57 -34 76 -18 12 -36 21 -38 21
-3 0 -26 -17 -51 -37z"/>
</g>
</svg>
