<?xml version="1.0" standalone="no"?>
<!DOCTYPE svg PUBLIC "-//W3C//DTD SVG 20010904//EN"
 "http://www.w3.org/TR/2001/REC-SVG-20010904/DTD/svg10.dtd">
<svg version="1.0" xmlns="http://www.w3.org/2000/svg"
 width="1024.000000pt" height="600.000000pt" viewBox="0 0 1024.000000 600.000000"
 preserveAspectRatio="xMidYMid meet">

<g transform="translate(0.000000,600.000000) scale(0.100000,-0.100000)"
fill="#000000" stroke="none">
<path d="M8168 5533 c-1 -258 -2 -477 -2 -489 -2 -38 -50 -93 -123 -140 -130
-84 -231 -205 -308 -367 -53 -110 -85 -224 -88 -306 -1 -33 -5 -57 -9 -53 -8
8 -57 186 -69 252 -8 42 -8 41 -4 -16 2 -33 20 -121 39 -194 19 -74 34 -136
32 -137 -5 -6 -132 174 -172 244 -43 75 -56 110 -88 224 -9 31 -38 90 -65 132
-56 85 -190 232 -201 220 -13 -13 -30 -136 -30 -209 0 -129 36 -231 115 -329
18 -23 90 -80 160 -129 135 -93 244 -190 289 -255 37 -53 57 -172 57 -341 0
-157 -18 -270 -62 -396 -17 -49 -33 -97 -36 -106 -3 -10 -9 -18 -13 -18 -5 0
-4 15 1 32 14 51 11 241 -7 326 -35 172 -113 311 -254 452 -82 82 -128 119
-212 168 -172 101 -269 225 -303 388 -7 36 -16 69 -19 72 -13 13 -5 -194 10
-252 36 -139 101 -227 258 -345 94 -72 209 -182 152 -147 -24 16 -28 16 -23 3
3 -9 3 -18 -1 -20 -4 -2 -1 -2 6 0 9 2 11 -3 6 -19 -5 -16 -3 -20 8 -15 20 7
19 -23 -1 -48 -9 -11 -12 -17 -7 -13 10 9 49 -32 40 -41 -3 -3 -11 1 -17 10
-7 9 -18 14 -24 12 -7 -3 -13 1 -13 9 -1 8 -8 4 -19 -9 l-19 -23 -54 35 c-29
19 -60 41 -70 49 -9 8 -18 12 -21 10 -2 -2 -24 14 -49 36 -26 22 -49 40 -52
40 -15 0 78 -73 159 -125 300 -192 471 -393 500 -588 6 -42 3 -53 -30 -114
-50 -90 -133 -210 -211 -304 -62 -75 -349 -359 -362 -359 -27 0 -522 -493
-522 -520 0 -9 6 -24 13 -34 11 -15 20 -8 86 69 40 47 84 93 98 102 13 9 39
35 56 57 33 42 132 138 337 326 63 58 159 152 214 210 54 58 110 110 125 116
49 22 215 44 325 44 122 0 230 -10 379 -36 l97 -17 0 -205 0 -205 -57 7 c-32
3 -132 15 -223 26 -226 28 -396 35 -507 21 -182 -22 -366 -83 -522 -171 -64
-36 -160 -109 -161 -122 0 -4 29 6 64 21 82 37 207 80 271 92 92 18 187 29
196 24 5 -4 2 -16 -6 -29 -17 -26 -8 -69 17 -79 7 -4 -30 -5 -82 -5 -195 3
-221 -5 -40 -13 102 -4 222 -14 267 -21 80 -14 82 -14 85 6 3 19 9 20 161 17
l159 -3 -4 60 -3 60 68 7 c37 3 77 3 88 0 19 -6 20 -12 15 -59 -15 -119 40
-489 99 -661 l7 -20 -17 20 c-57 67 -160 381 -166 507 -1 13 -5 3 -10 -22 -6
-29 -6 -60 1 -89 12 -50 3 -121 -11 -86 -7 19 -8 19 -8 -1 -1 -12 14 -67 33
-123 29 -87 32 -101 18 -101 -10 0 -23 -4 -31 -9 -11 -7 -9 -13 8 -30 16 -16
17 -21 6 -21 -8 0 -15 4 -15 8 0 4 -11 9 -25 10 -14 1 -39 9 -55 17 -15 8
-109 35 -207 60 -98 26 -207 55 -243 66 -68 21 -290 62 -297 55 -4 -4 46 -16
132 -32 21 -4 48 -16 60 -27 l20 -19 -22 7 c-28 8 -31 -12 -5 -31 16 -13 16
-13 0 -14 -10 0 -18 -7 -18 -15 0 -9 -7 -18 -17 -22 -14 -5 -13 -8 5 -14 13
-5 22 -17 22 -28 0 -14 -5 -19 -16 -14 -12 4 -11 -1 5 -30 l20 -36 -22 8 c-12
5 -26 10 -32 12 -5 2 -8 8 -6 14 19 47 13 67 -32 110 -26 24 -49 56 -53 70 -7
29 -58 69 -79 62 -8 -4 -24 8 -39 28 -15 19 -39 36 -56 40 -35 8 -83 -13 -88
-37 -5 -25 59 -82 107 -96 35 -11 45 -20 60 -55 l18 -42 -24 -13 c-14 -8 -35
-11 -46 -8 -12 3 -27 0 -35 -7 -11 -8 -53 -11 -139 -9 l-125 4 13 -24 c6 -12
29 -49 51 -80 32 -48 44 -58 76 -63 80 -14 81 -15 48 -85 -11 -24 -16 -25 -89
-25 -77 0 -88 -4 -64 -23 8 -7 25 -7 52 0 78 20 116 -23 99 -111 -10 -50 -35
-61 -141 -61 l-93 0 -24 -53 -24 -52 -1 103 -1 102 105 0 c87 0 105 3 105 15
0 13 -42 15 -319 15 l-318 0 -7 47 c-4 27 -16 73 -27 103 -17 45 -22 91 -28
255 -6 172 -10 206 -28 247 -28 61 -53 74 -107 58 -53 -16 -63 -24 -87 -77
-33 -72 -44 -206 -30 -378 6 -82 12 -172 13 -200 l2 -50 -469 -5 c-357 -4
-469 -8 -472 -17 -3 -9 34 -13 154 -15 l158 -3 3 -382 c1 -211 6 -383 11 -383
5 0 8 17 8 38 0 20 1 193 1 385 l2 347 304 0 304 0 6 -127 c4 -71 18 -227 31
-348 28 -252 31 -236 -64 -283 l-56 -27 45 -3 c55 -3 185 21 185 34 0 5 -4 53
-9 106 -5 66 -4 126 5 186 9 67 10 102 1 145 -9 48 -8 66 10 132 11 42 24 73
28 68 4 -4 15 -28 24 -53 9 -25 72 -135 140 -245 l123 -200 -25 -50 c-13 -27
-31 -58 -40 -68 -20 -23 -11 -30 27 -22 34 7 121 98 121 126 0 9 -9 24 -20 34
-30 27 -25 35 20 33 32 -1 40 -5 40 -20 0 -26 15 -22 28 7 17 38 15 45 -15 45
-16 0 -41 9 -58 20 -16 11 -40 20 -51 20 -21 0 -41 44 -84 184 -7 21 -28 56
-47 76 -29 33 -36 50 -48 127 -8 48 -15 91 -15 96 0 4 90 7 200 7 l200 0 0
-126 0 -127 -41 -81 c-23 -44 -45 -85 -50 -91 -16 -16 -9 -30 27 -53 28 -18
39 -21 50 -11 12 10 14 -9 14 -135 0 -91 4 -146 10 -146 6 0 10 66 10 179 l0
180 36 78 35 78 33 -85 c18 -47 44 -119 57 -160 13 -41 24 -77 26 -79 5 -8 83
20 83 30 0 8 -63 209 -77 247 -3 7 4 12 20 12 14 0 27 7 31 15 4 12 22 15 83
13 l78 -2 -70 -3 c-57 -3 -73 -8 -88 -25 -16 -19 -16 -22 -1 -39 9 -10 23 -15
32 -12 14 5 15 3 5 -8 -22 -22 -15 -29 31 -29 25 0 48 -5 51 -11 4 -5 17 -14
28 -18 21 -8 22 -14 19 -113 l-3 -104 -47 -28 c-42 -26 -47 -26 -58 -11 -10
13 -17 14 -33 6 -11 -6 -29 -11 -40 -11 -11 0 -26 -10 -32 -23 -6 -12 -23 -34
-37 -49 -22 -24 -23 -28 -8 -28 10 0 30 7 46 16 26 16 28 16 49 -5 11 -11 26
-21 31 -21 15 0 50 38 50 54 0 8 23 27 52 43 l52 30 54 -31 c30 -17 58 -41 63
-53 11 -30 44 -46 68 -34 28 15 34 41 15 68 -12 20 -22 24 -42 20 -19 -4 -43
4 -82 27 l-55 32 -3 99 c-2 61 1 102 8 109 6 6 58 13 115 16 93 5 106 8 131
30 69 64 71 172 4 257 -28 36 -25 45 13 41 24 -2 31 0 28 12 -14 53 -23 132
-15 139 5 5 41 4 79 -1 39 -6 140 -8 225 -5 170 6 294 31 410 83 l60 27 23
-24 c12 -14 33 -32 46 -42 l25 -17 -17 -54 c-10 -30 -35 -81 -57 -113 -43 -65
-129 -149 -157 -155 -17 -3 -18 -21 -21 -235 -2 -220 -3 -231 -22 -236 -15 -4
-20 -14 -20 -41 l0 -36 98 -1 c97 -1 251 -15 200 -17 -22 -2 -28 -7 -28 -26 0
-13 -6 -27 -12 -29 -10 -4 -10 -6 0 -6 6 -1 12 -7 12 -15 0 -8 11 -17 25 -20
25 -6 25 -8 25 -111 l0 -105 1035 0 1035 0 0 3000 0 3000 -1035 0 -1035 0 -2
-467z m1518 -97 c37 -63 71 -113 75 -111 3 3 35 54 70 115 l63 110 48 0 48 0
0 -205 0 -205 -49 0 -49 0 -6 63 c-3 34 -7 78 -9 97 -2 35 -2 34 -47 -43 -41
-71 -47 -77 -74 -75 -25 3 -37 15 -75 77 l-46 75 -3 -97 -3 -97 -54 0 -55 0 0
205 0 205 49 0 49 0 68 -114z m217 -675 c48 -109 87 -201 87 -205 0 -3 -27 -6
-59 -6 l-59 0 -16 40 -16 40 -83 0 -84 0 -16 -40 -15 -40 -61 0 -60 0 34 80
c19 44 50 115 69 158 19 42 43 98 55 125 l20 47 59 0 59 0 86 -199z m-2766
-24 c13 -51 43 -131 67 -179 43 -86 44 -87 24 -100 -18 -12 -19 -17 -9 -37 10
-18 10 -25 0 -38 -12 -13 -14 -13 -25 2 -7 9 -10 24 -7 33 4 10 3 14 -2 10
-22 -20 -71 87 -85 185 -10 66 -3 233 8 222 4 -3 16 -47 29 -98z m1033 28 c0
-8 5 -15 10 -15 6 0 10 -8 10 -17 0 -15 -2 -16 -10 -3 -6 10 -10 -130 -11
-405 -1 -231 -2 -426 -3 -432 0 -7 -29 -26 -63 -42 -136 -65 -277 -190 -343
-303 l-30 -53 0 114 c0 130 -19 274 -55 416 l-25 98 35 43 c19 23 78 82 131
131 151 139 255 280 314 426 23 55 40 73 40 42z m-892 -325 c7 -11 11 -20 9
-20 -2 0 -12 9 -22 20 -10 11 -14 20 -9 20 5 0 15 -9 22 -20z m2579 -71 c102
-38 134 -169 58 -242 l-33 -31 39 -58 c21 -31 39 -59 39 -62 0 -4 -27 -6 -60
-6 l-60 0 -36 55 c-30 45 -42 55 -65 55 -28 0 -29 -1 -29 -55 l0 -55 -60 0
-60 0 0 205 0 205 119 0 c66 0 132 -5 148 -11z m-2611 -26 c-7 -7 -26 7 -26
19 0 6 6 6 15 -2 9 -7 13 -15 11 -17z m19 -564 c11 -17 -1 -21 -15 -4 -8 9 -8
15 -2 15 6 0 14 -5 17 -11z m2435 -71 l0 -83 76 83 76 82 65 0 65 0 -81 -87
c-44 -49 -81 -92 -81 -98 0 -5 38 -58 85 -117 l85 -108 -69 0 -69 0 -53 68
c-29 37 -54 69 -56 71 -2 2 -12 -4 -23 -14 -15 -14 -20 -31 -20 -72 l0 -53
-60 0 -60 0 0 205 0 205 60 0 60 0 0 -82z m-2514 -44 c-4 -11 -2 -15 7 -11 7
3 24 -3 37 -13 l23 -18 -26 3 c-27 3 -81 35 -59 35 7 0 10 5 7 10 -3 6 -1 10
5 10 7 0 9 -7 6 -16z m984 -368 l0 -334 -92 -7 c-270 -19 -518 -101 -649 -213
-23 -20 -38 -30 -33 -22 5 8 42 65 82 125 120 180 192 348 230 535 l17 85 82
51 c92 58 187 92 289 103 38 5 70 9 72 10 1 0 2 -149 2 -333z m1760 -131 l0
-45 -100 0 -100 0 0 -35 0 -35 90 0 90 0 0 -45 0 -45 -90 0 -90 0 0 -35 0 -35
105 0 105 0 0 -45 0 -45 -165 0 -165 0 0 205 0 205 160 0 160 0 0 -45z m20
-580 l0 -45 -65 0 -65 0 0 -160 0 -160 -55 0 -55 0 0 160 0 160 -65 0 -65 0 0
45 0 45 185 0 185 0 0 -45z m-130 -750 l0 -205 -60 0 -60 0 0 205 0 205 60 0
60 0 0 -205z m-1943 33 c-3 -8 -6 -5 -6 6 -1 11 2 17 5 13 3 -3 4 -12 1 -19z
m-1980 -54 c-3 -3 7 -18 23 -32 16 -15 43 -56 60 -92 17 -36 35 -72 40 -80 4
-9 11 -30 15 -48 8 -37 -9 -65 -98 -159 -27 -29 -47 -56 -44 -60 9 -14 -21
-73 -37 -73 -22 0 -49 56 -40 83 4 12 20 37 35 55 16 18 43 60 59 93 31 60 31
60 12 87 -31 44 -72 130 -72 151 0 11 8 27 18 37 9 10 18 21 18 26 3 16 4 18
11 18 3 0 4 -3 0 -6z m1987 -120 c3 -8 2 -12 -4 -9 -6 3 -10 10 -10 16 0 14 7
11 14 -7z m-2047 -76 c-3 -8 -6 -5 -6 6 -1 11 2 17 5 13 3 -3 4 -12 1 -19z
m30 -147 c0 -11 -5 -18 -9 -15 -4 3 -5 11 -1 19 7 21 12 19 10 -4z m3884 -116
l84 -104 3 104 3 105 59 0 60 0 0 -205 0 -205 -49 0 -50 0 -83 100 -83 101 -3
-101 -3 -100 -59 0 -60 0 0 205 0 205 49 0 48 0 84 -105z m-3811 0 c0 -8 -2
-15 -4 -15 -2 0 -6 7 -10 15 -3 8 -1 15 4 15 6 0 10 -7 10 -15z m48 -32 c-10
-2 -26 -2 -35 0 -10 3 -2 5 17 5 19 0 27 -2 18 -5z m1140 -178 c3 -100 8 -115
36 -115 17 0 34 -15 65 -62 34 -51 41 -69 41 -110 0 -75 -24 -110 -91 -131 -9
-3 -22 -1 -30 3 -11 7 -10 12 4 28 9 10 17 31 17 46 0 33 -24 43 -93 39 l-51
-3 38 32 38 31 -6 66 c-3 36 -10 89 -15 116 -5 28 -7 69 -4 93 5 37 9 43 27
40 19 -3 21 -10 24 -73z m952 -234 c-9 -17 -6 -20 18 -24 16 -2 8 -5 -21 -6
l-48 -1 28 25 c34 30 37 30 23 6z m1798 -46 c37 -16 82 -52 82 -66 0 -4 -15
-19 -33 -33 l-33 -26 -40 21 c-85 44 -174 -5 -174 -95 0 -78 63 -128 140 -111
29 6 30 8 30 66 l0 60 53 -3 52 -3 3 -79 c3 -92 -5 -106 -76 -130 -58 -20
-142 -20 -190 0 -175 73 -176 322 -2 398 46 20 141 20 188 1z m-2981 -111 c-3
-3 -12 -4 -19 -1 -8 3 -5 6 6 6 11 1 17 -2 13 -5z"/>
<path d="M9735 4789 c-11 -29 -21 -57 -23 -61 -2 -4 17 -8 42 -8 53 0 54 4 23
74 l-22 48 -20 -53z"/>
<path d="M7141 4568 c-1 -22 18 -33 32 -19 9 9 8 11 -5 6 -11 -4 -18 0 -21 12
-4 15 -5 16 -6 1z"/>
<path d="M7179 4523 c-12 -15 -12 -16 3 -10 9 3 22 -1 28 -9 10 -11 9 -14 -8
-14 -11 0 -23 -7 -26 -16 -8 -21 -8 -24 5 -24 5 0 7 5 4 10 -3 6 3 10 13 10
28 0 34 25 13 49 -17 20 -19 20 -32 4z"/>
<path d="M7195 4400 c3 -5 11 -10 16 -10 6 0 7 5 4 10 -3 6 -11 10 -16 10 -6
0 -7 -4 -4 -10z"/>
<path d="M9710 4230 l0 -60 43 0 c52 0 87 22 87 56 0 39 -33 64 -85 64 l-45 0
0 -60z"/>
<path d="M6558 5414 l-108 -96 0 -53 c0 -37 -5 -59 -17 -71 -26 -26 -446 -390
-537 -466 -45 -37 -112 -93 -149 -125 -101 -85 -101 -85 -123 -68 -16 12 -17
16 -5 27 8 7 11 9 9 3 -7 -12 17 -37 26 -28 10 10 7 25 -4 18 -5 -3 -10 -1
-10 5 0 7 8 9 21 5 14 -5 25 -2 30 6 12 19 11 29 -1 29 -5 0 -10 -7 -10 -16 0
-13 -3 -14 -13 -5 -8 6 -17 8 -21 3 -4 -4 -12 1 -17 11 -12 21 -25 22 -33 1
-5 -14 -4 -15 9 -4 11 9 15 9 15 1 0 -25 -32 -23 -60 4 -31 30 -33 49 -3 23
16 -14 20 -13 42 9 23 24 23 25 2 18 -12 -4 -21 -2 -21 4 0 6 4 11 9 11 14 0
21 29 9 36 -6 4 -8 3 -4 -4 3 -6 -4 -18 -16 -27 -19 -13 -21 -17 -8 -25 8 -5
11 -12 7 -16 -3 -4 -13 -1 -21 5 -8 7 -20 10 -26 6 -13 -8 -92 49 -82 60 4 5
-2 5 -13 2 -18 -7 -19 -6 -3 6 10 8 15 17 11 20 -3 4 -11 0 -17 -8 -10 -13
-22 -10 -91 20 -44 19 -88 35 -97 35 -25 0 -22 17 5 26 12 5 25 7 28 7 3 -1 6
5 6 13 0 8 -7 14 -14 14 -8 0 -11 -4 -8 -10 3 -5 -3 -10 -14 -10 -11 0 -26 -7
-35 -15 -18 -18 -26 -19 -26 -2 0 8 -16 11 -52 10 -29 -1 -81 2 -115 6 -34 4
-60 4 -57 -1 3 -4 -14 -8 -38 -8 -24 0 -71 -6 -105 -13 -34 -8 -60 -10 -57 -5
3 4 -4 8 -15 8 -15 0 -19 -4 -14 -17 5 -13 2 -15 -15 -11 -14 4 -20 2 -16 -4
4 -6 -2 -8 -16 -3 -14 4 -20 3 -16 -3 7 -12 -22 -25 -36 -15 -7 3 -8 1 -4 -5
7 -12 -11 -17 -43 -13 -7 2 -10 -2 -6 -8 3 -6 0 -9 -8 -5 -8 3 -20 -3 -28 -12
-12 -16 -12 -17 1 -10 8 4 4 -2 -10 -13 -22 -18 -42 -25 -62 -22 -4 0 -5 -6
-2 -14 4 -10 0 -15 -16 -15 -11 0 -19 -4 -16 -8 8 -13 -35 -46 -64 -51 -24 -3
-40 -17 -40 -35 0 -5 9 -1 20 9 36 32 30 11 -9 -30 -32 -35 -52 -45 -71 -36
-3 2 -17 4 -32 5 -21 1 -28 -3 -28 -17 0 -12 -4 -16 -12 -11 -9 5 -9 3 0 -7
11 -12 15 -11 28 5 11 16 17 17 26 8 10 -10 10 -15 -2 -22 -13 -8 -13 -11 -1
-19 11 -7 10 -13 -5 -35 -11 -14 -23 -26 -27 -26 -5 0 -5 -5 -2 -10 4 -6 -1
-23 -11 -38 -10 -15 -17 -34 -16 -42 2 -12 1 -12 -6 -1 -6 8 -12 9 -16 3 -3
-6 -2 -12 4 -14 10 -3 -8 -80 -23 -94 -4 -4 -7 -27 -7 -50 0 -24 -5 -46 -11
-49 -6 -4 -8 -13 -5 -21 3 -8 1 -14 -4 -14 -5 0 -6 -21 -4 -47 8 -68 6 -94 -9
-111 -8 -11 -8 -14 0 -9 18 11 37 -57 25 -93 -8 -22 -8 -28 2 -24 8 3 11 -6 8
-31 -2 -19 -8 -35 -13 -35 -5 0 -9 -5 -9 -11 0 -19 24 -3 32 22 6 20 7 19 5
-8 -2 -18 0 -30 4 -28 7 5 49 -76 49 -92 -1 -13 -40 41 -40 55 0 14 -20 17
-20 2 0 -15 51 -70 60 -65 4 2 12 -7 19 -21 15 -33 14 -39 -4 -24 -13 11 -14
10 -9 -4 4 -10 13 -15 20 -12 16 6 18 -3 4 -24 -9 -13 -11 -13 -20 0 -6 9 -10
10 -10 3 0 -6 5 -15 11 -18 6 -4 8 -13 5 -21 -3 -8 1 -14 9 -14 20 0 34 -31
25 -55 -6 -15 -2 -28 12 -46 11 -13 17 -18 13 -11 -3 6 -3 12 0 12 11 0 35
-28 35 -40 0 -6 5 -8 12 -4 8 5 9 2 5 -9 -3 -9 -1 -19 5 -23 7 -4 8 -3 4 4 -4
7 -2 12 5 12 10 0 10 3 1 12 -17 17 -15 28 4 28 8 0 13 -4 9 -9 -3 -5 -2 -12
3 -15 4 -2 9 5 9 16 2 17 -2 19 -26 15 -21 -4 -34 -1 -46 13 -10 11 -22 17
-26 14 -5 -3 -9 4 -9 15 0 11 5 23 10 26 15 10 12 35 -5 35 -8 0 -15 9 -15 21
0 13 -4 18 -12 13 -10 -6 -10 -5 -1 8 7 8 9 19 5 23 -4 5 -1 5 6 1 6 -4 12
-13 12 -19 0 -7 17 -31 38 -54 21 -23 45 -50 52 -60 13 -16 13 -16 -8 1 -12
11 -22 14 -22 9 0 -14 29 -37 37 -30 9 9 32 -12 29 -26 -1 -7 -1 -9 1 -4 7 12
23 -3 17 -17 -3 -7 2 -18 10 -25 15 -13 11 -41 -6 -41 -6 0 -8 7 -4 15 3 8 1
15 -4 15 -6 0 -10 -9 -10 -20 0 -11 5 -20 11 -20 6 0 22 9 36 20 31 24 51 26
32 3 -8 -9 -9 -14 -2 -10 16 10 66 -10 58 -23 -4 -6 -10 -8 -15 -5 -10 6 -7
-21 4 -32 4 -4 6 -2 4 6 -1 7 3 16 10 18 8 3 10 -1 6 -14 -6 -17 -6 -17 8 1
17 22 40 14 32 -12 -5 -13 -4 -14 4 -3 11 15 56 6 47 -10 -4 -5 2 -8 12 -6 10
1 19 -2 20 -8 2 -5 -4 -10 -11 -10 -8 0 -17 -3 -21 -6 -3 -4 5 -6 17 -6 44 -1
50 -3 45 -16 -4 -10 2 -13 20 -9 18 3 24 1 19 -7 -8 -13 3 -14 23 -2 11 7 3
14 -30 31 -35 17 -38 20 -14 15 17 -4 37 -13 46 -21 9 -8 18 -11 21 -8 4 3 33
2 65 -2 39 -5 52 -9 39 -14 -19 -6 -19 -7 0 -14 11 -4 20 -3 22 3 2 6 25 11
50 10 39 -1 43 -2 22 -9 -24 -8 -24 -8 6 -9 17 -1 49 5 70 13 45 15 139 31
170 27 12 -1 29 5 37 14 9 9 30 17 46 18 16 1 27 5 24 10 -4 6 5 9 23 6 4 0
10 3 13 8 11 16 103 63 112 57 5 -3 8 0 7 8 -2 7 4 13 12 13 8 0 15 -5 15 -12
0 -6 3 -14 8 -17 4 -3 5 -3 2 1 -5 6 26 27 57 39 9 3 19 12 22 20 6 17 -10 19
-20 3 -4 -8 -9 -7 -15 2 -13 21 19 51 42 39 12 -7 20 -7 24 0 3 6 -4 10 -17
10 l-23 0 21 18 c11 9 32 34 47 54 15 21 33 35 41 32 8 -3 12 3 11 18 -2 25
22 61 36 53 4 -3 10 -1 14 5 3 5 2 10 -4 10 -7 0 -7 8 1 25 12 26 34 24 23 -2
-4 -13 -3 -14 10 -3 19 16 19 30 0 30 -17 0 -20 16 -6 24 5 4 12 0 15 -6 3 -7
4 0 2 16 -2 16 5 47 15 70 10 23 21 61 25 84 5 30 11 42 23 42 9 0 23 10 31
21 8 12 21 28 28 35 11 12 9 14 -12 14 -14 0 -25 -3 -24 -7 2 -5 -5 -19 -15
-33 -17 -24 -17 -24 -17 -2 0 12 3 22 8 22 4 0 7 44 7 98 0 53 4 111 8 127 5
21 5 25 -2 15 -15 -22 -23 -7 -24 48 -1 28 -5 48 -9 46 -10 -7 -20 34 -13 56
3 11 1 28 -5 37 -8 15 -9 12 -5 -12 l6 -30 -15 25 c-20 32 -20 54 -1 46 9 -3
15 0 15 8 0 18 -27 28 -34 13 -2 -7 -5 -2 -5 11 -1 12 -6 22 -12 22 -6 0 -8 7
-5 16 3 8 2 12 -3 9 -5 -3 -12 4 -16 15 -3 11 -11 20 -16 20 -6 0 -6 7 -1 18
6 9 6 27 1 40 -12 31 -21 28 -13 -5 7 -28 7 -28 -13 -8 -26 27 -34 62 -17 75
7 7 18 9 24 5 6 -4 9 -2 8 3 -5 17 116 122 124 109 4 -7 3 -14 -2 -15 -6 -2
-8 -8 -5 -12 3 -5 12 -7 20 -3 8 3 15 1 15 -3 0 -13 -16 -36 -24 -35 -3 1 -8
1 -11 1 -2 0 7 -11 21 -25 25 -25 25 -56 0 -36 -9 8 -13 7 -13 -3 0 -14 7 -15
45 -2 22 7 31 26 13 26 -17 0 -40 30 -35 45 4 8 10 13 15 10 4 -3 5 -13 2 -22
-4 -10 -2 -14 4 -10 15 10 48 -42 35 -55 -12 -12 17 -50 31 -41 6 4 8 -1 4
-11 -4 -9 -3 -15 2 -12 13 8 23 -24 12 -38 -9 -11 12 -40 22 -30 9 9 19 -35
11 -47 -4 -7 -3 -9 4 -5 12 7 26 -29 17 -44 -3 -5 -12 -10 -18 -10 -7 0 -6 4
3 10 8 5 11 12 7 16 -9 10 -17 1 -22 -25 -3 -18 -1 -20 16 -10 25 13 27 11 35
-29 5 -27 4 -31 -9 -26 -12 4 -14 1 -10 -15 3 -13 10 -18 20 -14 13 5 15 0 9
-29 -4 -24 -3 -37 5 -40 28 -9 17 -342 -14 -418 -6 -14 -9 -31 -8 -37 1 -7 -2
-13 -8 -13 -24 0 -14 52 14 73 7 4 6 10 -1 15 -6 4 -14 14 -18 22 -4 9 -5 7
-2 -6 2 -11 -5 -37 -14 -57 -17 -35 -17 -37 1 -49 13 -9 16 -21 12 -41 -5 -26
-6 -26 -20 -10 -13 17 -13 16 -4 -4 12 -24 -9 -89 -24 -76 -4 5 -6 1 -3 -8 4
-9 3 -21 -1 -28 -5 -7 -8 1 -9 19 0 18 5 33 13 36 8 3 11 12 8 21 -4 11 -10 8
-23 -13 -13 -19 -17 -40 -14 -73 4 -41 3 -44 -10 -28 -12 16 -14 16 -20 2 -3
-9 -2 -14 3 -11 23 14 16 -25 -13 -74 l-32 -55 -60 0 c-40 0 -59 -4 -60 -12
-3 -26 -6 -28 -14 -8 -8 19 -9 19 -9 -2 -1 -13 7 -24 19 -28 11 -3 20 -10 20
-15 0 -12 -28 -20 -47 -13 -17 7 -17 6 -1 -11 14 -14 22 -15 39 -6 29 16 31 9
8 -20 -14 -17 -22 -21 -26 -12 -4 10 -8 10 -21 0 -13 -11 -15 -10 -9 5 3 9 2
17 -3 17 -18 0 -21 -21 -5 -36 17 -18 16 -35 -3 -42 -7 -2 -10 2 -6 11 3 8 1
18 -5 22 -7 4 -8 0 -4 -11 5 -14 1 -16 -25 -12 -27 4 -30 2 -21 -14 7 -13 6
-18 -3 -18 -9 0 -9 -3 2 -10 12 -8 12 -10 -4 -16 -11 -4 -21 -2 -26 7 -5 7
-12 10 -17 6 -4 -5 -1 -12 7 -17 12 -7 12 -12 3 -21 -9 -9 -16 -9 -28 1 -10 8
-15 9 -15 1 0 -6 6 -11 13 -11 8 0 8 -3 -2 -9 -10 -7 -19 -4 -27 7 -10 13 -15
14 -25 5 -8 -8 -19 -9 -37 -2 -38 15 -55 4 -47 -29 8 -34 9 -34 29 -26 20 8
21 24 1 24 -8 0 -15 5 -15 11 0 7 11 8 29 4 17 -3 32 -2 36 4 10 17 24 13 21
-6 -2 -9 -10 -17 -19 -19 -9 -1 -24 -9 -33 -18 -8 -9 -22 -16 -30 -16 -8 0
-14 -4 -14 -9 0 -5 -12 -8 -27 -7 -16 0 -29 -3 -30 -8 -2 -13 -25 -26 -46 -26
-11 0 -15 4 -11 12 5 8 2 9 -10 5 -10 -4 -20 -7 -22 -7 -2 0 -4 -7 -4 -15 0
-8 -10 -17 -22 -20 -75 -16 -149 -24 -193 -20 -35 3 -44 1 -30 -5 14 -6 -6 -9
-62 -8 -49 0 -83 5 -83 10 0 6 -12 8 -28 5 -39 -8 -117 3 -100 14 8 5 -1 6
-21 2 -20 -3 -32 -2 -29 3 3 5 -12 10 -34 11 -22 0 -45 6 -51 12 -6 6 -20 11
-31 11 -21 1 -21 1 -2 15 11 8 17 18 13 22 -4 3 -16 -2 -27 -12 -11 -10 -23
-15 -28 -11 -4 4 2 15 13 23 20 16 20 16 0 8 -11 -4 -31 -9 -45 -11 -22 -4
-23 -3 -5 5 17 8 18 10 3 10 -10 1 -18 6 -18 11 0 6 -5 10 -11 10 -8 0 -8 -5
1 -15 7 -8 8 -15 2 -15 -5 0 -15 7 -22 15 -7 8 -19 15 -26 15 -8 0 -14 4 -14
9 0 4 12 6 28 4 26 -4 26 -4 -6 13 -25 13 -30 19 -20 26 9 6 6 7 -9 3 -13 -3
-23 -2 -23 3 0 5 -15 8 -34 6 -21 -3 -38 1 -46 11 -7 9 -8 15 -2 15 6 0 12 -5
14 -11 4 -13 35 -1 42 17 4 11 1 12 -12 5 -41 -21 -98 8 -98 49 0 14 -4 25 -9
25 -21 0 -36 17 -30 34 3 9 -2 26 -11 37 -8 10 -13 13 -9 7 8 -16 -11 -17 -21
-2 -3 6 0 15 7 20 8 5 9 9 4 9 -6 0 -16 -5 -23 -12 -9 -9 -15 -9 -23 -1 -6 6
-17 9 -23 7 -13 -5 -41 44 -31 54 3 3 5 0 5 -6 0 -20 40 -36 54 -21 8 9 8 10
-1 5 -18 -10 -42 4 -36 21 5 13 1 15 -20 9 -20 -5 -29 -2 -37 13 -16 30 -12
36 10 16 17 -16 20 -16 26 -2 3 9 14 14 26 12 11 -3 18 -1 14 2 -15 16 -46 12
-46 -5 -1 -16 -2 -16 -15 2 -8 10 -19 15 -26 10 -9 -5 -10 -2 -6 9 3 9 3 16
-1 16 -20 -3 -21 3 -6 29 l16 27 -22 -25 c-16 -18 -20 -20 -16 -7 3 11 2 16
-4 12 -6 -3 -10 1 -10 10 0 10 5 13 12 9 6 -4 8 -3 4 4 -3 6 1 18 10 27 9 9
13 19 10 23 -7 6 -21 -11 -29 -32 -7 -21 -27 7 -21 30 4 15 2 24 -6 24 -7 0
-10 -7 -6 -16 3 -9 2 -12 -5 -9 -5 4 -7 16 -3 27 3 12 2 18 -3 15 -6 -4 -15
10 -21 31 -10 32 -9 39 5 50 9 6 13 12 7 12 -5 0 -2 5 6 10 10 7 11 10 2 10
-7 0 -15 -7 -18 -15 -4 -8 -10 -15 -15 -15 -17 0 -9 21 19 47 17 17 21 24 10
20 -13 -5 -18 -1 -18 14 0 11 -5 17 -10 14 -6 -4 -10 -12 -9 -18 5 -39 -5 -35
-17 8 -16 60 -19 118 -4 95 8 -12 10 -9 10 12 0 15 5 30 10 33 6 3 10 -5 10
-19 0 -14 4 -27 9 -30 5 -4 5 10 0 32 -5 20 -10 69 -10 107 0 48 -3 65 -9 54
-5 -9 -8 -38 -6 -65 3 -48 -9 -104 -22 -104 -10 0 -9 247 1 256 4 4 7 -5 7
-19 0 -15 5 -27 11 -27 7 0 9 8 4 23 -4 12 -8 47 -9 77 -2 30 -1 43 1 28 2
-16 9 -28 15 -28 6 0 8 12 5 29 -4 16 -3 31 1 34 4 2 1 2 -5 1 -16 -4 -16 16
-1 53 6 15 10 34 9 41 -2 11 2 11 19 2 12 -6 24 -9 28 -6 3 3 0 6 -7 6 -7 0
-11 7 -8 14 4 10 1 13 -9 9 -19 -7 -18 -2 13 62 23 47 31 55 54 55 16 0 30 4
33 9 4 5 -3 7 -14 4 -23 -6 -25 0 -9 29 8 16 8 19 -1 13 -8 -5 -11 -3 -8 6 3
8 10 13 16 12 6 -2 9 4 6 12 -4 8 -2 15 4 15 14 0 22 -26 11 -39 -5 -6 -1 -4
8 4 16 13 15 16 -2 35 -18 20 -18 20 6 17 19 -3 24 -10 23 -31 -1 -15 1 -24 5
-20 9 9 8 73 -1 68 -4 -3 -8 4 -8 16 0 11 7 23 15 26 8 4 12 10 9 15 -3 5 2 6
11 3 13 -5 13 -9 3 -23 -12 -14 -11 -14 4 -3 9 8 23 10 29 6 7 -4 9 -3 6 3 -4
6 0 16 7 22 9 8 17 8 20 2 3 -5 1 -11 -6 -13 -7 -3 -8 -7 -2 -11 5 -3 16 3 23
15 10 16 10 18 0 12 -9 -5 -11 -2 -6 9 4 11 2 14 -9 10 -19 -7 -13 52 6 70 12
10 12 9 2 -5 -9 -11 -10 -18 -2 -23 10 -6 31 34 24 47 -6 10 54 53 74 54 25 1
52 15 52 26 0 5 -6 6 -12 2 -7 -4 -4 2 6 14 14 16 22 19 32 11 7 -6 10 -18 7
-27 -3 -9 -3 -14 1 -10 4 3 9 12 10 20 6 30 26 68 36 68 7 0 7 -7 0 -21 -7
-11 -9 -23 -7 -26 8 -8 29 36 22 47 -3 6 1 10 9 10 8 0 16 -8 18 -17 3 -15 5
-14 10 5 4 15 2 20 -5 16 -7 -3 -3 2 7 10 12 9 29 13 43 10 13 -4 23 -2 23 5
0 6 -8 8 -17 5 -20 -5 10 10 42 22 39 14 51 16 96 17 37 1 46 4 41 16 -4 10
-1 12 8 6 8 -5 11 -4 7 2 -9 14 38 23 82 15 24 -4 32 -2 27 6 -10 16 56 16 72
0 9 -9 15 -9 24 0 7 7 43 12 91 12 94 0 214 -20 195 -32 -7 -4 1 -5 20 -2 22
5 32 3 32 -6 0 -7 7 -10 15 -6 17 6 79 -17 69 -26 -3 -4 5 -4 18 -1 17 3 19 2
9 -5 -10 -7 -2 -12 30 -17 40 -7 108 -45 80 -45 -6 0 -11 -4 -11 -10 0 -5 6
-9 13 -7 6 1 11 -4 10 -10 -4 -16 2 -16 26 -1 16 10 25 8 54 -12 39 -27 40
-38 5 -34 -13 1 -27 3 -31 3 -5 1 -5 6 -2 11 4 6 11 8 16 5 5 -4 9 -1 9 4 0
16 -9 14 -37 -8 -13 -11 -31 -17 -39 -14 -8 3 -14 0 -14 -5 0 -6 10 -8 23 -6
34 8 61 5 84 -9 7 -4 16 0 22 10 9 17 11 17 30 -2 23 -22 42 -93 23 -81 -7 4
-12 1 -12 -8 0 -27 17 -18 29 14 10 30 11 30 31 13 25 -22 25 -26 0 -18 -16 5
-19 2 -17 -24 2 -26 5 -29 25 -24 17 4 21 2 16 -10 -3 -8 -1 -18 4 -21 5 -3 9
8 10 25 0 22 -3 29 -13 25 -8 -3 -17 -1 -20 3 -3 5 1 11 9 14 17 7 45 -23 39
-41 -3 -8 1 -10 11 -6 9 3 16 10 16 14 0 4 -29 35 -65 68 -276 258 -671 357
-1045 262 -408 -104 -731 -452 -806 -868 -20 -116 -20 -304 0 -415 43 -226
134 -402 294 -569 430 -448 1151 -453 1585 -11 286 292 392 701 281 1093 -30
105 -108 266 -170 350 -45 62 -46 64 -28 79 25 21 337 291 479 416 l110 96 63
-6 62 -6 109 93 c60 51 110 96 110 100 1 4 -29 8 -66 10 l-68 3 3 68 c2 37 2
67 0 67 -1 0 -51 -44 -110 -96z m-1843 -424 c-3 -5 -11 -10 -16 -10 -6 0 -7 5
-4 10 3 6 11 10 16 10 6 0 7 -4 4 -10z m-302 -135 c-3 -9 -8 -14 -10 -11 -3 3
-2 9 2 15 9 16 15 13 8 -4z m-73 -49 c0 -2 -7 -7 -16 -10 -8 -3 -12 -2 -9 4 6
10 25 14 25 6z m848 -36 c102 -25 214 -75 295 -134 66 -47 147 -122 147 -135
0 -4 -47 -49 -105 -100 l-105 -93 -52 47 c-103 92 -230 139 -378 139 -233 -1
-438 -143 -520 -360 -84 -226 -16 -485 167 -636 252 -209 640 -155 820 114
120 179 131 393 32 589 -16 32 -33 60 -39 64 -22 14 -6 35 96 124 90 79 108
91 119 80 37 -37 119 -193 146 -278 41 -126 51 -304 24 -427 -72 -330 -308
-578 -633 -666 -92 -25 -284 -29 -377 -9 -200 44 -392 166 -512 325 -108 144
-162 296 -170 481 -12 260 78 481 270 661 122 114 232 175 392 215 100 25 276
25 383 -1z m-996 -102 c-7 -7 -8 -16 -2 -23 6 -7 3 -15 -10 -22 -14 -10 -19
-9 -24 2 -5 15 33 70 42 60 3 -3 0 -11 -6 -17z m1768 -213 c0 -5 -5 -3 -10 5
-5 8 -10 20 -10 25 0 6 5 3 10 -5 5 -8 10 -19 10 -25z m-942 18 c-10 -2 -26
-2 -35 0 -10 3 -2 5 17 5 19 0 27 -2 18 -5z m-987 -30 c-12 -20 -14 -14 -5 12
4 9 9 14 11 11 3 -2 0 -13 -6 -23z m240 10 c13 -16 12 -17 -3 -4 -17 13 -22
21 -14 21 2 0 10 -8 17 -17z m717 5 c6 -1 11 -8 10 -17 -2 -9 4 -16 14 -16 9
0 20 -3 23 -7 4 -4 14 -4 23 -1 10 4 13 2 8 -5 -6 -9 -1 -9 18 0 19 8 36 8 60
1 28 -9 36 -8 40 4 4 11 1 13 -14 8 -15 -5 -18 -3 -14 9 8 20 33 21 40 1 4
-10 13 -13 24 -10 10 3 21 1 25 -4 3 -6 0 -8 -8 -5 -8 3 -18 1 -21 -4 -3 -6 2
-13 12 -17 15 -6 13 -10 -13 -30 -32 -26 -29 -43 5 -25 11 6 31 8 43 5 19 -5
20 -5 5 5 -10 6 -18 15 -18 20 0 17 27 11 34 -6 4 -9 9 -14 13 -11 3 4 12 2
20 -4 8 -8 13 -8 13 -1 0 6 -12 20 -27 32 -21 16 -23 18 -6 10 13 -6 41 -28
64 -49 l41 -38 -27 -21 c-15 -12 -32 -19 -37 -16 -6 4 -14 0 -19 -7 -4 -7 -11
-10 -15 -6 -4 3 -1 14 7 24 9 11 1 8 -21 -7 -19 -14 -42 -23 -51 -22 -21 4
-36 -18 -19 -28 8 -5 7 -9 -6 -14 -9 -4 -22 -2 -28 4 -5 5 -16 10 -24 10 -9 0
-5 -7 9 -19 16 -13 28 -16 36 -9 8 6 15 3 22 -11 10 -17 4 -27 -46 -75 -31
-31 -60 -56 -64 -56 -4 0 -9 19 -11 43 l-4 42 -47 -98 c-26 -54 -47 -100 -47
-102 0 -6 200 60 200 66 0 4 -16 10 -35 13 -19 4 -35 11 -35 16 0 5 23 26 51
47 28 21 69 54 91 73 32 27 39 30 29 13 -6 -13 -16 -23 -21 -23 -6 0 -10 -4
-10 -10 0 -5 8 -7 18 -3 13 5 14 3 5 -7 -6 -7 -23 -12 -38 -12 -20 0 -25 -4
-19 -17 54 -129 57 -197 11 -287 -110 -217 -414 -217 -523 -1 -68 133 -23 294
105 376 101 65 222 63 320 -4 39 -27 51 -31 60 -21 11 13 5 26 -11 26 -5 0 -6
-4 -3 -10 12 -19 -6 -10 -38 20 -18 16 -39 30 -47 31 -8 1 1 5 20 9 21 5 36 5
38 -1 6 -17 20 -9 24 14 4 20 0 22 -38 23 -35 1 -41 -1 -36 -15 5 -14 3 -13
-12 2 -9 9 -23 17 -29 16 -9 0 -8 -2 1 -6 26 -10 10 -23 -28 -23 -29 0 -40 4
-40 15 0 8 -9 15 -20 15 -29 0 -35 -3 -32 -17 2 -7 -2 -13 -8 -13 -5 0 -10 7
-10 16 0 8 -5 12 -10 9 -6 -4 -8 -11 -5 -16 4 -5 -1 -9 -9 -9 -9 0 -16 7 -16
16 0 12 -6 15 -22 11 -12 -4 -27 -2 -34 3 -18 16 -72 0 -77 -22 -5 -18 -4 -18
18 -4 26 17 75 7 75 -15 0 -8 -4 -8 -15 1 -11 9 -22 9 -49 -1 -28 -10 -38 -10
-50 0 -20 17 -21 7 -1 -12 10 -10 29 -14 57 -11 24 2 35 1 26 -2 -10 -3 -18
-11 -18 -17 0 -8 -3 -8 -9 1 -6 10 -13 8 -32 -7 -13 -11 -19 -20 -12 -21 6 0
13 6 16 13 2 6 7 9 11 6 3 -3 -9 -19 -26 -35 -18 -16 -28 -22 -22 -14 13 19
15 58 3 65 -5 4 -9 1 -9 -5 0 -6 -5 -8 -10 -5 -6 4 -17 1 -25 -5 -12 -10 -12
-15 2 -36 8 -13 11 -24 5 -24 -6 0 -12 6 -15 13 -3 6 -3 -5 -2 -26 3 -34 2
-37 -20 -33 -14 3 -26 -1 -29 -10 -4 -11 -2 -13 11 -6 24 14 55 3 48 -17 -4
-9 -9 -28 -12 -43 -3 -15 -12 -29 -19 -32 -12 -4 -11 0 1 25 9 17 14 38 12 47
-3 11 -7 5 -12 -15 -9 -38 -24 -44 -21 -8 2 13 0 22 -4 20 -4 -3 -7 -54 -7
-115 0 -61 2 -108 5 -106 7 8 14 56 13 96 -1 33 0 34 14 16 17 -22 21 -71 5
-61 -5 3 -10 -3 -10 -14 0 -12 5 -21 11 -21 5 0 7 5 4 10 -3 6 -1 10 4 10 10
0 15 -17 14 -47 -1 -7 3 -11 7 -8 9 6 23 -25 15 -33 -3 -3 -5 0 -5 7 0 7 -5 9
-10 6 -6 -4 -8 -10 -5 -15 3 -5 1 -19 -5 -30 -9 -16 -8 -20 6 -20 13 0 14 -3
4 -15 -9 -10 -9 -15 -1 -15 6 0 11 3 12 8 0 4 2 17 3 29 4 32 11 36 30 18 15
-15 15 -18 -6 -34 -20 -17 -20 -18 -2 -16 11 0 25 4 32 9 7 4 20 2 28 -5 14
-11 12 -14 -11 -26 -14 -8 -30 -11 -35 -8 -5 3 -11 1 -14 -4 -4 -6 9 -8 31 -5
35 4 37 3 19 -11 -11 -8 -16 -18 -12 -22 4 -5 18 4 30 20 27 34 42 36 20 2
-15 -24 -11 -52 4 -29 9 13 52 16 52 3 0 -5 5 -9 10 -9 6 0 10 7 10 16 0 8 -4
13 -9 9 -5 -3 -12 -1 -16 5 -4 6 -11 8 -16 5 -5 -4 -9 -1 -9 4 0 13 0 13 39 0
21 -7 30 -16 27 -25 -3 -8 1 -14 9 -14 8 0 15 5 15 11 0 8 6 7 17 -2 11 -10
14 -10 9 -1 -5 8 0 12 16 12 18 0 20 -2 8 -10 -25 -16 10 -13 42 4 18 10 27
11 25 3 -3 -17 31 -20 48 -3 21 21 19 28 -7 20 -13 -3 -19 -3 -15 2 4 4 20 8
35 9 15 0 26 6 25 13 -3 12 19 17 30 6 11 -12 -5 -33 -20 -27 -11 4 -14 2 -9
-5 4 -7 2 -12 -3 -12 -6 0 -11 -4 -11 -9 0 -5 16 -9 35 -8 34 2 44 10 27 21
-5 3 -7 19 -4 37 3 22 1 30 -7 25 -18 -12 -13 0 11 20 12 10 18 13 14 6 -5 -8
2 -16 19 -22 36 -14 45 -13 45 6 0 8 -5 12 -11 8 -8 -4 -8 -1 -1 13 9 15 7 19
-8 20 -12 1 -17 -3 -14 -12 3 -7 1 -15 -4 -19 -15 -9 -7 31 10 48 12 12 18 13
21 3 3 -6 6 -1 6 12 1 23 2 23 19 8 30 -27 44 -22 30 11 -16 37 -16 36 -33 22
-18 -15 -20 1 -3 18 7 7 14 52 16 107 4 80 7 95 23 100 10 3 17 14 16 24 -1
16 -5 17 -29 9 -15 -6 -25 -14 -22 -19 3 -5 1 -9 -4 -9 -5 0 -9 14 -10 31 -1
29 1 30 30 24 21 -5 28 -4 24 4 -4 6 -3 11 3 11 5 0 11 -6 13 -12 3 -7 5 5 6
26 1 26 -4 44 -16 53 -9 8 -12 12 -6 9 7 -3 23 3 35 15 21 18 22 20 4 14 -13
-4 -7 5 15 24 39 32 50 29 77 -23 l16 -31 -26 28 c-14 15 -30 27 -34 27 -17 0
-29 -16 -27 -37 1 -15 -3 -20 -15 -16 -14 4 -14 3 -1 -7 13 -10 12 -11 -5 -5
-15 5 -17 3 -8 -6 9 -8 17 -7 37 7 14 11 24 24 21 31 -2 7 2 10 9 7 16 -6 49
-74 36 -74 -6 0 -10 -4 -10 -9 0 -6 9 -9 20 -8 12 1 18 6 15 14 -16 39 -12 42
5 6 31 -64 44 -183 26 -248 -6 -22 -5 -26 3 -15 9 12 11 10 11 -13 0 -16 -4
-26 -9 -23 -4 3 -6 -6 -3 -19 2 -14 0 -25 -6 -25 -6 0 -8 -10 -6 -22 2 -13 2
-17 -2 -10 -3 6 -11 9 -17 5 -7 -4 -8 0 -4 13 7 18 6 18 -9 -1 -14 -18 -16
-19 -27 -4 -11 14 -13 10 -15 -27 -1 -34 1 -42 13 -38 17 7 20 24 5 24 -5 0
-10 5 -10 11 0 8 5 8 15 -1 10 -9 15 -9 15 -1 0 6 4 11 10 11 5 0 -4 -21 -20
-47 -31 -49 -38 -73 -19 -73 6 0 8 7 5 16 -3 9 -2 12 4 9 6 -4 9 -3 8 2 -1 4
5 22 15 38 21 39 22 14 0 -28 -25 -50 -55 -87 -65 -81 -5 3 -7 13 -3 22 5 13
2 12 -15 -3 -15 -14 -20 -15 -21 -4 0 10 -2 11 -6 2 -2 -7 -19 -13 -36 -13
l-32 -1 25 -14 c14 -8 21 -14 16 -15 -6 0 -1 -6 10 -14 22 -17 32 -13 16 7 -7
8 -7 18 -2 27 9 13 10 13 10 0 0 -12 2 -12 9 -1 6 9 11 10 15 2 4 -6 2 -11 -4
-11 -7 0 -10 -6 -7 -14 6 -16 -16 -40 -26 -29 -4 3 -7 -1 -7 -11 0 -12 -7 -16
-22 -14 -17 2 -23 -2 -21 -15 0 -12 -4 -16 -12 -13 -8 3 -16 0 -18 -7 -3 -7
-8 0 -12 15 -5 21 -13 26 -34 26 -25 -1 -65 -38 -42 -38 6 0 13 5 16 10 9 15
25 12 25 -4 0 -7 -14 -16 -31 -20 -17 -3 -28 -10 -25 -15 9 -14 -33 -45 -67
-48 -144 -14 -179 -15 -173 -5 3 6 0 13 -6 16 -7 3 -2 3 12 0 48 -13 105 -12
132 1 16 8 28 9 30 3 2 -5 15 -1 28 11 14 11 20 20 13 21 -6 0 -15 -5 -18 -10
-4 -6 -11 -8 -16 -4 -6 3 -18 3 -27 -1 -27 -12 -193 -8 -205 4 -6 6 -26 11
-44 11 -19 0 -49 7 -69 15 -31 13 -33 16 -23 34 7 10 19 17 26 14 10 -4 11 -9
2 -19 -7 -9 -8 -14 -1 -14 14 0 22 24 12 40 -7 12 -13 12 -34 0 -23 -12 -28
-11 -48 6 -12 10 -18 13 -13 5 6 -10 2 -12 -14 -6 -26 8 -27 -3 -3 -22 15 -12
14 -13 -8 -2 -35 17 -75 49 -61 49 6 0 10 3 10 8 -3 19 2 31 14 28 6 -1 9 -1
5 1 -4 2 -4 12 -1 21 3 10 1 13 -4 7 -4 -6 -20 -10 -35 -10 -16 1 -28 -3 -28
-8 0 -6 -9 2 -20 16 -25 31 -27 61 -2 32 9 -11 25 -21 36 -23 15 -3 16 -1 5
11 -8 8 -17 13 -20 11 -4 -2 -14 5 -24 16 -14 16 -21 18 -28 8 -6 -9 -7 -8 -4
4 3 9 1 19 -6 22 -7 2 -5 5 5 5 9 1 20 -3 23 -9 3 -5 10 -10 15 -10 5 0 -1 11
-14 25 -23 25 -43 34 -31 15 3 -5 1 -10 -5 -10 -7 0 -9 7 -6 16 3 9 6 21 6 27
0 7 5 6 11 -3 9 -12 10 -12 5 3 -3 10 -6 23 -6 28 0 5 -4 9 -10 9 -5 0 -7 -6
-4 -14 3 -8 1 -16 -3 -19 -5 -3 -14 7 -20 22 -10 26 -9 28 16 27 17 -1 27 5
29 17 3 13 -3 17 -23 17 -15 0 -24 -4 -20 -10 3 -5 1 -10 -5 -10 -7 0 -10 6
-7 14 3 7 0 19 -6 26 -9 10 -9 12 3 8 11 -4 16 1 18 15 1 18 -1 19 -9 7 -8
-11 -9 -9 -5 12 4 15 1 28 -5 30 -7 2 -8 20 -4 50 7 44 8 46 36 41 24 -3 29
-1 29 16 0 22 -24 29 -35 11 -9 -15 -25 -12 -25 4 0 8 14 21 30 30 17 8 30 11
30 6 0 -5 9 -8 21 -7 19 1 19 2 3 14 -9 7 -21 14 -27 16 -6 2 -3 14 8 30 9 15
20 25 24 22 4 -2 8 2 8 10 0 21 -24 19 -36 -2 -5 -10 -13 -14 -18 -9 -4 5 -2
11 5 13 6 3 12 14 13 26 0 12 3 16 6 10 8 -22 25 -14 18 8 -5 14 -4 19 4 15 7
-5 9 -1 5 8 -4 10 -1 16 9 16 8 0 14 7 13 16 0 9 5 19 12 21 6 3 12 0 12 -6 0
-6 -4 -11 -10 -11 -5 0 -7 -6 -4 -13 3 -8 10 -14 17 -14 7 0 18 6 25 14 10 10
10 13 -3 13 -8 0 -15 5 -15 11 0 6 6 9 14 6 9 -4 13 0 11 11 -1 9 -9 16 -16
14 -8 -1 2 11 21 27 19 16 39 27 45 24 7 -2 18 3 25 12 9 11 16 12 25 5 10 -8
15 -8 20 1 4 6 1 16 -6 21 -11 8 -11 9 2 5 9 -3 23 3 32 14 18 20 52 25 62 9
9 -15 35 -12 35 4 0 17 33 26 70 20 14 -3 31 -5 38 -6z m136 6 c9 -3 16 -13
16 -22 0 -14 -1 -14 -12 0 -7 9 -22 18 -33 21 -15 3 -16 5 -3 6 9 0 23 -2 32
-5z m-17 -20 c-3 -3 -12 -4 -19 -1 -8 3 -5 6 6 6 11 1 17 -2 13 -5z m-827 -18
c0 -3 -4 -8 -10 -11 -5 -3 -10 -1 -10 4 0 6 5 11 10 11 6 0 10 -2 10 -4z m994
-228 c-14 -11 -28 -18 -31 -15 -8 9 7 27 23 27 8 0 12 4 9 10 -3 6 1 7 9 4 13
-5 11 -10 -10 -26z m-534 -44 c0 -8 -4 -12 -10 -9 -5 3 -10 10 -10 16 0 5 5 9
10 9 6 0 10 -7 10 -16z m604 -9 c3 -8 1 -15 -3 -15 -5 0 -11 7 -15 15 -3 8 -1
15 3 15 5 0 11 -7 15 -15z m-846 -50 c-3 -3 -9 2 -12 12 -6 14 -5 15 5 6 7 -7
10 -15 7 -18z m242 8 c0 -5 -8 -17 -17 -28 -14 -18 -15 -18 -9 -2 3 10 6 23 6
28 0 5 5 9 10 9 6 0 10 -3 10 -7z m-130 -517 c0 -2 -7 -7 -16 -10 -8 -3 -12
-2 -9 4 6 10 25 14 25 6z m114 -84 c3 -5 -1 -9 -9 -9 -8 0 -15 4 -15 9 0 4 4
8 9 8 6 0 12 -4 15 -8z m526 -52 c-27 -21 -40 -25 -40 -12 0 8 38 29 55 31 6
0 -1 -8 -15 -19z m-454 -9 c-8 -12 37 -22 48 -11 14 14 29 12 20 -2 -4 -7 -3
-8 5 -4 6 4 18 0 26 -8 14 -14 12 -15 -22 -10 -55 6 -104 24 -98 35 4 5 11 9
16 9 6 0 8 -4 5 -9z m-331 -201 c12 -19 -12 -10 -31 11 -19 22 -19 22 3 10 12
-6 25 -16 28 -21z m1357 13 c13 -12 18 -13 16 -4 -2 7 5 15 14 16 22 4 11 -19
-26 -54 l-25 -24 -12 29 c-7 16 -13 35 -15 42 -3 18 26 15 48 -5z m-262 -8 c0
-8 -4 -15 -10 -15 -5 0 -10 7 -10 15 0 8 5 15 10 15 6 0 10 -7 10 -15z m-1377
-37 c-5 -10 -33 10 -33 23 0 5 9 4 19 -3 11 -7 17 -16 14 -20z m1354 6 c-9 -9
-28 6 -21 18 4 6 10 6 17 -1 6 -6 8 -13 4 -17z m-1265 -99 c6 -11 -10 0 -36
25 -25 24 -46 47 -46 51 0 12 71 -54 82 -76z m-32 81 c0 -11 -19 -15 -25 -6
-3 5 1 10 9 10 9 0 16 -2 16 -4z m1510 -66 c0 -5 -4 -10 -10 -10 -5 0 -10 5
-10 10 0 6 5 10 10 10 6 0 10 -4 10 -10z m-66 -49 c3 -5 0 -11 -7 -14 -8 -3
-14 1 -14 9 0 16 13 19 21 5z m-1244 -89 c-1 -15 -2 -15 -14 1 -7 9 -18 17
-24 17 -6 0 -13 4 -17 10 -3 5 7 5 25 -1 17 -7 30 -18 30 -27z m977 -78 c-3
-3 -12 -4 -19 -1 -8 3 -5 6 6 6 11 1 17 -2 13 -5z"/>
<path d="M4165 4640 c-3 -5 -1 -10 4 -10 6 0 11 5 11 10 0 6 -2 10 -4 10 -3 0
-8 -4 -11 -10z"/>
<path d="M4908 4453 c-10 -2 -18 -9 -18 -14 0 -14 30 -11 30 4 0 6 8 2 18 -10
13 -17 21 -20 32 -13 13 9 12 12 -4 25 -20 15 -27 16 -58 8z"/>
<path d="M4799 4423 c-43 -52 -45 -56 -24 -51 12 2 20 11 20 23 0 14 8 21 25
23 18 2 21 0 11 -7 -10 -7 -7 -9 12 -8 28 2 38 17 12 17 -8 0 -15 5 -15 10 0
16 -26 11 -41 -7z"/>
<path d="M5190 4380 c0 -5 7 -10 16 -10 8 0 12 5 9 10 -3 6 -10 10 -16 10 -5
0 -9 -4 -9 -10z"/>
<path d="M4701 4363 c-10 -11 -16 -13 -19 -5 -6 19 -22 3 -21 -21 0 -12 3 -16
6 -9 2 6 13 12 24 12 10 0 19 5 19 11 0 6 9 8 21 4 15 -5 20 -3 17 6 -7 20
-31 21 -47 2z"/>
<path d="M5289 4333 c-1 -5 -1 -12 0 -17 1 -5 -4 -13 -11 -18 -10 -7 -10 -9 2
-5 8 2 16 13 16 25 1 20 -5 31 -7 15z"/>
<path d="M5335 4330 c-3 -6 1 -7 9 -4 18 7 21 14 7 14 -6 0 -13 -4 -16 -10z"/>
<path d="M4835 4310 c-3 -6 1 -7 9 -4 18 7 21 14 7 14 -6 0 -13 -4 -16 -10z"/>
<path d="M5108 4308 c10 -13 10 -17 0 -21 -9 -4 -9 -6 -1 -6 20 -2 24 16 5 30
-15 13 -16 12 -4 -3z"/>
<path d="M5345 4310 c-3 -6 -12 -7 -18 -4 -7 4 -9 3 -5 -1 12 -13 60 -15 56
-3 -6 16 -25 21 -33 8z"/>
<path d="M5207 4289 c7 -7 15 -10 18 -7 3 3 -2 9 -12 12 -14 6 -15 5 -6 -5z"/>
<path d="M5040 4260 c0 -5 7 -10 16 -10 8 0 12 5 9 10 -3 6 -10 10 -16 10 -5
0 -9 -4 -9 -10z"/>
<path d="M4645 4229 c-4 -6 -5 -12 -2 -15 2 -3 7 2 10 11 7 17 1 20 -8 4z"/>
<path d="M5430 4181 c0 -6 4 -12 9 -15 5 -3 7 -16 4 -29 -3 -18 -2 -19 6 -6
11 17 4 59 -10 59 -5 0 -9 -4 -9 -9z"/>
<path d="M4543 4143 c-16 -6 -17 -36 -1 -31 6 2 12 12 14 21 1 9 2 17 1 16 -1
0 -8 -3 -14 -6z"/>
<path d="M5448 4103 c6 -2 9 -10 6 -15 -4 -7 -2 -8 5 -4 13 9 5 26 -12 25 -9
0 -8 -2 1 -6z"/>
<path d="M5323 3925 c1 -52 5 -95 8 -95 18 0 26 33 26 110 0 62 -2 75 -7 50
l-7 -35 -2 33 c0 17 -5 32 -10 32 -5 0 -8 -43 -8 -95z m20 5 c-3 -12 -8 -19
-11 -16 -5 6 5 36 12 36 2 0 2 -9 -1 -20z m7 -65 c0 -8 -4 -15 -10 -15 -5 0
-7 7 -4 15 4 8 8 15 10 15 2 0 4 -7 4 -15z"/>
<path d="M5521 3954 c0 -11 3 -14 6 -6 3 7 2 16 -1 19 -3 4 -6 -2 -5 -13z"/>
<path d="M4610 3940 c-8 -5 -12 -12 -9 -15 4 -3 12 1 19 10 14 17 11 19 -10 5z"/>
<path d="M4622 3885 c0 -16 2 -22 5 -12 2 9 2 23 0 30 -3 6 -5 -1 -5 -18z"/>
<path d="M4533 3811 c-12 -19 -7 -61 8 -61 4 0 11 5 15 12 5 7 3 8 -6 3 -10
-6 -12 0 -7 28 7 43 6 44 -10 18z"/>
<path d="M4673 3803 c4 -6 2 -13 -4 -15 -7 -2 -6 -8 3 -16 12 -9 14 -8 13 8
-1 11 -5 23 -10 27 -4 5 -5 3 -2 -4z"/>
<path d="M5346 3795 c-3 -8 -1 -15 4 -15 6 0 10 7 10 15 0 8 -2 15 -4 15 -2 0
-6 -7 -10 -15z"/>
<path d="M4530 3730 c0 -5 7 -10 16 -10 8 0 12 5 9 10 -3 6 -10 10 -16 10 -5
0 -9 -4 -9 -10z"/>
<path d="M4664 3727 c-6 -7 -8 -19 -6 -26 3 -9 0 -11 -9 -6 -8 5 -10 4 -6 0
17 -19 32 -11 33 16 1 16 1 29 0 29 -1 -1 -6 -6 -12 -13z"/>
<path d="M4730 3720 c0 -5 5 -10 10 -10 6 0 10 5 10 10 0 6 -4 10 -10 10 -5 0
-10 -4 -10 -10z"/>
<path d="M4780 3679 c0 -5 5 -7 10 -4 6 3 10 8 10 11 0 2 -4 4 -10 4 -5 0 -10
-5 -10 -11z"/>
<path d="M4745 3600 c-3 -6 1 -7 9 -4 18 7 21 14 7 14 -6 0 -13 -4 -16 -10z"/>
<path d="M5285 3570 c-3 -5 1 -10 10 -10 9 0 13 5 10 10 -3 6 -8 10 -10 10 -2
0 -7 -4 -10 -10z"/>
<path d="M4648 3559 c13 -5 28 -6 33 -3 6 3 18 0 27 -7 14 -11 15 -11 4 1 -7
8 -29 15 -50 16 -32 2 -34 1 -14 -7z"/>
<path d="M4620 3546 c0 -2 7 -7 16 -10 8 -3 12 -2 9 4 -6 10 -25 14 -25 6z"/>
<path d="M5280 3519 c0 -17 4 -28 10 -24 6 3 10 13 10 21 0 8 5 14 10 14 6 0
10 5 10 10 0 6 -9 10 -20 10 -16 0 -20 -7 -20 -31z"/>
<path d="M5792 3239 c2 -7 10 -15 17 -17 8 -3 12 1 9 9 -2 7 -10 15 -17 17 -8
3 -12 -1 -9 -9z"/>
<path d="M7431 5463 c-67 -100 -89 -251 -56 -378 20 -74 74 -183 126 -253 l40
-53 52 7 c93 12 197 43 266 79 135 71 237 208 248 334 l6 62 -39 -6 c-21 -3
-52 -9 -69 -12 -125 -23 -316 -201 -425 -396 -18 -32 -34 -57 -35 -55 -2 2 8
46 22 98 48 185 41 406 -16 519 -23 43 -69 101 -81 101 -4 0 -22 -21 -39 -47z"/>
<path d="M5006 5013 c-37 -4 -38 -5 -17 -19 19 -13 23 -14 36 -1 8 9 25 13 37
10 19 -4 20 -3 8 6 -8 6 -17 10 -20 9 -3 -1 -22 -3 -44 -5z"/>
<path d="M5123 5003 c-15 -5 -17 -23 -4 -23 5 0 11 7 15 15 3 8 4 15 3 14 -1
0 -8 -3 -14 -6z"/>
<path d="M4836 4975 c4 -8 10 -15 15 -15 4 0 6 7 3 15 -4 8 -10 15 -15 15 -4
0 -6 -7 -3 -15z"/>
<path d="M5135 4970 c-3 -5 -1 -10 4 -10 6 0 11 5 11 10 0 6 -2 10 -4 10 -3 0
-8 -4 -11 -10z"/>
<path d="M5165 4970 c-3 -6 1 -7 9 -4 18 7 21 14 7 14 -6 0 -13 -4 -16 -10z"/>
<path d="M5230 4976 c0 -2 7 -7 16 -10 8 -3 12 -2 9 4 -6 10 -25 14 -25 6z"/>
<path d="M4650 4960 c0 -5 -12 -17 -27 -25 -16 -9 -19 -13 -8 -9 11 4 34 8 50
10 25 4 27 3 10 -5 -16 -8 -16 -10 -4 -10 9 -1 22 6 29 14 10 13 9 15 -9 15
-11 0 -21 5 -21 10 0 6 -4 10 -10 10 -5 0 -10 -4 -10 -10z"/>
<path d="M5280 4963 c0 -5 18 -8 40 -8 23 -1 34 2 27 7 -15 10 -67 10 -67 1z"/>
<path d="M5308 4943 c7 -3 16 -2 19 1 4 3 -2 6 -13 5 -11 0 -14 -3 -6 -6z"/>
<path d="M5341 4926 c-9 -11 -8 -15 6 -20 10 -4 14 -4 10 0 -4 4 -2 13 4 21 7
8 8 13 1 13 -5 0 -15 -6 -21 -14z"/>
<path d="M5280 4920 c0 -5 5 -10 10 -10 6 0 10 5 10 10 0 6 -4 10 -10 10 -5 0
-10 -4 -10 -10z"/>
<path d="M5390 4915 c7 -8 16 -15 21 -15 5 0 6 7 3 15 -4 8 -13 15 -21 15 -13
0 -13 -3 -3 -15z"/>
<path d="M4732 4864 c-10 -12 -10 -14 2 -14 17 0 30 16 19 23 -5 3 -14 -1 -21
-9z"/>
<path d="M4865 4870 c-3 -5 -2 -10 4 -10 5 0 13 5 16 10 3 6 2 10 -4 10 -5 0
-13 -4 -16 -10z"/>
<path d="M5028 4873 c22 -9 2 -23 -34 -23 -19 0 -34 -4 -34 -8 0 -5 12 -9 28
-9 15 0 32 -2 37 -3 23 -6 86 1 81 8 -3 5 -21 7 -41 6 -29 -3 -35 -1 -26 10
11 14 5 27 -13 25 -6 0 -5 -3 2 -6z"/>
<path d="M5097 4869 c7 -7 15 -10 18 -7 3 3 -2 9 -12 12 -14 6 -15 5 -6 -5z"/>
<path d="M5448 4873 c7 -3 16 -2 19 1 4 3 -2 6 -13 5 -11 0 -14 -3 -6 -6z"/>
<path d="M5065 4860 c-3 -5 -1 -10 4 -10 6 0 11 5 11 10 0 6 -2 10 -4 10 -3 0
-8 -4 -11 -10z"/>
<path d="M5225 4860 c-16 -7 -17 -9 -3 -9 9 -1 20 4 23 9 7 11 7 11 -20 0z"/>
<path d="M5164 4846 c-18 -14 -18 -15 9 -21 16 -4 38 -3 50 4 18 9 15 10 -18
4 -36 -6 -39 -5 -26 10 17 21 11 22 -15 3z"/>
<path d="M4465 4841 c-3 -5 -2 -12 3 -15 5 -3 9 1 9 9 0 17 -3 19 -12 6z"/>
<path d="M5440 4836 c0 -2 7 -6 15 -10 8 -3 15 -1 15 4 0 6 -7 10 -15 10 -8 0
-15 -2 -15 -4z"/>
<path d="M4672 4810 c0 -14 2 -19 5 -12 2 6 2 18 0 25 -3 6 -5 1 -5 -13z"/>
<path d="M4841 4821 c-10 -6 -9 -10 3 -14 8 -3 18 -2 21 3 8 13 -9 20 -24 11z"/>
<path d="M5120 4820 c0 -6 7 -10 15 -10 8 0 15 2 15 4 0 2 -7 6 -15 10 -8 3
-15 1 -15 -4z"/>
<path d="M4725 4810 c-3 -5 -2 -10 4 -10 5 0 13 5 16 10 3 6 2 10 -4 10 -5 0
-13 -4 -16 -10z"/>
<path d="M4888 4813 c7 -3 16 -2 19 1 4 3 -2 6 -13 5 -11 0 -14 -3 -6 -6z"/>
<path d="M4770 4802 c0 -5 7 -9 15 -9 8 0 15 4 15 9 0 4 -7 8 -15 8 -8 0 -15
-4 -15 -8z"/>
<path d="M4491 4791 c-10 -6 -10 -10 -1 -16 6 -4 9 -14 6 -22 -3 -8 -2 -12 3
-8 5 3 11 2 14 -2 2 -5 2 -2 1 5 -2 6 3 12 11 12 7 0 16 4 19 9 3 4 -6 7 -20
5 -19 -2 -24 1 -20 12 6 16 6 17 -13 5z"/>
<path d="M5323 4793 c4 -6 2 -13 -5 -15 -9 -3 -9 -6 0 -12 7 -4 12 -3 12 3 0
6 8 8 18 4 18 -7 17 -5 -12 17 -11 8 -17 10 -13 3z"/>
<path d="M5405 4793 c3 -4 -5 -13 -17 -20 l-23 -14 23 6 c13 4 22 2 22 -4 0
-6 7 -11 15 -11 8 0 15 8 15 18 0 14 -2 15 -10 2 -9 -14 -11 -13 -14 9 0 5 -4
12 -8 15 -5 3 -6 3 -3 -1z"/>
<path d="M4353 4783 c-7 -3 -13 -9 -13 -15 0 -6 7 -8 15 -4 8 3 15 0 15 -6 0
-6 3 -9 6 -5 10 9 -10 34 -23 30z"/>
<path d="M5651 4777 c-6 -8 -8 -17 -4 -20 11 -12 21 -7 26 13 6 23 -5 26 -22
7z"/>
<path d="M4310 4760 c0 -5 5 -10 10 -10 6 0 10 5 10 10 0 6 -4 10 -10 10 -5 0
-10 -4 -10 -10z"/>
<path d="M4585 4750 c-10 -11 -13 -20 -8 -20 13 0 38 29 31 35 -3 3 -13 -4
-23 -15z"/>
<path d="M5600 4764 c0 -6 6 -17 14 -23 11 -9 16 -9 22 1 4 7 4 10 -1 6 -4 -4
-14 0 -21 10 -7 9 -14 12 -14 6z"/>
<path d="M4273 4748 c-6 -7 -9 -21 -8 -30 2 -10 -1 -18 -7 -18 -6 0 -5 -6 2
-15 9 -10 9 -15 1 -15 -6 0 -11 -8 -11 -17 0 -14 3 -13 16 5 8 12 12 27 9 32
-4 6 3 9 16 7 16 -1 22 4 24 20 1 12 -2 20 -7 17 -4 -3 -8 -12 -8 -20 0 -8 -5
-12 -11 -8 -6 3 -9 17 -6 30 5 27 3 29 -10 12z"/>
<path d="M4337 4743 c-3 -5 -1 -17 4 -28 8 -21 8 -21 15 13 4 21 -10 31 -19
15z"/>
<path d="M5380 4730 c8 -5 20 -10 25 -10 6 0 3 5 -5 10 -8 5 -19 10 -25 10 -5
0 -3 -5 5 -10z"/>
<path d="M4425 4710 c-8 -13 5 -13 25 0 13 8 13 10 -2 10 -9 0 -20 -4 -23 -10z"/>
<path d="M4505 4710 c-3 -6 1 -7 9 -4 18 7 21 14 7 14 -6 0 -13 -4 -16 -10z"/>
<path d="M5475 4710 c3 -5 8 -10 11 -10 2 0 4 5 4 10 0 6 -5 10 -11 10 -5 0
-7 -4 -4 -10z"/>
<path d="M5547 4707 c-5 -14 10 -37 16 -26 2 2 9 13 17 24 14 18 14 19 -2 7
-13 -10 -17 -10 -20 0 -3 8 -6 6 -11 -5z"/>
<path d="M4480 4698 c0 -9 7 -19 16 -22 15 -6 15 -4 3 11 -7 10 -15 20 -16 22
-2 2 -3 -3 -3 -11z"/>
<path d="M5485 4680 c-3 -5 -1 -10 4 -10 6 0 11 5 11 10 0 6 -2 10 -4 10 -3 0
-8 -4 -11 -10z"/>
<path d="M5626 4674 c-5 -14 -4 -15 9 -4 17 14 19 20 6 20 -5 0 -12 -7 -15
-16z"/>
<path d="M5686 4675 c16 -13 17 -16 4 -25 -12 -9 -10 -10 9 -5 16 5 21 4 17
-4 -4 -6 -3 -11 2 -11 20 0 21 29 1 35 -10 4 -19 11 -19 16 0 5 -8 9 -17 9
-15 0 -14 -2 3 -15z"/>
<path d="M4340 4670 c0 -5 5 -10 11 -10 5 0 7 5 4 10 -3 6 -8 10 -11 10 -2 0
-4 -4 -4 -10z"/>
<path d="M4370 4666 c0 -9 7 -16 16 -16 9 0 14 5 12 12 -6 18 -28 21 -28 4z"/>
<path d="M5517 4673 c-11 -11 -8 -20 7 -20 8 0 12 6 9 14 -6 15 -7 15 -16 6z"/>
<path d="M4413 4635 c0 -8 4 -12 9 -9 4 3 8 9 8 15 0 5 -4 9 -8 9 -5 0 -9 -7
-9 -15z"/>
<path d="M4320 4625 c0 -9 6 -12 15 -9 8 4 12 10 9 15 -8 14 -24 10 -24 -6z"/>
<path d="M5738 4623 c-14 -14 -20 -14 -33 -3 -8 7 -19 10 -22 6 -8 -8 15 -26
33 -26 6 0 19 9 29 20 22 24 16 27 -7 3z"/>
<path d="M4250 4602 c0 -7 -6 -10 -12 -7 -7 4 -5 0 5 -8 18 -15 24 -32 7 -22
-5 3 -10 1 -10 -4 0 -6 9 -11 21 -11 11 0 17 5 14 10 -3 6 -2 10 4 10 5 0 12
-6 14 -12 3 -8 6 -6 6 5 1 9 -6 17 -14 17 -7 0 -19 8 -24 18 -6 10 -11 12 -11
4z"/>
<path d="M4320 4564 c-23 -53 -23 -54 -10 -54 6 0 10 8 10 18 0 10 5 23 12 30
7 7 9 12 5 12 -4 0 -3 9 3 20 6 11 8 20 5 20 -3 0 -15 -21 -25 -46z"/>
<path d="M5798 4575 c-10 -13 -18 -29 -18 -34 0 -6 -9 -11 -20 -11 -13 0 -18
-5 -14 -15 5 -13 11 -11 30 10 13 14 24 30 24 36 0 5 7 9 15 9 16 0 21 15 8
23 -5 3 -16 -6 -25 -18z"/>
<path d="M4360 4580 c-9 -6 -10 -10 -3 -10 6 0 15 5 18 10 8 12 4 12 -15 0z"/>
<path d="M4186 4568 c3 -5 10 -6 15 -3 13 9 11 12 -6 12 -8 0 -12 -4 -9 -9z"/>
<path d="M4146 4533 c-6 -14 -5 -15 5 -6 7 7 10 15 7 18 -3 3 -9 -2 -12 -12z"/>
<path d="M4278 4512 c-4 -12 -2 -20 3 -16 5 3 9 0 9 -6 0 -6 5 -8 11 -4 7 4 7
9 2 13 -6 3 -12 13 -15 21 -3 10 -6 8 -10 -8z"/>
<path d="M5800 4520 c0 -14 15 -19 29 -11 9 6 7 10 -8 14 -12 3 -21 1 -21 -3z"/>
<path d="M4208 4513 c-27 -7 -22 -23 7 -23 16 0 25 6 25 15 0 15 -2 16 -32 8z"/>
<path d="M5780 4498 c13 -14 49 -27 54 -20 3 5 0 9 -7 9 -7 0 -21 4 -32 8 -11
5 -18 6 -15 3z"/>
<path d="M5775 4440 c3 -5 8 -10 11 -10 2 0 4 5 4 10 0 6 -5 10 -11 10 -5 0
-7 -4 -4 -10z"/>
<path d="M4177 4416 c-4 -10 -3 -15 3 -11 6 3 10 -1 10 -10 0 -9 5 -13 10 -10
6 3 10 2 10 -4 0 -5 -6 -12 -12 -14 -10 -4 -10 -6 -1 -6 16 -1 36 36 27 50 -3
6 -12 8 -19 5 -8 -3 -15 0 -18 7 -2 6 -6 3 -10 -7z m43 -16 c0 -5 -2 -10 -4
-10 -3 0 -8 5 -11 10 -3 6 -1 10 4 10 6 0 11 -4 11 -10z"/>
<path d="M5755 4420 c-3 -5 -2 -17 3 -26 8 -14 10 -14 15 5 5 22 -7 38 -18 21z"/>
<path d="M5810 4418 c0 -9 5 -20 10 -23 13 -8 13 5 0 25 -8 13 -10 13 -10 -2z"/>
<path d="M5935 4410 c-3 -5 -1 -10 4 -10 6 0 11 5 11 10 0 6 -2 10 -4 10 -3 0
-8 -4 -11 -10z"/>
<path d="M4013 4384 c-24 -30 -29 -44 -14 -44 5 0 12 10 15 23 6 22 7 22 21 3
8 -11 15 -16 15 -11 0 5 7 0 15 -11 14 -18 15 -17 4 8 -7 15 -15 25 -20 23 -4
-3 -9 4 -11 16 -3 20 -4 19 -25 -7z"/>
<path d="M4140 4390 c0 -5 5 -10 10 -10 6 0 10 5 10 10 0 6 -4 10 -10 10 -5 0
-10 -4 -10 -10z"/>
<path d="M5800 4385 c0 -6 6 -17 13 -24 10 -11 9 -13 -5 -8 -12 4 -18 1 -18
-8 0 -8 7 -15 15 -15 8 0 15 5 15 10 0 6 5 10 11 10 6 0 8 -10 5 -22 -3 -13
-3 -17 0 -10 3 6 12 12 20 12 24 0 16 19 -11 26 -14 3 -30 14 -35 23 -5 9 -10
11 -10 6z"/>
<path d="M5898 4383 c7 -3 16 -2 19 1 4 3 -2 6 -13 5 -11 0 -14 -3 -6 -6z"/>
<path d="M4105 4370 c-3 -5 1 -10 9 -10 9 0 16 -4 16 -10 0 -5 -7 -10 -15 -10
-8 0 -15 -7 -15 -15 0 -13 4 -12 20 3 13 12 18 25 14 35 -7 19 -20 22 -29 7z"/>
<path d="M5950 4350 c23 -20 30 -24 30 -16 0 9 -32 36 -42 36 -6 0 -1 -9 12
-20z"/>
<path d="M5910 4350 c0 -5 5 -10 11 -10 5 0 7 5 4 10 -3 6 -8 10 -11 10 -2 0
-4 -4 -4 -10z"/>
<path d="M4137 4312 c-10 -10 -17 -25 -17 -33 0 -9 5 -7 12 6 6 11 16 23 22
27 6 4 8 9 5 13 -3 3 -13 -3 -22 -13z"/>
<path d="M4175 4310 c-3 -5 1 -10 10 -10 9 0 13 5 10 10 -3 6 -8 10 -10 10 -2
0 -7 -4 -10 -10z"/>
<path d="M5882 4295 c0 -16 2 -22 5 -12 2 9 2 23 0 30 -3 6 -5 -1 -5 -18z"/>
<path d="M5847 4266 c-3 -8 -2 -18 3 -21 13 -8 20 9 11 24 -6 10 -10 9 -14 -3z"/>
<path d="M3964 4249 c-5 -8 -3 -9 6 -4 10 6 12 4 7 -8 -3 -10 -2 -17 3 -17 13
0 13 27 1 35 -5 3 -13 0 -17 -6z"/>
<path d="M4110 4239 c0 -5 -5 -7 -12 -3 -7 4 -8 3 -4 -5 6 -9 11 -9 22 0 17
14 18 19 4 19 -5 0 -10 -5 -10 -11z"/>
<path d="M3945 4221 c-3 -5 -1 -12 5 -16 5 -3 10 1 10 9 0 18 -6 21 -15 7z"/>
<path d="M4133 4188 c0 -20 1 -24 4 -10 2 12 9 22 14 22 5 0 9 5 9 10 0 6 -6
10 -13 10 -8 0 -13 -13 -14 -32z"/>
<path d="M5868 4203 c7 -3 16 -2 19 1 4 3 -2 6 -13 5 -11 0 -14 -3 -6 -6z"/>
<path d="M3982 4180 c-15 -25 -15 -30 2 -30 8 0 14 10 14 25 0 30 0 30 -16 5z"/>
<path d="M4103 4188 c4 -11 0 -18 -11 -20 -14 -3 -13 -5 5 -10 17 -5 21 -2 18
14 -3 12 -7 23 -11 27 -4 3 -4 -2 -1 -11z"/>
<path d="M6000 4191 c0 -6 4 -13 10 -16 6 -3 7 1 4 9 -7 18 -14 21 -14 7z"/>
<path d="M5860 4180 c0 -5 5 -10 11 -10 5 0 8 -4 5 -8 -3 -5 1 -9 9 -9 10 0
11 5 4 19 -10 19 -29 25 -29 8z"/>
<path d="M4089 4150 c-6 -32 -3 -68 4 -63 6 4 8 0 5 -9 -4 -9 0 -15 8 -15 12
0 12 4 0 22 -11 17 -12 25 -3 34 8 8 8 14 -1 23 -7 7 -12 10 -13 8z"/>
<path d="M6002 4130 c0 -14 2 -19 5 -12 2 6 2 18 0 25 -3 6 -5 1 -5 -13z"/>
<path d="M3961 4113 c-1 -12 4 -25 10 -28 14 -9 27 4 13 13 -6 4 -14 14 -17
22 -4 10 -6 8 -6 -7z"/>
<path d="M5907 4123 c-10 -9 -9 -33 1 -33 4 0 8 9 9 20 2 21 0 24 -10 13z"/>
<path d="M6037 4086 c4 -27 1 -36 -18 -50 l-23 -16 22 0 c12 0 23 -6 23 -12 1
-7 5 5 8 27 7 45 3 85 -10 85 -4 0 -5 -15 -2 -34z"/>
<path d="M3943 4070 c-1 -11 2 -22 8 -25 5 -4 9 3 9 14 0 26 -15 35 -17 11z"/>
<path d="M5917 4049 c4 -12 0 -25 -8 -30 -16 -10 1 -12 25 -3 22 8 20 31 -3
43 -16 9 -18 8 -14 -10z"/>
<path d="M5985 4050 c3 -5 8 -10 11 -10 2 0 4 5 4 10 0 6 -5 10 -11 10 -5 0
-7 -4 -4 -10z"/>
<path d="M4090 3998 c0 -9 5 -20 10 -23 13 -8 13 5 0 25 -8 13 -10 13 -10 -2z"/>
<path d="M5943 3960 c0 -25 2 -35 4 -22 2 12 2 32 0 45 -2 12 -4 2 -4 -23z"/>
<path d="M5906 3962 c-6 -10 -6 -115 0 -109 2 2 7 29 10 60 6 53 3 69 -10 49z"/>
<path d="M4085 3939 c-4 -6 -5 -12 -2 -15 2 -3 7 2 10 11 7 17 1 20 -8 4z"/>
<path d="M3981 3894 c0 -11 3 -14 6 -6 3 7 2 16 -1 19 -3 4 -6 -2 -5 -13z"/>
<path d="M6845 3890 c10 -11 20 -20 23 -20 3 0 -3 9 -13 20 -10 11 -20 20 -23
20 -3 0 3 -9 13 -20z"/>
<path d="M5962 3880 c0 -14 2 -19 5 -12 2 6 2 18 0 25 -3 6 -5 1 -5 -13z"/>
<path d="M6002 3854 c-12 -8 -20 -19 -17 -24 3 -5 15 0 26 11 26 26 20 34 -9
13z"/>
<path d="M3976 3835 c-9 -26 -7 -32 5 -12 6 10 9 21 6 23 -2 3 -7 -2 -11 -11z"/>
<path d="M4096 3828 c3 -4 1 -8 -3 -8 -12 0 -14 -38 -2 -45 5 -4 6 2 2 11 -4
12 -3 15 5 10 8 -5 10 -1 5 10 -4 10 -2 15 4 11 5 -3 10 0 10 7 0 7 -6 13 -13
13 -7 0 -11 -4 -8 -9z"/>
<path d="M6037 3826 c-3 -8 -2 -27 3 -43 8 -26 8 -25 9 15 1 43 -3 52 -12 28z"/>
<path d="M5920 3785 c0 -8 7 -15 15 -15 8 0 15 7 15 15 0 8 -7 15 -15 15 -8 0
-15 -7 -15 -15z"/>
<path d="M6556 3718 c-6 -55 -4 -75 6 -83 34 -27 148 -179 205 -272 162 -271
236 -618 192 -913 -21 -149 8 -115 62 71 122 421 -7 869 -333 1160 -141 126
-124 121 -132 37z"/>
<path d="M3940 3760 c0 -5 5 -10 10 -10 6 0 10 5 10 10 0 6 -4 10 -10 10 -5 0
-10 -4 -10 -10z"/>
<path d="M3985 3760 c3 -5 8 -10 11 -10 2 0 4 5 4 10 0 6 -5 10 -11 10 -5 0
-7 -4 -4 -10z"/>
<path d="M3930 3730 c0 -5 5 -10 11 -10 5 0 7 5 4 10 -3 6 -8 10 -11 10 -2 0
-4 -4 -4 -10z"/>
<path d="M3983 3723 c-3 -10 -8 -22 -10 -28 -3 -5 3 -1 11 9 16 20 21 36 11
36 -3 0 -8 -8 -12 -17z"/>
<path d="M5877 3704 c-5 -29 3 -36 24 -21 13 11 13 14 -2 29 -16 15 -17 14
-22 -8z"/>
<path d="M4100 3701 c0 -6 4 -13 10 -16 6 -3 7 1 4 9 -7 18 -14 21 -14 7z"/>
<path d="M4100 3651 c0 -6 4 -13 10 -16 6 -3 7 1 4 9 -7 18 -14 21 -14 7z"/>
<path d="M5826 3628 c-10 -38 -7 -80 5 -73 6 4 7 19 4 35 -3 16 -2 31 4 35 13
8 14 25 2 25 -5 0 -11 -10 -15 -22z"/>
<path d="M4086 3613 c-6 -14 -5 -15 5 -6 7 7 10 15 7 18 -3 3 -9 -2 -12 -12z"/>
<path d="M5850 3610 c-8 -5 -11 -12 -7 -16 4 -4 13 -2 19 4 15 15 7 24 -12 12z"/>
<path d="M3991 3594 c0 -11 3 -14 6 -6 3 7 2 16 -1 19 -3 4 -6 -2 -5 -13z"/>
<path d="M5871 3561 c-10 -10 -23 -16 -27 -13 -4 4 -4 1 0 -6 6 -10 13 -10 33
3 23 15 26 15 39 -2 13 -17 13 -16 6 6 -12 33 -26 37 -51 12z"/>
<path d="M4031 3555 c1 -19 18 -51 18 -35 0 8 -4 22 -9 30 -5 8 -9 11 -9 5z"/>
<path d="M4061 3544 c0 -11 3 -14 6 -6 3 7 2 16 -1 19 -3 4 -6 -2 -5 -13z"/>
<path d="M4085 3550 c3 -5 8 -10 11 -10 2 0 4 5 4 10 0 6 -5 10 -11 10 -5 0
-7 -4 -4 -10z"/>
<path d="M4116 3535 c4 -8 8 -15 10 -15 2 0 4 7 4 15 0 8 -4 15 -10 15 -5 0
-7 -7 -4 -15z"/>
<path d="M5945 3530 c-3 -5 -1 -10 4 -10 6 0 11 5 11 10 0 6 -2 10 -4 10 -3 0
-8 -4 -11 -10z"/>
<path d="M4069 3513 c-13 -16 -12 -17 4 -4 9 7 17 15 17 17 0 8 -8 3 -21 -13z"/>
<path d="M4183 3515 c0 -8 4 -12 9 -9 4 3 8 9 8 15 0 5 -4 9 -8 9 -5 0 -9 -7
-9 -15z"/>
<path d="M5821 3516 c-9 -10 -8 -15 2 -19 8 -3 13 3 13 14 0 23 0 23 -15 5z"/>
<path d="M5928 3489 c2 -16 8 -29 12 -29 9 0 1 48 -9 55 -4 2 -5 -9 -3 -26z"/>
<path d="M4185 3480 c-3 -5 -1 -10 4 -10 6 0 11 5 11 10 0 6 -2 10 -4 10 -3 0
-8 -4 -11 -10z"/>
<path d="M5750 3460 c-8 -5 -11 -12 -7 -16 4 -4 15 0 24 9 18 18 8 23 -17 7z"/>
<path d="M4177 3443 c3 -7 13 -13 22 -12 10 0 11 2 3 6 -6 2 -10 8 -8 12 3 4
-1 8 -8 8 -8 0 -12 -6 -9 -14z"/>
<path d="M4180 3400 c0 -6 8 -13 18 -17 9 -3 25 -13 36 -22 17 -15 18 -15 15
4 -3 12 -14 21 -27 23 -12 2 -22 8 -22 13 0 5 -4 9 -10 9 -5 0 -10 -5 -10 -10z"/>
<path d="M4160 3370 c0 -5 5 -10 11 -10 5 0 7 5 4 10 -3 6 -8 10 -11 10 -2 0
-4 -4 -4 -10z"/>
<path d="M5745 3370 c-3 -5 -1 -10 4 -10 6 0 11 5 11 10 0 6 -2 10 -4 10 -3 0
-8 -4 -11 -10z"/>
<path d="M4304 3359 c-3 -6 -1 -16 5 -22 8 -8 11 -5 11 11 0 24 -5 28 -16 11z"/>
<path d="M5685 3353 c-12 -2 -26 -13 -33 -24 -12 -18 -11 -18 8 -7 22 14 50 3
58 -23 4 -10 -1 -9 -16 4 -12 11 -22 14 -26 8 -4 -5 3 -12 14 -16 11 -3 20
-14 21 -23 0 -12 3 -9 10 7 7 18 5 28 -7 42 -9 10 -13 23 -9 28 3 6 5 10 3 10
-2 -1 -12 -4 -23 -6z"/>
<path d="M5843 3345 c0 -8 4 -15 9 -15 4 0 8 4 8 9 0 6 -4 12 -8 15 -5 3 -9
-1 -9 -9z"/>
<path d="M5873 3325 c-7 -8 -13 -17 -13 -20 0 -10 29 -5 36 6 10 17 -10 29
-23 14z"/>
<path d="M4145 3320 c3 -5 8 -10 11 -10 2 0 4 5 4 10 0 6 -5 10 -11 10 -5 0
-7 -4 -4 -10z"/>
<path d="M4250 3301 c0 -6 4 -13 10 -16 6 -3 7 1 4 9 -7 18 -14 21 -14 7z"/>
<path d="M4376 3234 c-18 -18 -20 -24 -6 -24 5 0 14 9 20 20 13 24 7 26 -14 4z"/>
<path d="M5701 3218 c0 -9 -4 -25 -7 -35 -5 -14 -4 -15 5 -7 7 7 11 22 8 35
-2 13 -5 16 -6 7z"/>
<path d="M5559 3189 c-20 -16 -20 -18 -4 -11 11 5 27 11 35 14 9 3 10 7 3 11
-6 4 -22 -2 -34 -14z"/>
<path d="M4265 3190 c-3 -5 -1 -10 4 -10 6 0 11 5 11 10 0 6 -2 10 -4 10 -3 0
-8 -4 -11 -10z"/>
<path d="M5564 3165 c-10 -8 -14 -15 -8 -15 6 0 17 7 24 15 16 19 9 19 -16 0z"/>
<path d="M5412 3154 c-12 -8 -27 -25 -33 -37 -12 -21 -11 -21 8 -4 11 9 25 17
31 17 7 0 12 6 12 14 0 8 6 17 13 19 6 3 7 6 2 6 -6 1 -21 -6 -33 -15z"/>
<path d="M5455 3150 c-3 -5 -1 -10 4 -10 6 0 11 5 11 10 0 6 -2 10 -4 10 -3 0
-8 -4 -11 -10z"/>
<path d="M5510 3140 c-8 -15 -8 -18 3 -14 8 3 14 11 14 19 0 20 -4 19 -17 -5z"/>
<path d="M5575 3140 c-3 -6 1 -7 9 -4 18 7 21 14 7 14 -6 0 -13 -4 -16 -10z"/>
<path d="M4543 3123 c-21 -8 -15 -18 11 -18 15 0 22 5 19 13 -5 13 -10 14 -30
5z"/>
<path d="M5430 3111 c0 -8 -7 -11 -15 -7 -8 3 -21 -4 -29 -16 -15 -21 -12 -48
6 -48 7 0 6 5 -1 13 -8 10 -7 17 1 25 17 17 28 15 22 -3 -4 -8 -2 -15 4 -15
10 0 24 51 16 59 -2 2 -4 -1 -4 -8z"/>
<path d="M5605 3110 c-3 -5 -1 -10 4 -10 6 0 11 5 11 10 0 6 -2 10 -4 10 -3 0
-8 -4 -11 -10z"/>
<path d="M4312 3096 c7 -8 17 -12 22 -9 4 3 2 9 -5 14 -22 13 -31 11 -17 -5z"/>
<path d="M4350 3100 c0 -6 7 -10 15 -10 8 0 15 2 15 4 0 2 -7 6 -15 10 -8 3
-15 1 -15 -4z"/>
<path d="M4480 3100 c0 -6 7 -10 15 -10 8 0 15 2 15 4 0 2 -7 6 -15 10 -8 3
-15 1 -15 -4z"/>
<path d="M5277 3083 c-3 -5 9 -9 26 -10 26 -1 28 0 12 7 -26 11 -33 12 -38 3z"/>
<path d="M4790 3061 c8 -6 28 -11 44 -11 39 0 31 6 -19 14 -29 5 -36 4 -25 -3z"/>
<path d="M5220 3060 c0 -5 12 -10 28 -10 21 0 24 2 12 10 -20 13 -40 13 -40 0z"/>
<path d="M4555 3049 c-4 -6 -5 -12 -2 -15 2 -3 7 2 10 11 7 17 1 20 -8 4z"/>
<path d="M4663 3046 c-6 -8 -9 -17 -6 -20 12 -11 19 -6 20 14 2 23 2 23 -14 6z"/>
<path d="M5184 3046 c31 -18 56 -22 41 -7 -6 5 -23 13 -40 16 l-30 7 29 -16z"/>
<path d="M4690 3046 c0 -2 7 -9 15 -16 12 -10 15 -10 15 4 0 9 -7 16 -15 16
-8 0 -15 -2 -15 -4z"/>
<path d="M5110 3035 c0 -8 4 -15 8 -15 5 0 9 7 9 15 0 8 -4 15 -9 15 -4 0 -8
-7 -8 -15z"/>
<path d="M5265 3040 c-13 -6 -15 -9 -5 -9 8 0 22 4 30 9 18 12 2 12 -25 0z"/>
<path d="M4738 3033 c7 -3 16 -2 19 1 4 3 -2 6 -13 5 -11 0 -14 -3 -6 -6z"/>
<path d="M4815 3030 c-3 -5 -16 -10 -28 -10 -18 0 -19 -2 -7 -10 9 -6 18 -6
24 0 6 6 18 10 29 10 10 0 15 5 12 10 -3 6 -10 10 -15 10 -5 0 -12 -4 -15 -10z"/>
<path d="M4870 3020 c0 -5 5 -10 10 -10 6 0 10 5 10 10 0 6 -4 10 -10 10 -5 0
-10 -4 -10 -10z"/>
<path d="M5148 3010 c6 -8 12 -22 12 -32 0 -10 5 -18 10 -18 18 0 11 26 -12
46 -13 10 -17 12 -10 4z"/>
<path d="M4707 2998 c6 -7 9 -21 7 -32 -2 -13 1 -15 8 -8 12 12 1 52 -14 52
-7 0 -7 -4 -1 -12z"/>
<path d="M4738 3003 c7 -3 16 -2 19 1 4 3 -2 6 -13 5 -11 0 -14 -3 -6 -6z"/>
<path d="M4900 2990 c0 -5 5 -10 10 -10 6 0 10 5 10 10 0 6 -4 10 -10 10 -5 0
-10 -4 -10 -10z"/>
<path d="M4768 2983 c7 -3 16 -2 19 1 4 3 -2 6 -13 5 -11 0 -14 -3 -6 -6z"/>
<path d="M4655 2950 c3 -5 11 -10 16 -10 6 0 7 5 4 10 -3 6 -11 10 -16 10 -6
0 -7 -4 -4 -10z"/>
<path d="M5330 2945 c0 -9 9 -15 23 -14 17 1 18 2 4 6 -9 2 -15 9 -12 14 4 5
1 9 -4 9 -6 0 -11 -7 -11 -15z"/>
<path d="M5380 2950 c0 -5 5 -10 11 -10 5 0 7 5 4 10 -3 6 -8 10 -11 10 -2 0
-4 -4 -4 -10z"/>
<path d="M6841 2955 c0 -5 8 -26 19 -45 11 -19 19 -30 19 -25 0 6 -8 26 -19
45 -11 19 -19 31 -19 25z"/>
<path d="M5298 2943 c7 -3 16 -2 19 1 4 3 -2 6 -13 5 -11 0 -14 -3 -6 -6z"/>
<path d="M4645 2910 c4 -6 10 -8 15 -5 5 3 21 -2 35 -11 22 -14 24 -14 19 -1
-5 14 -34 27 -62 27 -7 0 -10 -5 -7 -10z"/>
<path d="M5265 2910 c-3 -5 1 -10 9 -10 9 0 16 5 16 10 0 6 -4 10 -9 10 -6 0
-13 -4 -16 -10z"/>
<path d="M5350 2909 c0 -5 5 -7 10 -4 6 3 10 8 10 11 0 2 -4 4 -10 4 -5 0 -10
-5 -10 -11z"/>
<path d="M4820 2870 c0 -5 7 -7 15 -4 8 4 15 8 15 10 0 2 -7 4 -15 4 -8 0 -15
-4 -15 -10z"/>
<path d="M5005 2870 c3 -6 -2 -10 -12 -11 -10 0 -13 -3 -6 -5 7 -3 20 -1 29 4
15 8 15 9 0 15 -10 4 -15 3 -11 -3z"/>
<path d="M6931 2704 c0 -11 3 -14 6 -6 3 7 2 16 -1 19 -3 4 -6 -2 -5 -13z"/>
<path d="M6246 2629 c-14 -136 0 -272 32 -324 4 -5 7 -12 8 -15 0 -3 8 -30 18
-60 9 -30 23 -88 31 -127 8 -40 23 -94 35 -119 11 -26 21 -54 22 -63 1 -9 4
20 7 64 14 183 -23 413 -94 595 -21 52 -41 99 -45 103 -4 4 -10 -20 -14 -54z
m28 -24 c-4 -8 -8 -15 -10 -15 -2 0 -4 7 -4 15 0 8 4 15 10 15 5 0 7 -7 4 -15z
m6 -39 c0 -3 -4 -8 -10 -11 -5 -3 -10 -1 -10 4 0 6 5 11 10 11 6 0 10 -2 10
-4z m20 -31 c7 -9 8 -15 2 -15 -5 0 -12 7 -16 15 -3 8 -4 15 -2 15 2 0 9 -7
16 -15z m29 -65 c0 -10 -3 -8 -9 5 -12 27 -12 43 0 25 5 -8 9 -22 9 -30z m-54
11 c3 -5 1 -12 -5 -16 -5 -3 -10 1 -10 9 0 18 6 21 15 7z m93 -188 c0 -10 3
-37 5 -60 4 -26 2 -43 -4 -43 -6 0 -8 8 -5 18 3 9 2 31 -3 47 -4 17 -6 36 -4
43 6 17 12 15 11 -5z m9 -155 c-3 -7 -5 -2 -5 12 0 14 2 19 5 13 2 -7 2 -19 0
-25z m10 -55 c-3 -10 -5 -4 -5 12 0 17 2 24 5 18 2 -7 2 -21 0 -30z"/>
<path d="M6942 2655 c0 -16 2 -22 5 -12 2 9 2 23 0 30 -3 6 -5 -1 -5 -18z"/>
<path d="M6952 2585 c0 -16 2 -22 5 -12 2 9 2 23 0 30 -3 6 -5 -1 -5 -18z"/>
<path d="M7844 2069 c-3 -6 -1 -16 5 -22 8 -8 11 -5 11 11 0 24 -5 28 -16 11z"/>
<path d="M5855 2060 c-3 -5 3 -15 15 -22 11 -7 20 -21 20 -30 0 -10 7 -18 15
-18 17 0 20 -31 5 -46 -12 -12 15 -54 35 -54 20 0 65 81 65 117 0 45 -27 63
-93 63 -31 0 -59 -4 -62 -10z"/>
<path d="M3819 1998 c-18 -20 -29 -43 -29 -61 0 -24 3 -27 13 -18 8 6 17 8 20
4 4 -3 7 1 7 10 0 14 10 17 54 17 39 0 60 6 80 21 35 27 33 34 -13 47 -67 21
-99 15 -132 -20z"/>
<path d="M7863 1995 c0 -22 2 -30 4 -17 2 12 2 30 0 40 -3 9 -5 -1 -4 -23z"/>
<path d="M7660 1949 c0 -3 24 -11 53 -17 28 -6 62 -14 75 -18 20 -6 21 -4 14
15 -7 19 -16 23 -75 25 -37 1 -67 -1 -67 -5z"/>
<path d="M3800 1894 c1 -5 7 -20 15 -34 13 -24 14 -24 15 -4 0 12 -7 27 -15
34 -8 7 -15 9 -15 4z"/>
<path d="M3362 1760 c-30 -18 -32 -24 -32 -74 0 -87 17 -108 55 -66 14 16 15
23 6 34 -16 19 -4 39 20 33 10 -3 25 4 35 15 12 12 26 17 40 14 13 -4 27 1 38
13 23 25 6 37 -69 44 -50 5 -67 3 -93 -13z"/>
<path d="M4612 1730 c-48 -7 -57 -16 -73 -74 -8 -28 -7 -52 1 -87 11 -46 14
-49 44 -49 41 0 76 25 76 54 0 28 19 53 45 58 16 3 20 11 18 37 -2 55 -35 73
-111 61z"/>
<path d="M4737 1633 c-4 -3 -7 -52 -7 -108 l0 -102 45 -69 c25 -37 45 -72 45
-76 0 -4 13 -8 29 -8 34 0 71 39 71 74 0 26 18 46 41 46 26 0 32 -33 14 -75
-8 -21 -15 -39 -15 -41 0 -2 74 -4 165 -4 l165 0 0 185 0 185 -273 0 c-151 0
-277 -3 -280 -7z"/>
<path d="M7177 1573 c8 -3 11 -15 8 -31 -5 -26 -5 -26 5 -4 11 26 6 42 -13 41
-9 0 -9 -2 0 -6z"/>
<path d="M7820 1530 c8 -5 20 -10 25 -10 6 0 3 5 -5 10 -8 5 -19 10 -25 10 -5
0 -3 -5 5 -10z"/>
<path d="M3288 1503 c-32 -20 -58 -78 -58 -131 0 -55 -10 -65 -64 -60 -46 3
-47 3 -41 -22 14 -59 17 -162 6 -206 -13 -52 -10 -60 16 -49 10 5 21 7 26 7
11 -3 9 16 -3 23 -5 3 -10 1 -10 -4 0 -6 -5 -11 -10 -11 -7 0 -7 7 0 21 14 25
17 117 6 182 l-7 47 35 0 36 0 0 -72 c0 -40 7 -126 14 -192 13 -106 17 -121
43 -148 40 -43 72 -57 155 -68 159 -21 203 -32 220 -54 22 -26 22 -76 3 -216
-8 -58 -15 -110 -15 -116 0 -21 -74 -7 -125 23 l-50 29 -3 97 c-3 95 -2 97 22
106 13 6 27 15 31 20 3 6 26 11 51 11 32 0 44 4 44 15 0 23 -318 22 -335 -1
-10 -14 -17 -15 -47 -5 -56 18 -81 52 -86 116 -4 51 -1 61 33 118 21 34 40 65
42 70 2 4 -2 7 -9 7 -20 -1 -79 -94 -89 -141 -17 -73 10 -146 64 -179 26 -16
50 -20 123 -20 124 0 126 -2 122 -120 l-3 -94 -55 -33 c-38 -23 -62 -32 -79
-28 -27 7 -61 -18 -61 -45 0 -9 9 -25 19 -34 25 -23 56 -13 73 21 7 15 38 41
68 59 59 35 56 35 133 -13 22 -14 37 -31 37 -43 0 -27 16 -34 95 -41 39 -4 80
-10 93 -14 17 -6 22 -4 22 11 0 18 2 17 18 -2 16 -20 22 -21 108 -13 51 5 101
12 113 17 12 4 48 5 80 2 32 -3 69 -3 82 1 l24 5 -25 8 c-14 5 -39 19 -55 31
l-31 23 18 148 c23 209 22 235 -17 400 -19 80 -35 148 -35 150 0 2 61 4 135 4
111 0 137 -3 141 -15 5 -11 21 -15 60 -15 60 0 57 4 69 -98 6 -52 5 -53 -15
-42 -47 25 -36 -20 21 -86 21 -25 39 -53 39 -62 0 -9 9 -31 20 -49 l19 -32
-47 -3 c-55 -3 -63 -22 -12 -26 19 -1 50 -10 68 -20 l32 -17 0 -85 0 -85 -49
-27 c-27 -16 -63 -28 -80 -28 -38 0 -57 -29 -41 -61 16 -28 61 -22 77 11 7 14
34 37 60 52 l47 27 48 -26 c27 -15 48 -33 48 -43 0 -41 58 -55 82 -19 l14 22
43 -22 c24 -13 45 -21 47 -18 2 2 -11 24 -30 48 -19 24 -31 46 -26 49 4 3 31
54 59 114 28 60 53 107 55 105 1 -2 -2 -56 -9 -119 -7 -63 -8 -120 -4 -126 5
-6 7 -13 5 -15 -2 -2 -6 -16 -10 -32 l-6 -27 105 0 c109 0 124 7 58 29 -79 26
-76 16 -53 216 28 237 28 251 5 275 -12 12 -82 38 -173 64 l-154 45 -37 -20
c-21 -10 -55 -20 -75 -22 l-38 -2 -19 65 c-26 90 -26 90 25 90 24 0 48 6 53
13 5 6 11 64 12 128 2 94 0 118 -13 128 -22 18 -266 17 -278 -1 -4 -7 -8 -57
-8 -110 l0 -98 -355 0 c-309 0 -355 -2 -355 -15 0 -12 13 -15 60 -15 l60 0 0
-42 c0 -24 -3 -66 -6 -94 l-7 -52 -36 25 c-20 14 -66 40 -103 59 l-68 34 0 44
c0 23 -3 85 -7 136 l-6 94 41 -33 41 -33 25 28 25 29 -32 35 c-84 92 -153 162
-168 170 -8 5 -38 11 -65 15 -37 4 -56 1 -76 -12z m62 -293 c0 -63 103 -196
172 -220 48 -17 59 -41 32 -71 -28 -31 -57 -24 -91 25 -17 24 -62 68 -99 98
-87 69 -92 75 -100 125 -6 38 -4 41 22 51 46 17 64 14 64 -8z m1148 -226 c15
-51 16 -82 3 -68 -6 5 -14 35 -19 67 -10 64 -2 65 16 1z m-540 -106 l52 -137
-17 -181 c-11 -117 -21 -184 -29 -187 -6 -2 -29 4 -50 14 l-38 18 -18 105
c-33 185 -34 232 -3 366 35 155 36 158 44 148 5 -5 31 -71 59 -146z m589 -110
c-3 -8 -6 -5 -6 6 -1 11 2 17 5 13 3 -3 4 -12 1 -19z m216 3 c6 -6 11 -21 12
-33 1 -16 9 -24 26 -26 49 -6 53 -10 36 -36 -9 -13 -39 -68 -68 -122 -28 -55
-56 -104 -61 -111 -5 -7 -6 -18 -2 -24 8 -13 6 -12 -58 28 l-38 23 0 83 c0 81
0 82 31 100 17 9 45 17 64 17 23 0 34 5 37 18 4 15 -2 17 -60 14 -35 -2 -68 0
-72 5 -5 4 -11 24 -15 43 l-6 35 82 -2 c45 -1 87 -7 92 -12z"/>
<path d="M4650 759 c0 -5 9 -9 20 -9 11 0 20 2 20 4 0 2 -9 6 -20 9 -11 3 -20
1 -20 -4z"/>
<path d="M4705 760 c3 -5 8 -10 11 -10 2 0 4 5 4 10 0 6 -5 10 -11 10 -5 0 -7
-4 -4 -10z"/>
<path d="M4700 730 c0 -5 5 -10 10 -10 6 0 10 5 10 10 0 6 -4 10 -10 10 -5 0
-10 -4 -10 -10z"/>
<path d="M3730 1158 c0 -5 39 -8 86 -8 56 0 83 4 79 10 -7 12 -165 9 -165 -2z"/>
<path d="M4720 1116 c0 -11 10 -16 31 -16 38 0 35 24 -4 28 -19 2 -27 -1 -27
-12z"/>
<path d="M3197 1080 c-3 -11 -1 -23 4 -26 5 -3 9 6 9 20 0 31 -6 34 -13 6z"/>
<path d="M3265 837 c-16 -13 -15 -14 13 -9 18 2 29 8 26 13 -7 12 -17 11 -39
-4z"/>
<path d="M3240 796 c0 -24 27 -39 47 -26 17 11 17 11 0 6 -23 -8 -44 3 -27 14
8 5 7 9 -4 13 -10 4 -16 1 -16 -7z"/>
<path d="M3458 773 c6 -2 18 -2 25 0 6 3 1 5 -13 5 -14 0 -19 -2 -12 -5z"/>
<path d="M4429 763 c-13 -16 -12 -17 4 -4 16 13 21 21 13 21 -2 0 -10 -8 -17
-17z"/>
<path d="M4470 769 c0 -5 5 -7 10 -4 6 3 10 8 10 11 0 2 -4 4 -10 4 -5 0 -10
-5 -10 -11z"/>
<path d="M4426 732 c-3 -5 1 -9 9 -9 8 0 15 4 15 9 0 4 -4 8 -9 8 -6 0 -12 -4
-15 -8z"/>
<path d="M4470 730 c0 -5 7 -10 16 -10 8 0 12 5 9 10 -3 6 -10 10 -16 10 -5 0
-9 -4 -9 -10z"/>
</g>
</svg>
