<?xml version="1.0" standalone="no"?>
<!DOCTYPE svg PUBLIC "-//W3C//DTD SVG 20010904//EN"
 "http://www.w3.org/TR/2001/REC-SVG-20010904/DTD/svg10.dtd">
<svg version="1.0" xmlns="http://www.w3.org/2000/svg"
 width="1080.000000pt" height="1080.000000pt" viewBox="0 0 1080.000000 1080.000000"
 preserveAspectRatio="xMidYMid meet">

<g transform="translate(0.000000,1080.000000) scale(0.100000,-0.100000)"
fill="#000000" stroke="none">
<path d="M0 5400 l0 -5400 5400 0 5400 0 0 5400 0 5400 -5400 0 -5400 0 0
-5400z m1548 3847 c142 -50 250 -136 324 -258 36 -60 38 -61 38 -31 l0 32 65
0 65 0 0 115 0 116 153 -3 152 -3 3 -112 3 -113 94 0 95 0 0 -115 0 -115 -95
0 -95 0 0 -168 c0 -155 2 -170 20 -190 34 -36 67 -39 154 -10 8 3 76 -174 76
-198 0 -23 -84 -47 -181 -52 -175 -9 -296 50 -350 170 -22 49 -24 69 -27 251
l-4 197 -42 0 -43 0 -7 -80 c-20 -246 -169 -433 -408 -511 -64 -21 -92 -24
-218 -24 -131 1 -152 3 -218 27 -209 76 -345 224 -387 423 -18 88 -18 142 0
228 38 182 150 320 325 400 99 45 168 57 310 53 103 -2 138 -8 198 -29z m4328
-145 c6 -4 7 -17 3 -32 -5 -18 -7 -20 -8 -7 -1 10 -7 17 -13 14 -9 -2 -13 -30
-14 -85 0 -45 -3 -85 -7 -89 -4 -3 -7 7 -8 23 l-1 29 -10 -32 c-12 -37 -28
-44 -28 -13 0 11 5 20 10 20 6 0 10 29 10 66 0 41 -4 63 -10 59 -11 -7 -14 38
-3 48 9 9 65 9 79 -1z m44 -35 c0 -5 -4 -5 -10 -2 -5 3 -10 14 -10 23 0 15 2
15 10 2 5 -8 10 -19 10 -23z m27 -110 c-2 -23 -3 -1 -3 48 0 50 1 68 3 42 2
-26 2 -67 0 -90z m-2737 -54 l0 -127 28 45 c86 134 239 209 427 209 282 0 486
-186 485 -445 -1 -125 -43 -226 -130 -309 -105 -101 -223 -141 -385 -133 -58
3 -123 13 -155 23 -123 41 -237 148 -280 261 -29 76 -36 191 -17 263 9 30 14
56 12 58 -2 2 -21 6 -42 9 -79 10 -163 -32 -201 -101 -14 -26 -18 -67 -20
-268 l-4 -238 -148 0 -149 0 -3 78 c-2 42 -2 238 0 435 l2 357 145 0 145 0 0
-46 0 -45 33 24 c67 51 133 74 215 76 l42 1 0 -127z m2690 112 c0 -8 -4 -15
-9 -15 -5 0 -11 7 -15 15 -3 9 0 15 9 15 8 0 15 -7 15 -15z m-18 -65 c3 -17 1
-33 -4 -36 -4 -3 -8 11 -8 30 0 44 6 47 12 6z m25 8 c-3 -8 -6 -5 -6 6 -1 11
2 17 5 13 3 -3 4 -12 1 -19z m490 -40 c-3 -8 -6 -5 -6 6 -1 11 2 17 5 13 3 -3
4 -12 1 -19z m-541 -60 c6 -21 7 -21 20 -4 16 22 44 14 44 -11 -1 -17 -1 -17
-11 0 -17 29 -29 9 -29 -51 0 -35 6 -66 15 -79 9 -12 11 -24 6 -27 -5 -4 -13
4 -17 16 -4 13 -11 26 -16 29 -5 3 -12 31 -15 62 -7 64 -17 73 -28 25 -6 -26
-9 -29 -12 -12 -5 24 13 74 26 74 5 0 13 -10 17 -22z m-56 -8 c0 -5 -4 -10
-10 -10 -5 0 -10 5 -10 10 0 6 5 10 10 10 6 0 10 -4 10 -10z m155 -145 c8 -18
7 -19 -8 -6 -13 10 -17 28 -15 80 l1 66 7 -60 c3 -33 10 -69 15 -80z m32 43
c-2 -18 -4 -4 -4 32 0 36 2 50 4 33 2 -18 2 -48 0 -65z m380 35 c-3 -10 -5 -2
-5 17 0 19 2 27 5 18 2 -10 2 -26 0 -35z m63 -40 c0 -68 -5 -67 -13 5 -4 30
-2 52 3 52 6 0 10 -25 10 -57z m-613 15 c-3 -8 -6 -5 -6 6 -1 11 2 17 5 13 3
-3 4 -12 1 -19z m29 -44 c8 3 14 2 14 -2 0 -16 -16 -29 -42 -36 -26 -6 -28 -4
-28 21 0 19 3 24 9 15 6 -10 10 -8 16 10 6 20 8 21 12 5 3 -11 11 -16 19 -13z
m539 -14 c3 -5 1 -10 -4 -10 -6 0 -11 5 -11 10 0 6 2 10 4 10 3 0 8 -4 11 -10z
m-533 -141 c2 -50 1 -92 -2 -94 -3 -1 -16 -5 -30 -8 l-25 -6 -3 94 c-2 60 1
95 8 95 5 0 10 -17 10 -37 0 -28 3 -34 10 -23 5 8 10 27 10 43 0 15 4 27 9 27
5 0 11 -41 13 -91z m101 71 c-3 -10 5 -35 17 -54 23 -38 24 -88 2 -92 -7 -1
-8 0 -2 3 16 8 11 46 -10 78 -20 31 -27 85 -11 85 5 0 7 -9 4 -20z m-53 -7 c0
-9 7 -45 16 -81 14 -55 14 -85 0 -71 -9 9 -32 169 -24 169 4 0 8 -8 8 -17z
m513 -78 c4 -8 2 -17 -3 -20 -6 -4 -10 3 -10 14 0 25 6 27 13 6z m-5325 -557
c9 -9 12 -119 12 -435 l0 -423 228 0 228 0 -14 73 c-39 193 60 398 238 492
248 130 577 59 714 -154 l40 -61 27 48 c151 266 614 313 819 84 l53 -58 50 53
c165 175 490 203 706 62 235 -154 269 -511 68 -710 -205 -204 -590 -196 -785
15 l-40 44 -31 -43 c-118 -165 -429 -214 -650 -104 -77 38 -155 108 -191 172
l-28 49 -26 -45 c-15 -24 -51 -68 -81 -96 -198 -187 -548 -186 -752 2 l-43 40
0 -75 c0 -44 -5 -79 -12 -86 -17 -17 -869 -17 -886 0 -17 17 -17 1139 0 1156
8 8 62 12 178 12 116 0 170 -4 178 -12z m4227 -960 c-29 -62 -31 -84 -9 -92
13 -5 15 -19 12 -71 -3 -60 1 -70 25 -66 4 0 7 -3 7 -8 0 -6 9 -9 20 -8 14 1
20 8 20 24 0 13 5 23 10 23 6 0 10 -7 10 -15 0 -9 6 -12 18 -8 13 5 15 3 5 -7
-15 -16 10 -70 32 -70 12 0 15 -14 13 -65 -1 -37 -7 -65 -13 -65 -5 0 -4 -4 3
-9 8 -4 109 -9 225 -10 249 -2 913 -19 1042 -26 212 -12 376 -45 405 -80 10
-13 12 -92 6 -381 -4 -201 -10 -372 -13 -380 -4 -11 30 -14 199 -16 l203 -3 3
-82 3 -83 -161 0 -160 0 0 -55 0 -54 138 -3 137 -3 3 -82 3 -83 -141 0 -140 0
0 -105 0 -104 -102 -3 -103 -3 44 -45 44 -45 -7 -240 c-7 -242 -50 -1264 -62
-1472 l-7 -112 -37 -15 c-53 -21 -184 -44 -325 -56 -66 -6 -349 -11 -628 -12
-285 -1 -502 -5 -493 -10 12 -7 15 -44 17 -231 5 -524 3 -657 -9 -669 -7 -7
-12 -20 -12 -29 0 -10 -14 -29 -32 -44 -28 -24 -38 -26 -76 -21 -51 7 -122 -2
-122 -16 0 -5 10 -13 23 -18 20 -8 20 -9 2 -9 -11 0 -25 3 -31 7 -13 8 -21
137 -30 482 -4 135 -8 268 -9 295 -1 28 -3 109 -4 182 l-1 132 -37 11 c-43 11
-76 30 -55 30 9 0 12 28 10 120 -2 66 -5 120 -8 120 -3 0 -6 62 -7 138 -3 147
-10 333 -17 447 -3 39 -7 160 -10 270 -7 253 -16 447 -22 456 -2 4 -6 60 -9
125 -4 66 -8 130 -11 144 -5 24 -16 447 -32 1197 -8 398 -16 357 73 386 l40
14 7 81 c7 86 46 244 76 308 30 66 72 144 77 144 2 0 -7 -24 -20 -52z m-2441
-338 c-6 -6 -73 -62 -150 -125 l-139 -114 -114 -1 -113 0 73 83 c40 45 91 101
113 125 l40 42 150 0 c103 0 147 -3 140 -10z m-1725 -395 c101 -168 189 -312
195 -321 10 -13 44 40 201 305 l189 321 133 0 133 0 0 -560 0 -560 -145 0
-145 0 -1 228 c-1 125 -4 253 -8 284 l-6 58 -135 -228 -135 -227 -75 -3 -75
-2 -135 222 -135 222 -3 -277 -2 -277 -150 0 -150 0 0 560 0 560 133 0 132 0
184 -305z m1471 55 c119 -23 219 -90 265 -180 39 -77 45 -136 45 -420 l0 -270
-145 0 -145 0 0 46 0 46 -40 -35 c-56 -51 -131 -71 -239 -64 -187 11 -291 107
-291 267 1 115 52 186 167 231 49 19 83 23 221 27 176 5 177 5 147 61 -40 79
-215 91 -349 25 -27 -14 -50 -23 -51 -22 -1 2 -25 46 -54 100 l-51 96 32 20
c113 68 337 101 488 72z m938 -6 c91 -19 175 -52 169 -68 -3 -6 -24 -54 -47
-108 l-42 -96 -51 23 c-108 49 -275 57 -318 14 -23 -23 -24 -33 -4 -53 15 -15
43 -22 214 -52 180 -32 267 -101 278 -220 7 -80 -9 -132 -58 -187 -50 -57
-139 -102 -234 -118 -86 -15 -278 -6 -360 16 -71 20 -155 55 -155 65 0 18 88
205 96 203 5 -1 36 -14 70 -27 108 -45 274 -58 333 -26 27 14 28 56 2 70 -11
5 -75 19 -143 30 -68 12 -144 28 -170 36 -113 37 -171 115 -172 229 0 130 96
229 262 269 78 19 237 19 330 0z m4560 -731 l3 -83 -161 0 -160 0 0 -35 0 -34
138 -3 137 -3 3 -82 3 -83 -141 0 -140 0 0 -40 0 -40 163 -2 162 -3 3 -82 3
-83 -276 0 -275 0 0 323 c0 178 3 327 7 330 4 4 124 6 267 5 l261 -3 3 -82z
m1803 -68 c66 -147 206 -468 216 -492 4 -10 -22 -13 -110 -13 l-115 0 -22 55
-22 55 -123 0 -123 0 -22 -55 -22 -55 -114 0 -114 0 26 58 c14 31 75 172 136
312 61 140 115 263 120 273 8 16 22 17 116 15 l107 -3 66 -150z m-1294 130
c103 -31 168 -104 180 -203 8 -74 -12 -130 -68 -186 l-50 -50 58 -85 c32 -47
62 -91 66 -98 6 -10 -18 -13 -111 -13 l-119 0 -53 80 c-48 74 -55 80 -86 80
l-34 0 0 -80 0 -80 -110 0 -110 0 0 325 0 325 193 0 c142 0 207 -4 244 -15z
m793 -70 l0 -85 -95 0 -95 0 0 -240 0 -240 -115 0 -115 0 0 240 0 240 -95 0
-95 0 0 85 0 85 305 0 305 0 0 -85z m355 -635 c136 -20 291 -69 362 -115 21
-14 21 -15 -44 -142 -36 -70 -85 -165 -110 -211 l-44 -82 -27 18 c-15 11 -56
30 -92 43 -56 21 -83 24 -195 24 -127 0 -132 -1 -197 -33 -81 -39 -139 -102
-168 -179 -11 -31 -19 -58 -16 -60 2 -2 27 7 55 22 82 41 165 58 281 58 122 0
203 -18 305 -68 132 -64 234 -179 283 -319 31 -88 35 -235 9 -335 -54 -202
-226 -365 -457 -431 -106 -30 -312 -38 -438 -16 -236 41 -430 167 -536 346
-87 148 -120 289 -120 510 0 172 15 267 65 403 112 309 388 521 734 566 97 12
267 13 350 1z m-2080 -251 c135 -200 150 -219 163 -202 7 10 72 109 145 220
l132 202 324 1 323 0 -18 -27 c-10 -16 -144 -203 -299 -418 -154 -214 -284
-395 -288 -401 -4 -7 129 -201 311 -455 175 -244 321 -450 325 -456 7 -10 -63
-13 -335 -13 l-344 0 -149 230 c-81 127 -151 230 -155 230 -3 0 -71 -103 -151
-230 l-144 -230 -233 0 -234 0 6 73 c3 39 8 115 12 167 l6 95 66 95 c36 52
126 178 199 279 l133 185 -23 30 c-50 66 -305 432 -317 455 -10 19 -11 62 -6
185 4 89 10 171 13 184 5 22 6 22 197 22 l192 0 149 -221z m-385 -1663 l0 -65
48 -7 c26 -4 70 -15 99 -24 43 -14 53 -15 57 -3 4 10 48 13 216 13 l210 0 0
-415 0 -415 -140 0 -140 0 0 310 0 310 -75 0 c-75 0 -75 0 -76 28 -1 24 -4 21
-22 -21 -15 -34 -26 -47 -37 -43 -8 2 -41 14 -74 26 -70 25 -171 36 -208 21
-37 -14 -53 -45 -33 -64 8 -8 73 -29 145 -46 72 -17 145 -38 163 -47 98 -50
137 -109 137 -209 0 -120 -77 -215 -207 -255 l-58 -18 -3 -66 -3 -66 -84 0
-85 0 0 64 0 63 -51 6 c-29 4 -54 8 -56 11 -2 2 -1 52 3 111 l7 107 31 -6 c73
-16 154 -18 190 -6 32 10 37 16 34 38 -3 29 -7 31 -167 73 l-84 22 7 136 c3
75 9 184 13 244 l6 107 31 8 c30 8 31 10 34 75 l3 67 84 0 85 0 0 -64z m1215
-90 c106 -48 155 -114 155 -210 0 -66 -12 -102 -48 -139 l-26 -27 42 -43 c22
-23 46 -53 51 -67 8 -19 9 -11 5 36 -7 72 9 183 37 259 27 73 104 157 176 191
108 51 263 42 362 -20 80 -51 152 -168 167 -269 l7 -52 13 62 c18 89 46 145
100 203 140 149 400 147 533 -6 168 -191 130 -573 -70 -700 -93 -58 -249 -70
-352 -25 -103 45 -184 153 -211 282 l-13 64 -7 -52 c-15 -101 -87 -218 -167
-269 -93 -58 -249 -70 -351 -26 -91 40 -166 128 -198 231 l-17 55 -5 -67 c-3
-54 -10 -75 -34 -109 -67 -96 -163 -133 -339 -133 -132 1 -195 18 -273 74
-112 82 -122 257 -19 348 l36 31 -21 19 c-33 28 -58 93 -58 149 0 101 72 184
193 224 94 30 250 24 332 -14z m-4693 -518 c31 -14 76 -45 101 -67 24 -23 47
-41 51 -41 3 0 6 14 6 31 0 25 3 29 18 25 12 -4 28 4 48 25 47 49 73 59 149
53 37 -2 82 -11 101 -19 85 -35 151 -116 185 -226 32 -102 24 -104 -46 -14
-51 67 -114 105 -150 91 -15 -5 -14 -9 5 -35 l20 -30 -44 -6 c-25 -4 -53 -13
-62 -20 -14 -10 -7 -13 48 -17 210 -17 368 -219 368 -470 0 -43 -4 -78 -9 -78
-13 0 -78 77 -104 123 -24 43 -32 46 -41 15 l-6 -23 -20 25 c-11 14 -25 44
-31 68 -14 52 -29 64 -29 23 0 -32 -16 -42 -26 -16 -4 8 -12 15 -19 15 -10 0
-11 -9 -4 -37 17 -71 22 -245 10 -323 -13 -79 -41 -170 -53 -170 -15 0 -40
107 -45 193 -6 91 -16 109 -31 55 l-10 -33 -17 40 c-10 22 -22 69 -28 105 -5
36 -11 71 -13 78 -5 19 -24 4 -24 -19 0 -36 -16 -19 -29 31 -10 38 -17 50 -32
50 -20 0 -39 28 -39 59 0 25 -19 38 -31 20 -5 -8 -31 -70 -58 -139 -65 -164
-116 -385 -132 -569 -14 -165 -6 -448 15 -561 8 -40 12 -79 9 -86 -6 -15 -92
-44 -130 -44 -75 0 -147 40 -127 71 6 10 17 253 15 349 0 25 6 73 15 107 9 34
13 71 10 81 -4 10 3 45 14 77 11 32 20 70 20 84 0 23 10 60 57 201 8 25 18 61
23 80 11 42 29 83 98 219 29 57 51 105 49 107 -1 2 -20 -1 -42 -6 -54 -13
-112 -12 -133 1 -13 8 -33 7 -77 -4 -54 -14 -61 -14 -72 0 -15 19 -60 10 -108
-22 -28 -19 -35 -21 -35 -9 0 22 18 54 47 86 14 15 22 32 18 38 -4 7 6 26 25
45 18 18 30 38 26 43 -9 15 109 63 169 69 30 3 55 10 55 16 0 5 7 15 16 21 13
10 9 16 -30 44 -29 21 -43 38 -39 47 3 8 0 15 -7 15 -6 0 -36 23 -66 51 -40
39 -51 55 -44 65 13 15 6 20 -43 29 -92 18 -1 45 138 42 84 -2 109 -7 157 -29z
m1598 -518 c34 -11 70 -20 78 -20 8 0 13 -3 9 -6 -7 -7 -135 22 -157 36 -24
15 3 11 70 -10z m33 13 c-7 -2 -19 -2 -25 0 -7 3 -2 5 12 5 14 0 19 -2 13 -5z
m70 -10 c-7 -2 -19 -2 -25 0 -7 3 -2 5 12 5 14 0 19 -2 13 -5z m24 -39 c-3 -3
-12 -4 -19 -1 -8 3 -5 6 6 6 11 1 17 -2 13 -5z m395 -409 c120 -80 136 -259
31 -356 -115 -108 -298 -76 -367 63 -29 59 -34 129 -12 182 18 43 71 103 110
123 70 37 172 32 238 -12z m-1796 13 c71 -38 124 -124 124 -203 0 -85 -49
-169 -120 -205 -35 -19 -206 -26 -225 -10 -12 10 -15 37 -15 131 0 65 4 120
10 124 14 8 59 -87 67 -141 7 -53 16 -59 80 -49 57 8 105 52 123 113 18 57 -7
122 -58 157 -40 27 -102 34 -102 11 0 -7 20 -61 45 -120 l44 -106 -24 -16
c-19 -12 -28 -14 -39 -5 -21 17 -139 310 -132 327 5 14 21 16 99 12 58 -3 103
-10 123 -20z m477 9 c90 -38 142 -117 141 -217 0 -72 -16 -110 -65 -159 -44
-44 -94 -63 -164 -64 -174 0 -282 176 -203 328 29 57 47 74 103 103 47 25 139
29 188 9z m275 -5 c10 -10 49 -75 87 -145 39 -69 73 -127 78 -127 14 0 8 199
-8 236 -8 20 -13 39 -11 43 2 3 25 5 50 3 l46 -4 0 -214 c0 -232 0 -234 -54
-220 -18 4 -43 40 -102 146 -44 77 -82 140 -86 140 -5 0 -8 -66 -8 -146 l0
-145 -32 3 -33 3 -3 209 c-2 145 1 213 9 222 16 19 46 17 67 -4z m570 -9 c43
-31 57 -68 43 -114 -10 -34 -9 -41 14 -75 48 -71 25 -185 -45 -221 -17 -9 -61
-12 -135 -11 l-110 3 0 140 c0 138 0 140 23 143 12 2 22 5 22 7 0 3 -12 34
-27 70 -34 84 -30 88 95 82 73 -3 100 -9 120 -24z m881 5 c17 -46 -2 -58 -89
-58 -70 0 -81 -2 -94 -22 -21 -30 -20 -44 4 -68 15 -15 33 -20 69 -20 64 0
111 -31 131 -88 20 -57 0 -116 -49 -150 -31 -20 -45 -22 -130 -20 l-96 3 0 30
0 30 88 5 c78 4 91 8 108 29 10 13 19 29 19 36 0 24 -37 44 -95 51 -51 6 -65
13 -97 44 -32 32 -38 44 -38 81 0 55 30 105 73 124 18 8 66 14 110 15 72 0 78
-2 86 -22z m291 -12 c0 -31 -4 -35 -32 -41 -74 -16 -118 -72 -118 -150 0 -85
50 -145 127 -152 75 -6 136 42 152 120 6 27 11 32 40 35 l34 3 -5 -51 c-10
-104 -100 -183 -207 -183 -166 0 -270 179 -192 331 36 69 108 122 169 122 30
0 32 -2 32 -34z m553 21 c114 -48 175 -186 131 -293 -51 -124 -206 -185 -320
-126 -89 45 -144 150 -128 241 13 74 76 153 144 180 37 14 136 13 173 -2z
m-3178 -483 c9 -9 14 -23 11 -30 -3 -8 -1 -25 4 -39 8 -21 6 -27 -15 -41 -13
-8 -38 -14 -57 -12 -32 3 -33 4 -36 57 -2 29 -1 60 2 67 7 19 71 18 91 -2z
m160 6 c3 -5 -3 -10 -14 -10 -30 0 -51 -11 -51 -26 0 -8 10 -14 25 -14 14 0
25 -4 25 -10 0 -5 -12 -10 -26 -10 -19 0 -25 -4 -22 -17 2 -12 13 -18 31 -18
39 0 38 -19 -1 -23 -48 -5 -62 12 -62 73 0 28 3 55 7 58 10 11 81 8 88 -3z
m146 0 c13 -7 19 -20 17 -38 -1 -15 2 -33 6 -40 21 -35 -71 -71 -102 -40 -13
13 -17 110 -5 121 10 11 62 8 84 -3z m264 -15 c14 -13 25 -33 25 -45 0 -33
-44 -70 -83 -70 -23 0 -37 6 -41 16 -8 21 -8 109 1 117 16 17 75 6 98 -18z
m303 8 c2 -8 -6 -13 -22 -13 -32 0 -34 -17 -3 -29 13 -5 29 -16 36 -25 12 -14
11 -19 -4 -36 -18 -20 -41 -25 -69 -14 -28 11 -17 24 19 24 44 0 45 12 3 31
-36 15 -47 41 -27 65 14 17 61 15 67 -3z m-468 -54 c0 -81 -24 -77 -28 4 -2
46 0 57 13 57 12 0 15 -13 15 -61z m326 6 c29 -66 31 -84 6 -62 -10 10 -31 17
-47 17 -16 0 -37 -7 -47 -17 -25 -22 -23 -4 6 62 16 34 31 55 41 55 10 0 25
-21 41 -55z"/>
<path d="M1238 9007 c-55 -16 -121 -59 -149 -98 -44 -62 -59 -111 -59 -200 0
-76 4 -93 31 -147 53 -107 136 -156 264 -156 65 -1 89 4 129 23 107 53 166
152 166 281 0 127 -59 229 -162 279 -57 27 -157 35 -220 18z"/>
<path d="M3603 8779 c-141 -41 -165 -291 -36 -370 47 -29 132 -32 181 -6 102
54 124 247 38 333 -47 47 -114 63 -183 43z"/>
<path d="M5825 8500 c-3 -5 -1 -10 4 -10 6 0 11 5 11 10 0 6 -2 10 -4 10 -3 0
-8 -4 -11 -10z"/>
<path d="M750 7410 l0 -560 425 0 425 0 0 125 0 125 -265 0 -265 0 0 435 0
435 -160 0 -160 0 0 -560z"/>
<path d="M1924 7715 c-289 -63 -438 -358 -314 -622 124 -266 544 -338 782
-134 50 43 115 141 124 187 7 37 24 56 24 27 0 -38 61 -145 110 -193 177 -172
514 -186 685 -29 40 37 93 116 83 123 -2 2 -54 29 -117 62 -74 39 -115 55
-118 47 -19 -54 -100 -103 -168 -103 -103 0 -176 74 -183 185 -7 104 27 172
102 206 81 37 185 11 229 -57 12 -19 25 -34 30 -34 15 0 227 111 227 119 0 22
-70 109 -115 143 -199 150 -567 95 -703 -105 -16 -23 -38 -67 -50 -97 -16 -44
-22 -51 -27 -35 -58 167 -177 273 -350 310 -85 18 -169 18 -251 0z m199 -239
c44 -18 95 -78 103 -121 3 -19 4 -64 2 -100 -3 -53 -9 -71 -34 -102 -44 -55
-87 -75 -156 -70 -104 6 -168 83 -168 202 0 64 23 127 56 157 54 48 133 61
197 34z"/>
<path d="M1980 7442 c-47 -25 -80 -90 -80 -157 0 -108 68 -180 163 -172 89 8
137 69 137 172 0 104 -48 164 -137 172 -34 3 -58 -1 -83 -15z"/>
<path d="M3744 7715 c-290 -63 -438 -357 -314 -622 156 -334 726 -333 884 1
81 170 43 384 -89 505 -121 110 -305 155 -481 116z m199 -239 c39 -16 82 -61
96 -99 15 -40 14 -151 -3 -190 -58 -139 -264 -141 -327 -3 -36 79 -17 209 37
258 54 48 133 61 197 34z"/>
<path d="M3800 7442 c-47 -25 -80 -90 -80 -157 0 -107 68 -180 161 -172 90 8
139 69 139 174 0 101 -49 162 -137 170 -34 3 -58 -1 -83 -15z"/>
<path d="M2955 7446 c-61 -27 -95 -85 -95 -162 0 -58 20 -103 59 -137 67 -56
154 -45 219 28 22 25 47 45 56 45 9 0 54 -20 99 -45 l84 -45 -15 68 c-13 63
-12 121 4 201 l7 33 -92 -47 -92 -46 -47 50 c-66 70 -120 87 -187 57z"/>
<path d="M6245 6079 c-4 -6 -5 -12 -2 -15 2 -3 7 2 10 11 7 17 1 20 -8 4z"/>
<path d="M6143 5995 c0 -22 2 -30 4 -17 2 12 2 30 0 40 -3 9 -5 -1 -4 -23z"/>
<path d="M6221 6004 c0 -11 3 -14 6 -6 3 7 2 16 -1 19 -3 4 -6 -2 -5 -13z"/>
<path d="M6212 5945 c0 -16 2 -22 5 -12 2 9 2 23 0 30 -3 6 -5 -1 -5 -18z"/>
<path d="M6277 5941 c-4 -17 -3 -21 5 -13 5 5 8 16 6 23 -3 8 -7 3 -11 -10z"/>
<path d="M5865 5761 c-121 -20 -194 -52 -272 -119 -51 -43 -69 -82 -38 -82 8
0 23 -9 32 -20 10 -11 21 -20 26 -20 11 0 68 -41 89 -65 23 -27 24 -138 2
-180 -52 -98 -66 -158 -68 -275 -1 -71 -6 -123 -14 -137 -14 -25 -8 -201 8
-217 6 -6 10 -29 10 -52 0 -24 5 -55 11 -71 6 -15 11 -49 10 -75 -1 -36 4 -53
24 -76 19 -23 30 -56 45 -139 25 -132 34 -164 71 -228 37 -67 82 -109 151
-140 166 -76 376 -15 473 136 29 45 88 233 111 354 11 52 27 103 40 123 25 37
40 108 29 141 -5 16 0 27 18 41 26 20 42 60 25 60 -6 0 -7 8 -3 18 15 37 35
126 31 136 -2 6 -9 -2 -15 -18 -9 -23 -14 -27 -24 -17 -9 9 -8 19 6 42 17 30
17 31 -3 36 -16 4 -18 8 -9 19 7 8 20 12 30 9 22 -7 23 -2 9 26 -9 16 -7 19
15 19 46 0 151 56 214 114 52 48 64 55 81 46 20 -10 20 -7 20 170 0 179 0 180
-22 180 -12 0 -35 12 -51 28 l-28 27 15 -30 c41 -79 44 -207 6 -291 -29 -66
-101 -137 -173 -170 -56 -26 -72 -29 -172 -29 -93 0 -118 3 -159 23 -100 46
-170 124 -201 225 -13 40 -14 40 -14 11 -1 -17 -10 -39 -20 -48 -22 -20 -115
-51 -185 -61 -46 -7 -48 -7 -41 14 5 16 2 21 -13 21 -11 0 -25 7 -32 15 -11
13 -10 21 7 43 11 15 23 37 27 49 7 22 51 63 67 63 5 0 9 -7 9 -15 0 -19 24
-19 40 -1 8 11 30 14 78 13 l67 -2 6 46 c13 91 91 199 169 234 42 19 52 35 22
35 -10 0 -22 4 -28 9 -5 5 -43 19 -84 31 -59 18 -106 23 -225 26 -82 1 -172
-1 -200 -5z m313 -25 c88 -10 118 -18 134 -33 19 -20 19 -20 -6 -44 -14 -13
-26 -30 -26 -37 0 -9 -21 -12 -79 -11 -43 1 -83 4 -88 8 -5 3 -22 27 -37 54
-15 26 -29 47 -31 47 -2 0 -1 -15 2 -34 5 -33 5 -34 -43 -45 -34 -8 -64 -9
-100 -2 -65 13 -134 34 -134 42 0 13 37 37 68 44 32 7 33 6 23 -14 -14 -25
-12 -25 25 -6 33 17 78 20 69 5 -3 -5 -17 -10 -31 -10 -15 0 -24 -6 -24 -15 0
-18 41 -20 71 -5 15 9 19 7 19 -5 0 -20 20 -15 34 8 14 22 -2 49 -35 58 -43
12 69 9 189 -5z m182 -40 c0 -3 -4 -8 -10 -11 -5 -3 -10 -1 -10 4 0 6 5 11 10
11 6 0 10 -2 10 -4z m-190 -562 c0 -8 4 -14 8 -14 19 0 -5 -91 -27 -105 -6 -3
-12 0 -12 7 -2 16 -17 -69 -18 -99 -1 -34 18 -28 34 10 27 64 162 171 173 138
2 -6 9 -11 16 -11 6 0 28 -11 48 -25 20 -14 44 -25 52 -25 8 0 23 -9 33 -19
10 -11 31 -21 48 -23 27 -3 30 -7 37 -50 5 -27 4 -57 -2 -72 -8 -22 -16 -26
-50 -26 -22 0 -40 4 -40 10 0 5 -23 35 -52 65 -39 42 -58 55 -80 55 -17 0 -28
5 -28 14 0 30 93 28 117 -3 7 -9 13 -11 13 -5 0 21 -49 57 -79 56 -97 -3 -174
-59 -210 -156 -11 -31 -21 -63 -21 -72 0 -13 -3 -13 -29 0 -15 8 -40 17 -54
20 -41 7 -47 14 -47 52 0 23 -11 51 -30 79 -50 73 -33 122 46 129 34 3 39 7
39 29 1 34 11 43 31 26 14 -11 17 -10 25 4 6 9 17 17 24 17 8 0 15 5 15 11 0
5 5 7 10 4 6 -3 10 -13 10 -21z m-410 -20 c14 -35 13 -44 -5 -44 -18 0 -37 34
-29 54 9 24 23 19 34 -10z m41 9 c13 -16 12 -17 -3 -4 -10 7 -18 15 -18 17 0
8 8 3 21 -13z m53 -156 c29 -38 34 -56 11 -37 -8 7 -41 15 -73 19 l-57 6 23
23 c32 32 66 28 96 -11z m532 -81 c21 -21 34 -44 34 -60 0 -28 -14 -35 -24
-11 -3 9 -19 15 -41 15 -28 0 -38 -5 -47 -24 -12 -28 -31 -38 -54 -29 -25 9
-9 53 33 91 31 27 33 32 16 32 -11 0 -38 -12 -59 -26 -27 -19 -34 -21 -24 -8
48 61 117 69 166 20z m-541 -6 c4 -6 -7 -10 -27 -10 -19 0 -44 -7 -57 -16 -22
-16 -23 -16 -12 4 6 11 16 23 23 25 23 9 67 7 73 -3z m63 -65 c27 -32 22 -44
-19 -43 -21 1 -37 -6 -48 -20 -14 -19 -19 -20 -41 -9 -20 11 -25 20 -23 47 1
20 9 40 20 48 26 20 84 8 111 -23z m636 -11 c9 -3 16 -10 16 -14 0 -8 -58 4
-68 15 -7 7 33 6 52 -1z m-36 -25 c17 -6 33 -17 36 -25 3 -8 3 -14 1 -14 -12
0 -75 35 -75 42 0 10 1 10 38 -3z m-413 -16 c29 -14 35 -21 29 -38 -13 -39
-16 -117 -5 -128 17 -17 13 -25 -19 -42 -69 -36 -130 -1 -130 74 0 30 5 39 31
54 17 9 43 17 59 17 40 0 48 19 11 26 -17 4 -31 11 -31 16 0 5 9 7 19 3 11 -3
22 -1 26 5 3 5 -1 10 -9 10 -8 0 -18 5 -21 10 -9 14 -1 13 40 -7z m392 -53
c45 -33 50 -32 32 3 -7 15 -2 13 15 -8 30 -35 34 -87 11 -131 -8 -16 -15 -41
-15 -56 0 -22 -7 -29 -36 -38 -53 -18 -184 4 -184 30 0 16 44 18 66 3 23 -15
24 -14 24 9 0 32 -41 53 -71 37 -33 -17 -74 -13 -107 11 -74 55 -12 151 108
169 73 11 111 4 157 -29z m143 -19 c-12 -24 -30 -28 -30 -6 0 13 31 38 38 30
2 -2 -1 -13 -8 -24z m-710 -22 c0 -11 -7 -45 -15 -74 -14 -45 -21 -55 -55 -70
-33 -15 -43 -15 -67 -5 -30 13 -30 14 -36 125 -2 29 0 30 40 30 23 1 45 4 49
8 4 4 25 7 46 7 32 0 38 -3 38 -21z m282 -212 c14 -13 54 -34 89 -47 35 -13
70 -30 77 -38 11 -14 13 -14 25 0 9 13 116 42 124 34 1 -1 -2 -19 -7 -41 -6
-22 -14 -69 -20 -105 -14 -85 -56 -192 -91 -231 -16 -18 -30 -36 -32 -42 -1
-5 -14 -11 -27 -12 -36 -4 -35 -3 -60 -25 -19 -17 -34 -19 -109 -16 -74 3 -93
7 -129 30 -61 39 -81 61 -75 85 6 24 26 31 89 35 64 4 92 29 152 142 65 123
74 143 66 155 -3 5 -33 23 -67 40 -74 37 -71 35 -62 48 10 17 30 13 57 -12z
m-132 -26 c0 -5 -12 -11 -27 -13 -16 -3 -37 -9 -48 -13 -12 -5 -17 -4 -12 1 8
8 63 32 80 33 4 1 7 -3 7 -8z m55 -1 c13 -6 15 -9 5 -9 -8 0 -22 4 -30 9 -18
12 -2 12 25 0z m-246 -84 c-13 -28 -24 -33 -34 -16 -6 9 36 53 43 45 1 -1 -3
-14 -9 -29z m119 -131 c-3 -3 -9 2 -12 12 -6 14 -5 15 5 6 7 -7 10 -15 7 -18z
m97 -56 c28 0 28 -1 8 -9 -16 -7 -31 -4 -53 8 -16 9 -30 21 -30 25 0 5 10 1
22 -7 12 -9 36 -16 53 -17z m65 27 c0 -2 -8 -10 -17 -17 -16 -13 -17 -12 -4 4
13 16 21 21 21 13z"/>
<path d="M6341 4293 c-5 -21 -14 -67 -21 -103 -6 -36 -18 -82 -26 -103 -19
-50 -17 -57 6 -28 11 13 20 32 20 42 0 10 11 62 25 115 28 108 29 114 15 114
-5 0 -13 -17 -19 -37z"/>
<path d="M6432 4310 c-6 -14 -20 -68 -32 -120 -12 -52 -31 -112 -41 -132 -22
-44 -23 -48 -6 -48 19 0 53 85 77 197 22 101 23 152 2 103z"/>
<path d="M6522 5519 c-21 -6 -41 -24 -58 -49 -58 -87 -34 -203 48 -240 74 -34
108 -22 73 24 -17 22 -20 121 -6 159 13 33 84 46 112 21 25 -22 24 -7 -1 34
-33 53 -95 72 -168 51z"/>
<path d="M5986 5361 c-4 -5 -2 -12 3 -15 5 -4 12 -2 15 3 4 5 2 12 -3 15 -5 4
-12 2 -15 -3z"/>
<path d="M5310 4935 c0 -43 1 -45 38 -53 53 -13 102 -14 102 -2 0 5 7 10 15
10 8 0 15 -4 15 -9 0 -5 9 -7 20 -4 23 6 22 28 -1 29 -37 1 -69 24 -69 49 0
16 -6 25 -15 25 -11 0 -15 -11 -15 -40 0 -22 -4 -40 -10 -40 -5 0 -10 9 -10
20 0 11 -5 20 -11 20 -6 0 -8 -9 -4 -20 5 -15 2 -20 -10 -20 -14 0 -16 8 -13
38 2 31 0 38 -14 39 -15 2 -18 -6 -18 -42z m116 -52 c-11 -11 -19 6 -11 24 8
17 8 17 12 0 3 -10 2 -21 -1 -24z"/>
<path d="M5290 4775 c0 -30 16 -33 23 -6 3 12 -1 22 -9 25 -10 4 -14 -2 -14
-19z"/>
<path d="M5340 4771 c0 -15 29 -33 45 -27 19 7 19 22 -1 30 -8 3 -12 2 -9 -3
3 -5 1 -12 -5 -16 -5 -3 -10 1 -10 9 0 9 -4 16 -10 16 -5 0 -10 -4 -10 -9z"/>
<path d="M5456 4735 c-9 -26 -7 -32 5 -12 6 10 9 21 6 23 -2 3 -7 -2 -11 -11z"/>
<path d="M6752 4700 c0 -14 2 -19 5 -12 2 6 2 18 0 25 -3 6 -5 1 -5 -13z"/>
<path d="M6850 4680 c0 -5 5 -10 11 -10 5 0 7 5 4 10 -3 6 -8 10 -11 10 -2 0
-4 -4 -4 -10z"/>
<path d="M6880 4654 c0 -14 3 -14 15 -4 8 7 15 14 15 16 0 2 -7 4 -15 4 -8 0
-15 -7 -15 -16z"/>
<path d="M5307 4636 c-6 -16 2 -28 14 -20 12 7 11 34 0 34 -5 0 -11 -6 -14
-14z"/>
<path d="M5390 4621 c0 -6 5 -13 10 -16 6 -3 10 1 10 9 0 9 -4 16 -10 16 -5 0
-10 -4 -10 -9z"/>
<path d="M5345 4610 c3 -5 11 -10 16 -10 6 0 7 5 4 10 -3 6 -11 10 -16 10 -6
0 -7 -4 -4 -10z"/>
<path d="M5470 4590 c0 -19 3 -21 12 -12 9 9 9 15 0 24 -9 9 -12 7 -12 -12z"/>
<path d="M5507 4574 c-4 -4 -7 -14 -7 -23 0 -11 3 -12 11 -4 6 6 10 16 7 23
-2 6 -7 8 -11 4z"/>
<path d="M6860 4535 c0 -8 5 -15 10 -15 6 0 10 7 10 15 0 8 -4 15 -10 15 -5 0
-10 -7 -10 -15z"/>
<path d="M6725 4439 c-4 -5 -14 -9 -23 -8 -49 4 -59 -16 -13 -26 33 -7 56 -29
47 -44 -3 -5 0 -11 7 -14 10 -4 13 1 10 16 -2 12 3 31 11 42 15 20 15 20 16
-2 0 -13 4 -23 10 -23 5 0 7 6 4 14 -6 16 12 31 20 18 3 -5 1 -23 -3 -40 -8
-27 -7 -30 10 -29 15 1 19 9 19 44 0 36 -3 43 -22 47 -65 13 -88 14 -93 5z
m25 -19 c0 -5 -4 -10 -10 -10 -5 0 -10 5 -10 10 0 6 5 10 10 10 6 0 10 -4 10
-10z"/>
<path d="M2422 5829 c-74 -22 -78 -125 -6 -155 43 -18 75 -18 124 2 54 22 80
60 80 118 l0 46 -82 -1 c-46 0 -98 -5 -116 -10z"/>
<path d="M9717 5402 c-15 -37 -27 -71 -27 -75 0 -4 25 -7 55 -7 30 0 55 4 55
8 0 8 -49 134 -54 140 -2 1 -15 -28 -29 -66z"/>
<path d="M8410 5445 l0 -75 59 0 c77 0 111 24 111 79 0 56 -22 71 -103 71
l-67 0 0 -75z"/>
<path d="M9360 3889 c-33 -13 -68 -47 -88 -84 -22 -43 -20 -134 4 -176 68
-116 262 -113 318 5 24 52 21 145 -7 187 -42 64 -153 97 -227 68z"/>
<path d="M8302 2794 c-16 -11 -22 -25 -22 -54 0 -62 54 -90 101 -52 44 37 16
122 -40 122 -9 0 -27 -7 -39 -16z"/>
<path d="M9038 2761 c-35 -28 -48 -84 -47 -202 1 -117 13 -164 52 -193 36 -26
74 -14 101 34 17 28 22 57 24 140 5 119 -8 181 -43 216 -29 29 -54 30 -87 5z"/>
<path d="M9788 2761 c-35 -28 -48 -84 -47 -202 1 -117 13 -164 52 -193 36 -26
74 -14 101 34 17 28 22 57 24 140 5 119 -8 181 -43 216 -29 29 -54 30 -87 5z"/>
<path d="M8279 2461 c-17 -18 -29 -40 -29 -56 0 -35 50 -85 85 -85 33 0 81 24
89 45 17 46 4 91 -35 110 -43 23 -77 18 -110 -14z"/>
<path d="M5765 1436 c-37 -16 -82 -68 -91 -102 -17 -69 19 -144 88 -180 84
-44 198 21 213 121 9 59 -27 123 -85 153 -50 25 -81 27 -125 8z m85 -121 c20
-25 8 -50 -25 -50 -21 0 -31 5 -33 18 -4 21 14 47 33 47 7 0 18 -7 25 -15z"/>
<path d="M4484 1431 c-59 -27 -89 -74 -89 -138 0 -114 117 -186 221 -137 77
36 109 146 62 213 -51 74 -120 97 -194 62z m90 -117 c21 -21 3 -57 -26 -52
-30 4 -45 32 -29 52 17 20 35 20 55 0z"/>
<path d="M5350 1430 c0 -6 7 -25 16 -41 12 -24 21 -30 41 -27 34 4 52 32 37
56 -13 20 -94 30 -94 12z"/>
<path d="M5314 1266 c-3 -7 -4 -38 -2 -67 l3 -54 57 -3 c65 -3 95 9 108 44 10
26 -2 73 -23 86 -22 14 -137 9 -143 -6z"/>
<path d="M7051 1428 c-58 -30 -83 -65 -88 -125 -4 -39 0 -55 19 -83 72 -106
194 -106 266 0 19 28 23 44 19 83 -10 114 -118 176 -216 125z m87 -107 c8 -4
12 -19 10 -32 -4 -29 -45 -34 -61 -7 -19 30 19 60 51 39z"/>
<path d="M3961 1011 c-17 -11 -5 -31 19 -31 24 0 36 20 19 31 -8 5 -16 9 -19
9 -3 0 -11 -4 -19 -9z"/>
<path d="M3955 950 c-4 -7 -3 -16 3 -22 14 -14 65 -1 59 15 -5 16 -53 21 -62
7z"/>
<path d="M4270 1010 c-11 -7 -12 -12 -3 -21 15 -15 48 -7 48 11 0 18 -24 24
-45 10z"/>
<path d="M4265 950 c-4 -7 -3 -16 3 -22 14 -14 65 -1 59 15 -5 16 -53 21 -62
7z"/>
<path d="M4514 1006 c-3 -8 -4 -27 -2 -43 2 -20 9 -29 26 -31 49 -7 70 44 30
72 -28 20 -47 20 -54 2z"/>
<path d="M4707 993 c-12 -12 -7 -33 8 -33 17 0 19 9 7 28 -5 7 -11 9 -15 5z"/>
</g>
</svg>
