<?xml version="1.0" standalone="no"?>
<!DOCTYPE svg PUBLIC "-//W3C//DTD SVG 20010904//EN"
 "http://www.w3.org/TR/2001/REC-SVG-20010904/DTD/svg10.dtd">
<svg version="1.0" xmlns="http://www.w3.org/2000/svg"
 width="1080.000000pt" height="1080.000000pt" viewBox="0 0 1080.000000 1080.000000"
 preserveAspectRatio="xMidYMid meet">

<g transform="translate(0.000000,1080.000000) scale(0.100000,-0.100000)"
fill="#000000" stroke="none">
<path d="M0 5400 l0 -5400 1528 0 c1497 0 1529 1 1642 21 205 36 239 40 259
27 17 -10 17 -13 3 -27 -14 -15 62 -16 848 -19 475 -1 866 1 869 4 3 3 7 234
8 512 0 279 2 554 4 612 2 98 3 101 9 40 3 -36 4 -314 3 -617 l-3 -553 2815 0
2815 0 0 5400 0 5400 -5400 0 -5400 0 0 -5400z m5620 4241 c241 -82 418 -237
530 -466 71 -144 92 -230 97 -405 5 -171 -13 -278 -72 -415 -34 -78 -35 -85
-22 -112 46 -87 20 -203 -62 -283 -64 -63 -155 -87 -225 -60 -20 7 -35 5 -65
-11 -21 -11 -56 -22 -77 -26 -22 -3 -75 -17 -119 -31 -73 -24 -96 -26 -271
-28 -116 -1 -200 -6 -212 -13 -11 -6 -37 -11 -57 -11 -45 0 -95 45 -95 84 0
20 -14 35 -74 75 -187 126 -325 322 -388 548 -19 66 -22 104 -22 253 0 149 3
187 22 253 81 291 287 528 547 628 128 50 185 59 335 55 121 -3 145 -6 230
-35z m-550 -2166 c-23 -24 -43 -35 -62 -35 -32 0 -35 10 -12 45 13 21 24 25
62 25 l46 0 -34 -35z m-543 -99 c12 -15 23 -38 23 -52 0 -21 -5 -24 -34 -24
-26 0 -36 5 -41 20 -10 33 -42 44 -71 25 -22 -14 -24 -22 -24 -85 0 -49 4 -73
16 -84 26 -27 64 -19 77 17 4 12 17 17 42 17 30 0 35 -3 35 -24 0 -33 -44 -73
-90 -81 -52 -9 -103 9 -135 46 -22 27 -25 40 -25 102 0 54 5 80 20 105 26 42
52 53 124 49 50 -3 63 -8 83 -31z m143 -75 c0 -119 9 -141 55 -141 42 0 55 34
55 147 l0 103 35 0 35 0 0 -124 0 -124 -30 -25 c-36 -30 -79 -41 -127 -32 -85
16 -103 51 -103 201 l0 104 40 0 40 0 0 -109z m435 -38 c27 -82 48 -150 47
-153 -1 -3 -19 -5 -39 -5 -33 0 -38 3 -47 33 -8 29 -12 32 -50 32 -39 0 -43
-3 -55 -35 -11 -30 -17 -35 -45 -35 -18 0 -35 3 -39 6 -3 3 18 73 46 155 l52
149 40 0 40 0 50 -147z m155 22 l0 -125 70 0 70 0 0 -30 0 -30 -105 0 -105 0
0 155 0 155 35 0 35 0 0 -125z m510 100 c0 -24 -2 -25 -70 -25 l-70 0 0 -35 0
-35 61 0 c60 0 60 0 57 -27 -3 -27 -6 -28 -60 -31 l-58 -3 0 -34 0 -35 70 0
70 0 0 -30 0 -30 -105 0 -105 0 0 155 0 155 105 0 105 0 0 -25z m241 -4 c16
-16 29 -39 29 -50 0 -31 -56 -29 -86 4 -27 29 -33 30 -59 11 -28 -20 -12 -42
44 -61 75 -25 101 -49 101 -95 0 -29 -6 -43 -25 -59 -74 -58 -215 -23 -215 54
0 22 4 25 35 25 19 0 35 -4 35 -9 0 -35 67 -54 90 -26 18 22 0 39 -70 64 -93
34 -116 87 -61 142 26 26 36 29 91 29 55 0 65 -3 91 -29z m399 4 c0 -24 -2
-25 -70 -25 l-70 0 0 -35 0 -35 61 0 c60 0 60 0 57 -27 -3 -27 -6 -28 -60 -31
l-58 -3 0 -34 0 -35 70 0 70 0 0 -30 0 -30 -105 0 -105 0 0 155 0 155 105 0
105 0 0 -25z m120 -100 l0 -125 70 0 70 0 0 -30 0 -30 -105 0 -105 0 0 155 0
155 35 0 35 0 0 -125z m-2310 30 c0 -22 -4 -25 -40 -25 -36 0 -40 3 -40 25 0
23 4 25 40 25 36 0 40 -2 40 -25z m-2 -76 c2 -9 -15 -38 -38 -64 -43 -50 -48
-80 -17 -99 14 -9 21 -7 31 7 15 19 86 25 86 6 0 -70 -127 -103 -185 -49 -47
44 -42 99 14 157 17 18 31 40 31 49 0 22 74 16 78 -7z m-127 -378 c31 -32 39
-84 18 -123 -14 -26 -68 -48 -119 -48 l-40 0 0 -55 0 -55 -35 0 -35 0 0 155 0
155 91 0 c87 0 92 -1 120 -29z m149 -80 c0 -119 9 -141 55 -141 42 0 55 34 55
147 l0 103 35 0 35 0 0 -124 0 -124 -30 -26 c-58 -48 -150 -44 -201 10 -22 24
-24 34 -27 145 l-4 119 41 0 41 0 0 -109z m358 21 l52 -87 0 88 0 87 40 0 40
0 0 -155 0 -155 -37 0 c-37 0 -39 2 -93 91 l-55 91 -3 -91 -3 -91 -34 0 -35 0
0 155 0 155 38 0 c36 0 39 -3 90 -88z m412 63 c0 -23 -4 -25 -45 -25 l-44 0
-3 -127 -3 -128 -37 -3 -38 -3 0 130 0 131 -45 0 c-41 0 -45 2 -45 25 l0 25
130 0 130 0 0 -25z m247 -9 c36 -32 38 -37 41 -108 3 -64 1 -77 -20 -108 -46
-68 -147 -78 -211 -21 -29 26 -32 35 -35 102 -7 117 34 168 136 169 46 0 57
-4 89 -34z m281 -118 l-3 -153 -37 -3 -38 -3 0 155 0 156 40 0 41 0 -3 -152z
m250 132 c81 -50 83 -214 4 -266 -18 -12 -54 -19 -109 -22 l-83 -5 0 157 0
156 78 0 c60 0 84 -5 110 -20z m322 -5 c0 -24 -2 -25 -70 -25 l-70 0 0 -35 0
-35 61 0 c60 0 60 0 57 -27 -3 -27 -6 -28 -60 -31 l-58 -3 0 -34 0 -34 68 -3
c64 -3 67 -4 67 -28 0 -25 -1 -25 -102 -28 l-103 -3 0 156 0 155 105 0 105 0
0 -25z m243 -118 c26 -78 47 -148 47 -155 0 -9 -12 -12 -37 -10 -33 3 -39 7
-47 36 -8 30 -12 32 -52 32 -40 0 -43 -2 -54 -35 -10 -30 -16 -35 -44 -35 -18
0 -35 3 -38 6 -3 3 17 72 45 155 l52 149 40 0 41 0 47 -143z m147 18 l0 -125
70 0 70 0 0 -30 0 -30 -105 0 -105 0 0 155 0 155 35 0 35 0 0 -125z m341 96
c42 -43 39 -80 -11 -135 -22 -24 -40 -48 -40 -55 0 -6 -16 -11 -35 -11 -31 0
-35 3 -35 25 0 15 14 38 35 59 37 38 44 66 21 85 -12 10 -19 8 -35 -8 -13 -13
-34 -21 -57 -21 -32 0 -35 2 -29 23 12 42 52 67 106 67 42 0 55 -5 80 -29z
m-51 -251 c0 -28 -3 -30 -35 -30 -32 0 -35 2 -35 30 0 28 3 30 35 30 32 0 35
-2 35 -30z m-1100 -595 c0 -91 -2 -105 -16 -105 -15 0 -16 12 -12 94 5 84 11
116 24 116 2 0 4 -47 4 -105z m-648 -41 c2 -42 -1 -68 -8 -71 -13 -4 -29 181
-17 200 10 16 22 -46 25 -129z m211 -97 c-6 -7 -13 -21 -17 -31 -5 -16 -4 -17
9 -6 12 10 15 10 15 -1 0 -25 -16 -40 -36 -33 -14 4 -15 3 -6 -4 11 -7 8 -16
-11 -46 -15 -21 -23 -44 -20 -56 3 -11 1 -20 -5 -20 -15 0 -20 -59 -6 -71 23
-19 34 1 34 66 0 56 3 66 25 83 14 11 25 24 24 29 -4 21 2 33 16 33 13 0 14
-4 5 -22 -7 -14 5 -6 29 19 23 23 41 51 41 62 0 26 13 33 33 18 15 -11 15 -15
2 -41 -8 -15 -15 -31 -15 -35 0 -10 50 -30 55 -21 3 5 -1 10 -7 13 -18 5 5 33
33 40 19 5 19 4 6 -11 -8 -9 -12 -23 -10 -30 6 -17 -27 -42 -45 -34 -11 4 -10
-2 3 -22 19 -28 13 -48 -7 -28 -19 19 -26 15 -52 -26 -28 -45 -41 -97 -26
-107 15 -9 2 -25 -21 -25 -16 0 -19 -8 -20 -47 -1 -27 0 -56 1 -67 1 -10 -3
-16 -8 -12 -5 3 -13 40 -17 83 -4 42 -10 86 -15 97 -6 17 -8 13 -14 -18 -5
-28 -4 -41 6 -47 10 -7 9 -9 -4 -9 -10 0 -18 -2 -18 -4 0 -2 -3 -11 -6 -20 -4
-11 -1 -16 11 -16 12 0 15 -5 10 -20 -4 -11 -2 -20 4 -20 6 0 8 -7 5 -15 -4
-8 -10 -15 -14 -15 -11 0 -33 97 -27 120 3 11 1 20 -4 20 -5 0 -11 -12 -15
-27 -10 -48 -13 -53 -32 -53 -15 0 -18 -6 -14 -32 2 -18 9 -39 14 -45 6 -7 8
-20 4 -29 -3 -8 -1 -24 4 -35 21 -39 -1 -17 -39 40 -22 32 -47 66 -56 74 -10
10 -11 17 -4 19 8 3 6 10 -5 21 -23 22 -12 60 14 52 12 -4 19 1 24 17 16 61
-4 72 -37 20 -16 -23 -17 -24 -12 -4 4 12 3 22 -2 22 -14 -1 -45 -50 -40 -64
3 -8 -1 -13 -11 -12 -11 1 -16 -5 -14 -16 2 -12 -2 -16 -13 -12 -9 4 -15 1
-15 -8 0 -22 12 -29 27 -17 10 9 13 8 13 -4 0 -8 6 -17 13 -20 9 -3 12 5 9 30
-4 32 -3 34 15 23 10 -7 19 -20 19 -29 0 -9 3 -36 7 -61 7 -43 6 -44 -8 -20
-16 25 -16 24 -13 -18 3 -33 0 -43 -14 -48 -14 -4 -16 -12 -11 -32 6 -24 5
-26 -10 -13 -19 15 -23 57 -6 63 9 3 9 17 -1 56 -11 49 -30 71 -30 36 0 -8 -4
-12 -10 -9 -5 3 -10 15 -10 26 0 10 -4 19 -9 19 -11 0 -23 -92 -15 -114 3 -9
2 -16 -4 -16 -15 0 -19 29 -17 118 2 69 0 80 -11 71 -8 -6 -14 -29 -14 -51 0
-41 -22 -50 -28 -12 -6 29 -22 42 -22 17 0 -12 5 -25 10 -28 6 -3 10 -15 10
-26 0 -11 4 -18 9 -15 5 3 15 -1 22 -10 11 -14 9 -19 -11 -34 -21 -16 -22 -20
-10 -36 11 -12 12 -18 3 -21 -8 -3 -10 -22 -6 -61 6 -54 5 -56 -11 -39 -20 20
-30 22 -23 5 2 -7 7 -24 11 -38 7 -24 7 -24 -17 5 -58 69 -34 -9 30 -96 20
-29 33 -58 33 -78 0 -31 -14 -42 -23 -18 -2 6 -8 8 -13 4 -5 -5 -1 -13 9 -18
21 -12 22 -29 3 -29 -10 0 -16 -13 -18 -37 l-3 -38 -44 2 c-25 2 -49 7 -55 13
-16 16 -36 12 -29 -6 5 -13 2 -15 -15 -9 -18 5 -22 2 -22 -14 0 -14 -6 -21
-19 -21 -11 0 -22 -4 -25 -9 -9 -14 -58 -20 -53 -7 3 6 -7 20 -20 30 l-25 19
7 -31 c7 -32 -9 -77 -25 -67 -4 3 -6 15 -3 28 5 17 -2 14 -31 -18 -20 -22 -33
-31 -28 -20 6 11 15 32 23 47 7 16 9 31 6 34 -4 4 -11 -5 -16 -19 -6 -15 -16
-25 -23 -23 -7 1 -10 1 -7 -1 10 -6 -1 -43 -12 -43 -5 0 -9 9 -9 20 0 11 -4
20 -10 20 -5 0 -10 -5 -10 -11 0 -6 -8 -8 -18 -5 -19 6 -38 -19 -44 -59 -4
-24 -33 -32 -41 -10 -4 8 -2 26 3 40 12 31 -4 34 -20 4 -7 -11 -14 -18 -17
-15 -3 3 6 21 21 41 41 53 45 118 12 199 -26 66 -34 126 -17 126 5 0 12 -6 14
-12 3 -7 6 -3 6 10 1 22 21 32 21 10 0 -6 3 -9 6 -5 3 3 -1 16 -10 29 -22 31
-20 70 4 98 11 13 21 30 21 39 1 9 4 32 7 51 2 19 5 50 6 68 1 29 16 48 16 20
0 -6 10 -3 22 8 20 17 21 18 15 1 -20 -53 -38 -129 -34 -140 9 -24 55 117 62
191 5 47 37 164 58 212 10 24 11 24 14 3 2 -11 -8 -56 -23 -100 -16 -49 -26
-98 -26 -130 1 -29 -5 -71 -13 -94 -19 -52 -19 -65 -2 -51 7 6 19 42 26 79 25
131 29 143 56 143 19 0 27 -7 34 -32 l9 -33 1 32 c1 17 4 38 7 46 3 8 -2 22
-11 30 -16 17 -12 67 6 67 12 0 11 -17 -1 -25 -10 -6 -2 -35 10 -35 5 0 12 10
15 23 4 12 13 36 21 53 7 18 15 48 16 68 2 20 6 36 10 36 11 0 18 -51 14 -108
-3 -69 14 -85 44 -40 l22 33 -5 -40 c-3 -25 0 -45 8 -52 10 -9 12 -5 10 24 -4
36 12 83 27 83 4 0 8 8 8 18 0 10 9 28 20 40 20 22 28 58 10 47 -5 -3 -10 2
-10 11 0 16 1 16 20 -1 13 -12 20 -31 20 -53 0 -35 0 -35 20 -17 11 10 22 16
24 14 1 -2 9 -13 15 -24 11 -18 12 -16 7 14 -5 27 -3 32 10 27 10 -4 21 4 32
23 14 26 18 27 28 13 11 -15 14 -15 34 3 12 11 31 20 43 20 18 0 23 -7 27 -35
l5 -35 23 60 c13 33 25 67 28 75 5 13 6 13 14 -1 8 -14 6 -27 -15 -109 l-7
-25 21 25 c23 28 29 14 6 -16 -17 -22 -20 -54 -5 -54 9 0 14 14 11 33 -1 4 11
26 26 48 16 23 35 53 43 68 28 49 42 60 58 44 9 -9 11 -18 5 -26z m67 -12 c0
-8 -4 -15 -10 -15 -5 0 -7 7 -4 15 4 8 8 15 10 15 2 0 4 -7 4 -15z m207 -38
c-18 -28 -37 -64 -40 -78 -4 -14 -18 -37 -32 -51 -17 -18 -25 -36 -24 -59 0
-37 -9 -116 -16 -137 -12 -32 -25 5 -25 69 0 73 7 95 46 142 13 16 24 37 24
47 0 21 75 120 91 120 5 0 -6 -24 -24 -53z m120 29 c-15 -14 -39 -46 -53 -73
-15 -26 -36 -58 -47 -70 -19 -22 -31 -65 -43 -163 -6 -47 -28 -89 -41 -77 -3
4 0 19 8 33 15 29 13 82 -4 103 -9 10 -7 16 6 26 9 7 17 19 17 28 0 9 7 22 15
31 18 18 49 100 35 91 -17 -11 -11 5 16 41 15 19 29 32 32 29 3 -3 -3 -14 -13
-25 -35 -38 -7 -31 35 10 23 22 46 40 52 40 6 0 -1 -11 -15 -24z m-627 5 c0
-5 -7 -11 -14 -14 -10 -4 -13 -1 -9 9 6 15 23 19 23 5z m1050 -6 c0 -2 -9 -9
-20 -15 -16 -9 -18 -8 -14 5 5 13 34 22 34 10z m-395 -45 c-3 -5 -12 -10 -18
-10 -7 0 -6 4 3 10 19 12 23 12 15 0z m192 -15 c-11 -23 -27 -34 -27 -18 0 6
30 43 36 43 1 0 -3 -11 -9 -25z m233 6 c0 -6 -18 -20 -40 -32 -22 -13 -40 -29
-40 -36 0 -19 24 -16 45 7 18 20 35 26 35 13 0 -5 -14 -22 -30 -40 -31 -33
-40 -58 -17 -51 6 3 14 13 16 24 4 21 19 34 41 34 13 -1 13 -2 -1 -13 -21 -17
-32 -47 -16 -47 20 0 46 22 60 50 16 32 43 37 50 9 4 -13 11 -20 20 -16 11 4
13 -3 6 -36 -7 -43 -31 -69 -55 -60 -8 3 -14 0 -14 -6 0 -6 -7 -11 -15 -11
-11 0 -14 7 -9 24 10 40 -5 51 -32 25 -16 -15 -35 -22 -54 -21 -36 3 -70 -30
-63 -61 2 -12 -3 -7 -11 11 -18 39 -42 38 -39 -2 1 -14 -2 -26 -7 -26 -4 0
-13 -14 -19 -32 -8 -23 -14 -29 -22 -21 -8 8 -7 18 2 34 8 13 14 41 15 62 1
21 8 45 15 53 6 8 9 17 6 21 -10 9 -46 -39 -53 -69 -4 -16 -10 -28 -14 -28
-19 0 -42 -87 -40 -150 3 -83 2 -85 -13 -72 -9 8 -13 38 -11 104 1 81 5 100
28 142 55 99 60 111 63 134 1 12 -3 22 -9 22 -6 0 -8 -10 -4 -25 4 -14 2 -25
-4 -25 -5 0 -10 8 -10 18 0 14 -4 12 -20 -8 -15 -19 -22 -22 -31 -13 -7 7 -9
19 -4 30 5 12 9 14 12 6 7 -20 23 -15 23 7 0 20 27 40 55 40 11 0 15 -5 12
-14 -7 -18 18 -42 28 -26 3 5 12 10 20 10 7 0 39 15 71 34 64 37 74 41 74 27z
m-314 -50 c-23 -22 -28 -24 -36 -11 -8 12 -10 11 -10 -7 0 -12 -5 -25 -10 -28
-14 -8 -54 -86 -56 -106 -1 -9 -4 -20 -7 -26 -3 -5 -2 -15 3 -23 5 -9 4 -20
-3 -29 -9 -11 -9 -15 0 -18 8 -3 7 -10 -5 -24 -9 -10 -20 -19 -23 -19 -4 0 -8
30 -8 68 0 53 5 78 26 122 40 81 88 138 121 142 37 4 40 -9 8 -41z m-165 1
c-12 -23 -41 -48 -41 -35 0 5 7 19 16 31 19 27 39 30 25 4z m69 8 c0 -5 -4
-10 -10 -10 -5 0 -10 5 -10 10 0 6 5 10 10 10 6 0 10 -4 10 -10z m-1470 -59
c0 -5 -7 -12 -16 -15 -24 -9 -28 -7 -14 9 14 17 30 20 30 6z m175 -30 c-4 -17
-10 -31 -14 -31 -5 0 -3 15 3 34 13 42 21 39 11 -3z m265 9 c0 -5 -2 -10 -4
-10 -3 0 -8 5 -11 10 -3 6 -1 10 4 10 6 0 11 -4 11 -10z m1790 -19 c3 -4 17
-14 33 -24 18 -12 27 -26 27 -45 1 -27 1 -27 13 -4 10 16 16 19 24 11 6 -6 9
-18 6 -25 -9 -23 23 -6 36 19 9 16 10 17 6 3 -3 -11 0 -23 7 -28 11 -6 10 -10
-1 -17 -9 -6 -10 -11 -2 -15 6 -4 11 -2 11 5 0 9 3 9 14 0 10 -9 15 -8 20 4 3
8 0 15 -6 15 -9 0 -9 3 -1 11 19 19 68 -24 91 -78 24 -58 39 -178 23 -188 -6
-3 -8 -11 -5 -17 4 -6 1 -14 -6 -18 -9 -6 -8 -14 5 -34 10 -15 15 -29 11 -33
-3 -3 -1 -12 5 -19 7 -9 5 -16 -10 -26 -22 -16 -32 -59 -13 -65 6 -3 12 2 12
10 0 8 11 22 24 31 13 8 27 29 31 46 10 44 27 25 22 -26 -3 -41 -17 -75 -17
-43 0 11 -2 11 -10 -1 -11 -18 -13 -37 -3 -26 4 4 13 -13 19 -37 14 -57 5
-121 -19 -125 -9 -2 -17 1 -17 7 0 6 -4 11 -9 11 -4 0 -7 -21 -5 -46 3 -30 -1
-52 -11 -67 -16 -22 -16 -22 -10 4 4 15 2 30 -4 33 -7 5 -11 -2 -11 -18 0 -13
-5 -37 -12 -53 -9 -22 -12 -24 -15 -10 -3 9 -8 17 -13 17 -5 0 -13 -8 -19 -17
-7 -13 -8 -5 -4 27 4 34 13 52 38 75 28 25 33 35 28 62 l-5 33 -23 -33 c-12
-17 -27 -31 -34 -29 -7 1 -10 -2 -7 -7 4 -5 2 -12 -4 -16 -5 -3 -10 -1 -10 4
0 6 -5 11 -10 11 -6 0 -10 -6 -8 -12 3 -15 -52 -111 -59 -104 -3 3 4 17 14 33
27 39 36 90 18 97 -9 3 -15 0 -15 -9 0 -8 -9 -20 -21 -28 -13 -9 -16 -17 -10
-22 6 -3 11 -1 11 5 0 6 5 8 12 4 8 -5 6 -10 -5 -19 -9 -6 -28 -34 -42 -61
-25 -46 -26 -47 -22 -17 3 31 3 32 -15 16 -10 -9 -18 -13 -18 -9 0 10 32 70
40 76 4 3 22 33 39 68 17 34 36 60 40 57 25 -15 46 63 34 128 -4 22 -9 27 -24
22 -22 -7 -26 10 -4 19 17 6 20 42 5 51 -5 3 -10 14 -10 23 0 20 13 8 35 -33
l17 -30 -7 30 c-3 17 -15 42 -25 57 -11 15 -20 33 -20 41 0 20 -36 51 -45 38
-11 -18 -25 -12 -26 12 -1 20 -2 19 -11 -5 -14 -39 -44 -37 -52 3 -3 17 -6 44
-6 60 0 34 -14 44 -57 40 -34 -3 -37 2 -33 47 1 13 -4 30 -10 38 -15 17 -46
18 -54 2 -3 -7 -5 -4 -3 7 1 11 -2 26 -7 34 -7 11 -4 13 16 8 29 -8 54 14 44
38 -5 14 -8 14 -31 -1 -18 -12 -29 -14 -37 -6 -16 16 0 32 32 32 20 0 35 8 45
24 15 22 19 23 48 14 18 -6 34 -14 37 -17z m-175 -2 c11 -17 -1 -21 -15 -4 -8
9 -8 15 -2 15 6 0 14 -5 17 -11z m-685 -39 c0 -31 -16 -41 -26 -15 -5 13 11
45 22 45 2 0 4 -13 4 -30z m183 5 c-3 -9 -8 -14 -10 -11 -3 3 -2 9 2 15 9 16
15 13 8 -4z m474 -18 c-12 -28 -27 -36 -27 -15 0 12 31 50 37 45 1 -2 -3 -15
-10 -30z m-1969 -17 c-5 -17 -15 -33 -21 -37 -5 -3 -7 -2 -4 4 4 6 11 22 16
37 14 36 22 33 9 -4z m1267 10 c3 -5 -1 -10 -9 -10 -9 0 -16 5 -16 10 0 6 4
10 9 10 6 0 13 -4 16 -10z m-1222 -15 c-3 -9 -8 -14 -10 -11 -3 3 -2 9 2 15 9
16 15 13 8 -4z m177 5 c0 -5 -4 -10 -10 -10 -5 0 -10 5 -10 10 0 6 5 10 10 10
6 0 10 -4 10 -10z m-154 -67 c-11 -21 -15 -23 -16 -10 0 24 22 65 27 50 2 -6
-3 -24 -11 -40z m1868 -10 c-13 -12 -24 -27 -24 -33 0 -5 -5 -10 -10 -10 -12
0 7 41 24 52 6 4 12 13 12 20 3 30 6 32 14 13 6 -15 3 -25 -16 -42z m538 35
c-7 -7 -12 -8 -12 -2 0 14 12 26 19 19 2 -3 -1 -11 -7 -17z m-2586 -25 c-8
-15 -15 -22 -16 -15 0 17 20 55 27 49 2 -3 -2 -18 -11 -34z m1168 -2 c-7 -7
-34 21 -28 31 3 5 12 1 19 -9 7 -10 12 -20 9 -22z m376 29 c0 -5 -4 -10 -10
-10 -5 0 -10 5 -10 10 0 6 5 10 10 10 6 0 10 -4 10 -10z m-1586 -15 c-4 -8
-10 -15 -15 -15 -5 0 -9 7 -9 15 0 8 7 15 15 15 9 0 12 -6 9 -15z m1416 -12
c-1 -24 -2 -26 -11 -10 -5 9 -7 22 -4 27 10 17 15 11 15 -17z m810 -17 c0 -2
-7 -6 -15 -10 -8 -3 -15 -1 -15 4 0 6 7 10 15 10 8 0 15 -2 15 -4z m-1006 -31
c3 -8 1 -15 -4 -15 -6 0 -10 7 -10 15 0 8 2 15 4 15 2 0 6 -7 10 -15z m606
-45 c-17 -51 -32 -53 -18 -2 12 44 18 55 26 48 3 -3 -1 -24 -8 -46z m-60 16
c0 -8 -4 -18 -10 -21 -5 -3 -10 3 -10 14 0 12 5 21 10 21 6 0 10 -6 10 -14z
m-330 -6 c0 -5 -4 -10 -10 -10 -5 0 -10 5 -10 10 0 6 5 10 10 10 6 0 10 -4 10
-10z m439 -60 c-10 -28 -19 -64 -19 -80 0 -17 -4 -30 -10 -30 -16 0 -5 103 14
133 29 43 36 32 15 -23z m335 28 c18 -26 11 -41 -15 -33 -13 4 -19 2 -19 -9 0
-21 21 -31 31 -15 4 7 11 10 16 6 4 -5 2 -12 -5 -16 -8 -5 -11 -17 -7 -34 5
-20 2 -26 -15 -32 -15 -5 -26 -1 -35 12 -13 17 -14 17 -14 -2 -1 -33 -7 -64
-14 -71 -4 -4 -7 -2 -7 4 0 7 -4 12 -9 12 -6 0 -7 -15 -5 -32 3 -18 -1 -51 -8
-74 -8 -22 -13 -58 -10 -80 2 -21 5 -49 6 -60 0 -13 6 -20 14 -17 10 4 10 0 1
-20 -10 -23 -9 -31 15 -61 14 -19 22 -37 17 -41 -5 -3 -12 4 -16 15 -3 11 -11
20 -16 20 -6 0 -18 8 -27 17 -16 16 -17 16 -20 0 -2 -9 -10 -17 -19 -17 -11 0
-14 8 -11 33 3 17 8 41 13 52 l8 20 -16 -20 c-16 -20 -16 -19 -17 8 0 15 4 27
8 27 13 0 33 66 26 84 -10 26 5 86 20 80 7 -3 16 2 19 10 4 10 1 13 -9 9 -19
-7 -18 21 2 41 8 9 25 49 36 89 11 39 26 77 34 83 8 6 14 16 14 23 0 18 18 13
34 -11z m-2094 -28 c-6 -12 -14 -20 -17 -17 -2 3 1 14 8 26 17 26 24 19 9 -9z
m1304 -8 c-7 -32 -24 -35 -24 -3 0 16 20 44 27 37 2 -1 0 -17 -3 -34z m1266
28 c0 -5 -4 -10 -10 -10 -5 0 -10 5 -10 10 0 6 5 10 10 10 6 0 10 -4 10 -10z
m-1329 -37 c-4 -34 -5 -35 -11 -13 -7 26 -3 50 9 50 4 0 5 -17 2 -37z m902 23
c6 -15 -1 -26 -15 -26 -4 0 -8 9 -8 20 0 23 15 27 23 6z m-283 -28 c0 -22 -11
-62 -36 -128 l-13 -35 0 39 c-1 43 28 146 41 146 4 0 8 -10 8 -22z m290 -78
c0 -11 -4 -20 -10 -20 -5 0 -10 9 -10 20 0 11 5 20 10 20 6 0 10 -9 10 -20z
m-2244 -37 c-10 -10 -19 5 -10 18 6 11 8 11 12 0 2 -7 1 -15 -2 -18z m-46 -18
c-11 -13 -11 -19 2 -32 14 -14 17 -13 23 6 10 33 27 25 23 -11 -2 -24 -8 -33
-20 -32 -10 1 -18 -1 -18 -5 0 -11 -90 -74 -96 -68 -3 3 0 31 6 63 9 40 15 53
21 43 8 -12 11 -12 19 1 5 8 10 11 10 5 1 -5 7 5 16 24 8 19 17 31 21 28 3 -4
0 -14 -7 -22z m114 -44 c-8 -39 -27 -29 -22 11 3 16 1 31 -4 34 -5 3 -6 10 -2
15 12 20 34 -28 28 -60z m2167 42 c-8 -15 -10 -15 -11 -2 0 17 10 32 18 25 2
-3 -1 -13 -7 -23z m-41 -15 c0 -23 -3 -29 -11 -21 -6 6 -8 20 -4 32 9 30 15
26 15 -11z m252 -40 c-9 -9 -12 -7 -12 12 0 19 3 21 12 12 9 -9 9 -15 0 -24z
m-1052 -1 c0 -13 9 -32 20 -42 30 -27 26 -60 -9 -74 -16 -7 -37 -14 -47 -15
-11 -2 -21 -11 -22 -22 -7 -34 -19 -35 -19 -2 0 21 7 38 19 46 10 7 18 24 18
37 0 13 5 27 11 30 6 4 8 13 5 21 -7 17 3 44 15 44 5 0 9 -11 9 -23z m517 -9
c-3 -8 -6 -5 -6 6 -1 11 2 17 5 13 3 -3 4 -12 1 -19z m-1026 -50 c39 -42 40
-44 35 -102 -7 -75 -16 -85 -16 -18 0 29 -4 52 -10 52 -5 0 -10 -12 -10 -27 0
-20 -12 -37 -40 -61 -45 -37 -47 -35 -24 25 17 45 36 59 27 21 -4 -16 -2 -20
5 -13 14 14 26 75 14 75 -5 0 -14 17 -20 39 -20 65 -16 66 39 9z m92 -15 c-7
-18 -20 -16 -27 3 -4 9 -1 23 6 31 10 13 13 12 19 -4 3 -10 4 -24 2 -30z m197
18 c0 -16 -3 -36 -6 -45 -12 -31 -24 -16 -24 29 0 33 4 45 15 45 10 0 15 -10
15 -29z m565 -9 c6 -13 19 -22 32 -22 17 0 21 -4 16 -17 -4 -11 -2 -15 3 -10
5 5 14 23 21 40 6 18 12 24 12 15 1 -10 6 -18 11 -18 21 0 9 -37 -16 -50 -20
-11 -29 -12 -44 -2 -29 17 -30 16 -30 -29 0 -36 -2 -40 -15 -29 -8 7 -15 25
-15 41 0 31 -9 36 -27 18 -9 -9 -16 -8 -28 5 -19 19 -37 20 -53 4 -9 -9 -12
-8 -12 4 0 22 52 47 84 41 22 -4 26 -2 26 17 0 27 21 22 35 -8z m-997 -24 c12
-24 22 -48 22 -54 0 -6 7 -17 15 -24 8 -7 15 -20 15 -29 0 -22 -17 -47 -26
-38 -4 3 -1 13 5 21 10 12 7 17 -16 28 -21 11 -27 20 -25 39 1 15 -4 39 -13
55 -17 32 -19 44 -7 44 4 0 17 -19 30 -42z m552 6 c-6 -14 -10 -40 -10 -58 0
-18 -6 -41 -14 -51 -13 -18 -14 -14 -9 35 2 30 4 64 4 75 0 14 6 21 19 22 16
1 18 -2 10 -23z m272 -9 c4 -17 3 -34 -2 -39 -7 -7 -10 -5 -10 3 0 8 -6 11
-15 7 -10 -3 -18 1 -22 12 -3 9 -13 25 -22 35 -15 17 -13 18 24 15 33 -3 40
-7 47 -33z m-1552 18 c1 -5 3 -32 5 -61 5 -61 -11 -67 -31 -11 l-12 34 -1 -33
c-1 -26 -7 -35 -27 -43 -34 -12 -39 -7 -14 16 11 10 20 22 20 28 0 28 59 96
60 70z m796 -7 c3 -8 4 -29 2 -48 l-3 -33 -18 32 c-9 18 -17 39 -17 48 0 19
29 20 36 1z m-726 -43 c0 -7 11 -38 25 -69 27 -61 31 -84 15 -84 -5 0 -10 7
-10 15 0 8 -5 15 -11 15 -6 0 -9 9 -6 20 3 13 -1 24 -14 30 -29 16 -42 48 -34
88 6 35 8 36 21 17 8 -10 14 -25 14 -32z m990 27 c0 -11 -4 -20 -10 -20 -5 0
-10 2 -10 4 0 2 -3 11 -6 20 -4 11 -1 16 10 16 9 0 16 -8 16 -20z m-42 -34 c4
-36 -18 -93 -29 -75 -4 7 -3 22 3 32 5 11 8 32 6 48 -3 18 0 28 6 26 6 -2 12
-16 14 -31z m857 13 c-6 -19 -5 -20 17 -8 34 19 58 21 58 5 0 -8 6 -16 14 -18
11 -2 9 -13 -10 -48 -21 -37 -24 -40 -21 -17 5 35 -3 40 -37 22 -14 -8 -24
-10 -21 -5 11 17 -23 42 -46 35 -17 -6 -14 0 12 24 41 36 42 37 34 10z m-675
-4 c15 -19 2 -76 -19 -83 -10 -3 -12 0 -6 14 4 11 9 28 12 39 4 17 2 17 -9 -3
-8 -13 -26 -29 -40 -37 -27 -13 -27 -13 -15 13 12 29 46 72 58 72 3 0 12 -7
19 -15z m1060 7 c0 -5 -9 -17 -20 -27 -12 -11 -18 -25 -14 -39 3 -13 -5 -34
-22 -56 -23 -30 -26 -32 -19 -10 4 14 7 33 6 42 0 10 4 20 10 23 5 4 9 13 9
22 0 9 7 25 17 35 17 19 33 24 33 10z m-1310 -52 c0 -17 -17 -37 -25 -29 -2 2
-1 16 2 31 6 30 23 28 23 -2z m130 1 c0 -28 -15 -49 -27 -38 -8 8 7 67 18 67
5 0 9 -13 9 -29z m1097 -16 c-20 -43 -37 -58 -37 -33 0 14 42 78 51 78 4 0 -3
-20 -14 -45z m147 29 c9 -3 16 -12 16 -19 0 -7 6 -15 13 -18 9 -3 9 -9 0 -25
-7 -12 -10 -28 -7 -37 4 -11 -1 -15 -17 -16 -17 -1 -19 -3 -6 -6 17 -4 24 -23
9 -23 -5 0 -15 -12 -22 -27 -7 -16 -15 -23 -17 -15 -3 6 -9 12 -15 12 -6 0 -8
-6 -5 -14 9 -22 -40 -59 -61 -47 -15 9 -15 10 -1 11 11 0 17 9 17 25 0 31 -8
31 -37 4 l-23 -22 7 23 c5 15 4 20 -4 16 -16 -11 -1 25 22 51 10 12 25 19 32
17 11 -5 28 10 30 26 3 19 18 50 25 50 4 0 10 9 13 20 6 22 8 23 31 14z
m-2450 -56 c-4 -6 -10 -5 -15 3 -14 22 -10 33 6 19 8 -7 12 -17 9 -22z m1968
2 c-2 -16 -8 -30 -13 -30 -10 0 -12 21 -3 44 10 27 21 18 16 -14z m-326 5
c-21 -16 -32 -13 -21 4 3 6 14 11 23 11 15 -1 15 -2 -2 -15z m614 6 c0 -5 -7
-14 -15 -21 -12 -10 -15 -10 -15 2 0 8 3 18 7 21 9 10 23 9 23 -2z m-1404 -45
c-3 -14 -11 -26 -17 -26 -6 0 -8 7 -5 16 3 9 6 25 6 37 0 16 3 18 11 10 7 -7
9 -23 5 -37z m-886 19 c-7 -8 -16 -15 -21 -15 -5 0 -9 7 -9 15 0 9 9 15 21 15
18 0 19 -2 9 -15z m1915 6 c3 -5 1 -12 -5 -16 -5 -3 -10 1 -10 9 0 18 6 21 15
7z m625 -16 c0 -8 -4 -15 -10 -15 -5 0 -7 7 -4 15 4 8 8 15 10 15 2 0 4 -7 4
-15z m-396 -30 c3 -8 1 -15 -4 -15 -6 0 -10 7 -10 15 0 8 2 15 4 15 2 0 6 -7
10 -15z m-1910 -11 c9 -25 7 -72 -4 -79 -6 -4 -10 5 -10 19 0 14 -4 26 -10 26
-5 0 -10 -7 -10 -15 0 -8 -4 -15 -10 -15 -5 0 -10 -10 -10 -23 0 -13 -13 -34
-31 -50 -38 -33 -39 -33 -39 -4 0 17 -2 19 -10 7 -20 -33 -22 4 -3 63 l21 62
9 -45 10 -45 12 30 c7 16 10 39 7 51 -4 16 -1 24 11 27 37 10 61 6 67 -9z
m2071 -14 c3 -5 2 -10 -4 -10 -5 0 -13 5 -16 10 -3 6 -2 10 4 10 5 0 13 -4 16
-10z m536 -13 c-13 -13 -26 -3 -16 12 3 6 11 8 17 5 6 -4 6 -10 -1 -17z
m-2781 -44 c-1 -47 -5 -64 -26 -88 l-26 -30 7 70 c6 59 23 100 43 104 1 1 2
-25 2 -56z m620 47 c0 -5 -4 -10 -10 -10 -5 0 -10 5 -10 10 0 6 5 10 10 10 6
0 10 -4 10 -10z m985 -10 c3 -5 3 -15 -1 -21 -6 -11 -23 6 -24 24 0 10 18 9
25 -3z m43 -12 c-2 -13 -7 -23 -13 -23 -5 0 -11 10 -13 23 -2 15 2 22 13 22
11 0 15 -7 13 -22z m74 3 c-5 -14 -4 -14 13 -1 17 14 18 13 13 -7 -4 -17 -2
-23 9 -23 13 0 13 -3 3 -15 -10 -12 -10 -15 0 -15 8 0 11 -9 7 -26 -3 -15 1
-41 8 -57 7 -17 10 -47 8 -67 -3 -23 1 -49 12 -69 11 -22 14 -45 10 -69 -3
-21 -1 -70 5 -110 5 -41 7 -78 4 -84 -9 -14 -35 48 -28 66 3 8 1 17 -5 21 -14
8 -14 110 -1 136 8 14 7 27 -5 48 -8 17 -15 55 -15 85 l0 56 -32 -3 c-17 -1
-34 -9 -36 -16 -3 -10 0 -12 12 -8 25 10 32 -20 10 -44 -17 -19 -18 -21 -1
-30 9 -6 17 -15 17 -21 0 -7 -5 -6 -15 2 -11 9 -15 9 -15 1 0 -6 7 -14 15 -17
10 -4 12 -11 6 -21 -4 -9 -6 -36 -3 -62 3 -33 1 -43 -6 -36 -6 6 -12 36 -13
68 -1 32 -5 60 -9 62 -4 3 -7 -45 -6 -105 2 -109 -3 -138 -21 -127 -5 3 -10
-1 -10 -9 0 -8 6 -13 14 -10 7 3 13 1 13 -5 0 -6 -8 -9 -17 -7 -15 3 -18 14
-17 73 1 112 9 219 18 233 4 7 3 19 -3 26 -18 21 -15 97 4 141 10 22 18 45 17
50 -1 6 9 11 22 11 19 1 23 -2 18 -15z m112 -22 c3 -17 6 -44 6 -60 0 -19 5
-29 15 -29 18 0 29 25 34 83 1 4 6 7 12 7 6 0 8 -8 5 -17 -3 -10 -2 -43 2 -74
5 -30 5 -84 2 -120 -5 -42 -3 -72 5 -88 12 -23 13 -22 19 22 8 51 17 139 21
202 4 72 3 69 21 54 11 -9 14 -22 10 -41 -3 -15 -8 -43 -11 -60 l-6 -33 15 25
14 25 4 -30 3 -30 13 23 c7 13 14 38 15 57 2 19 6 37 9 41 9 8 21 -37 16 -62
-3 -16 4 -19 51 -21 32 -1 58 -8 65 -16 16 -21 80 -28 102 -13 21 16 50 10 59
-11 8 -21 -4 -31 -15 -13 -8 12 -10 11 -10 -5 0 -12 -4 -25 -9 -30 -6 -6 -4
-17 5 -29 14 -19 14 -19 14 1 0 12 8 23 20 26 23 6 27 39 6 57 -8 6 -12 18 -9
26 4 10 -4 14 -28 15 -32 0 -33 1 -12 11 18 8 32 7 60 -5 21 -8 53 -21 71 -27
24 -10 31 -17 27 -31 -4 -10 1 -21 11 -27 22 -12 10 -52 -17 -52 -29 0 -23
-32 13 -63 22 -20 28 -31 20 -39 -6 -6 -7 -20 -4 -32 4 -11 7 -80 7 -151 0
-121 -2 -135 -26 -181 -18 -34 -24 -56 -18 -71 4 -12 2 -31 -7 -48 -8 -15 -14
-33 -14 -40 0 -7 -9 -23 -19 -36 -16 -19 -22 -22 -32 -11 -7 6 -9 12 -3 12 5
0 9 25 9 55 0 37 -4 55 -12 55 -7 0 -13 8 -13 18 -1 13 -4 11 -14 -8 -8 -14
-12 -28 -10 -32 3 -4 -2 -21 -11 -37 -9 -19 -11 -32 -5 -36 6 -3 10 3 10 14 0
12 5 21 10 21 12 0 2 -80 -11 -94 -5 -5 -15 -3 -25 5 -13 11 -18 11 -21 2 -3
-7 -9 -13 -15 -13 -13 0 -2 108 13 126 9 11 9 14 0 14 -6 0 -14 -7 -17 -15 -4
-8 -10 -15 -15 -15 -18 0 -8 28 25 66 37 44 66 126 73 212 4 44 2 52 -12 52
-14 0 -16 -6 -12 -28 3 -15 2 -34 -2 -41 -14 -22 -21 3 -16 53 3 34 1 46 -9
46 -19 0 -29 -61 -16 -94 19 -51 7 -155 -19 -164 -10 -3 -11 0 -3 13 13 24 4
52 -18 58 -12 3 -22 -4 -29 -21 -7 -13 -14 -22 -17 -19 -7 6 32 83 46 92 13 8
13 42 0 50 -6 4 -9 1 -8 -6 2 -6 -3 -14 -9 -16 -7 -3 -13 0 -13 6 0 6 -6 11
-14 11 -12 0 -17 -15 -32 -105 -8 -47 -25 -95 -47 -132 -16 -28 -24 -33 -43
-29 -17 5 -29 -2 -48 -25 -14 -17 -26 -38 -26 -47 0 -14 -2 -14 -14 -2 -13 13
-13 23 -1 72 7 31 20 67 29 80 18 25 22 88 5 88 -5 0 -9 8 -8 18 1 9 1 68 0
130 -1 110 -1 112 -20 93 -17 -17 -19 -33 -18 -128 1 -72 -3 -119 -12 -140
-17 -42 -31 -34 -24 13 4 24 2 39 -7 44 -7 4 -9 13 -5 20 6 9 9 9 16 -1 12
-19 11 39 -1 66 -8 19 -9 19 -9 -2 -1 -13 -6 -23 -12 -23 -5 0 -9 -8 -8 -17 3
-24 -11 -73 -21 -73 -11 0 -4 150 9 184 6 16 9 36 7 45 -3 9 -2 42 3 74 6 42
4 62 -5 75 -7 9 -14 36 -14 60 0 26 -4 41 -10 37 -5 -3 -10 0 -10 9 0 8 -4 16
-10 18 -5 2 -11 21 -13 44 -2 23 -7 45 -10 51 -12 19 -20 113 -10 113 6 0 13
-14 17 -31z m-351 -22 c-3 -18 -10 -38 -16 -44 -5 -7 -6 -13 -3 -13 11 0 31
23 39 44 4 10 10 17 13 14 2 -3 0 -18 -7 -34 -18 -47 -22 -66 -26 -129 -5 -60
3 -74 11 -19 10 73 19 94 37 94 23 0 24 -9 2 -39 -11 -16 -16 -42 -14 -80 1
-49 -16 -144 -18 -98 -1 9 -6 17 -12 17 -6 0 -8 -8 -6 -17 14 -51 16 -72 8
-77 -12 -8 -19 14 -16 47 2 15 -1 29 -6 33 -11 7 -11 -39 0 -88 12 -52 -4 -48
-24 6 -24 61 -17 100 16 104 29 3 49 42 23 42 -8 0 -17 7 -20 15 -9 22 -27 18
-21 -4 3 -11 -2 -26 -12 -35 -20 -18 -19 -91 3 -151 8 -24 11 -46 6 -55 -9
-16 11 -161 29 -215 12 -34 2 -86 -17 -93 -9 -3 -11 3 -7 21 4 13 -1 51 -10
83 -10 32 -18 70 -19 82 -2 13 -7 27 -13 30 -12 8 -43 78 -43 98 0 8 5 14 10
14 6 0 10 -11 10 -24 0 -31 10 -56 22 -56 5 0 7 4 3 9 -3 6 -8 31 -10 56 -5
43 -24 96 -25 68 0 -25 -21 -13 -37 22 -13 27 -14 40 -6 58 7 14 9 65 7 125
-3 65 -1 102 6 102 5 0 10 -9 10 -20 0 -11 5 -20 10 -20 6 0 10 12 10 26 0 25
10 41 67 111 33 39 55 34 46 -10z m97 -4 c0 -7 -4 -13 -9 -13 -10 0 -21 25
-21 48 1 15 3 14 15 -2 8 -11 15 -26 15 -33z m1188 19 c3 -16 -1 -20 -12 -16
-9 4 -20 -5 -30 -23 l-16 -28 6 30 c14 64 45 86 52 37z m-1408 -3 c-7 -11 -14
-18 -17 -15 -3 3 0 12 7 21 18 21 23 19 10 -6z m743 -30 c-7 -7 -9 -25 -6 -40
3 -18 1 -29 -6 -29 -15 0 -14 67 2 73 20 9 22 8 10 -4z m-2179 -47 c-6 -37 -8
-39 -33 -33 -16 5 -27 15 -29 29 -4 24 7 29 26 10 8 -8 14 -5 23 16 16 35 21
27 13 -22z m2241 38 c3 -5 1 -10 -4 -10 -6 0 -11 5 -11 10 0 6 2 10 4 10 3 0
8 -4 11 -10z m-1845 -10 c0 -5 -5 -10 -11 -10 -5 0 -7 5 -4 10 3 6 8 10 11 10
2 0 4 -4 4 -10z m875 -35 c-8 -22 -14 -49 -14 -60 0 -20 0 -20 14 -1 16 21 17
21 33 -9 11 -20 11 -20 12 0 0 26 28 67 40 60 5 -3 7 -12 3 -20 -3 -9 0 -22 6
-29 13 -15 21 -72 25 -176 2 -36 8 -78 14 -93 7 -16 8 -26 2 -22 -6 3 -10 13
-10 21 0 29 -16 12 -29 -31 -7 -25 -17 -43 -21 -40 -15 9 -21 -14 -10 -35 9
-16 8 -25 -1 -38 -11 -14 -11 -15 1 -4 20 17 30 15 30 -7 0 -10 6 -21 14 -24
7 -3 16 -19 19 -36 5 -22 12 -31 26 -31 21 0 32 -27 47 -115 6 -38 6 -39 -12
-23 -16 16 -18 16 -30 0 -12 -15 -13 -14 -14 14 0 16 -7 39 -15 50 -14 18 -14
17 -15 -16 -1 -31 -2 -33 -10 -12 -12 28 -16 28 -34 -5 l-15 -28 -1 36 c0 19
-7 44 -15 55 -8 10 -15 27 -15 37 0 19 -17 22 -39 8 -11 -7 -12 -13 -4 -23 6
-7 11 -20 11 -28 0 -8 1 -38 2 -65 3 -58 -8 -115 -20 -115 -5 0 -9 15 -8 33 1
49 -11 114 -37 197 -13 41 -29 108 -36 149 -9 57 -14 70 -21 57 -5 -10 -8 -37
-6 -61 1 -24 0 -41 -4 -38 -5 2 -8 13 -8 24 0 21 -8 23 -29 10 -11 -7 -8 -16
17 -47 35 -46 49 -135 27 -177 -7 -14 -17 -57 -20 -94 -4 -37 -13 -76 -20 -86
-15 -21 -28 -8 -14 13 12 20 12 120 -1 120 -5 0 -15 -10 -22 -22 l-12 -23 -6
25 c-5 17 0 38 14 62 l21 37 -23 63 c-37 100 -52 174 -47 225 l5 48 -10 -40
c-6 -22 -16 -56 -22 -75 -8 -25 -8 -35 1 -38 14 -5 14 -30 0 -71 -16 -45 -32
-25 -21 25 11 51 5 74 -19 74 -23 0 -25 -28 -5 -56 8 -10 13 -28 10 -39 -3
-12 0 -33 5 -48 9 -24 13 -26 35 -16 14 7 22 17 19 25 -3 8 -1 14 5 14 12 0
22 -24 22 -51 0 -21 -16 -26 -23 -6 -9 23 -28 -48 -22 -80 11 -62 -63 -185
-110 -181 l-23 2 24 48 c13 26 21 48 17 48 -12 0 -43 -33 -43 -47 0 -7 -4 -13
-9 -13 -5 0 -17 -17 -27 -37 l-19 -38 -3 33 c-2 20 4 45 17 65 23 39 37 102
23 111 -6 3 -13 -11 -17 -33 -7 -40 -78 -161 -94 -161 -20 0 -41 13 -35 21 3
5 -3 9 -13 10 -10 0 -13 3 -5 6 6 2 12 9 12 15 0 15 -38 -20 -45 -41 -3 -9
-16 -21 -29 -27 -21 -10 -26 -9 -31 5 -6 14 -9 13 -18 -6 -11 -25 -27 -31 -27
-10 0 15 33 104 43 113 10 11 9 24 -3 24 -6 0 -21 -24 -35 -52 -40 -85 -60
-113 -83 -116 -27 -4 -28 7 -1 52 15 26 18 40 11 53 -9 15 -12 12 -26 -20 -16
-40 -32 -51 -23 -16 9 32 -16 17 -38 -24 -11 -20 -25 -37 -32 -37 -6 0 -14 -8
-18 -19 -5 -16 -45 -61 -45 -50 0 20 42 111 59 128 11 11 21 31 21 44 -1 22
-1 22 -16 2 -8 -11 -21 -27 -28 -36 -8 -9 -17 -26 -21 -38 -3 -12 -10 -21 -15
-21 -11 0 -3 26 17 55 7 11 13 31 13 45 0 14 7 36 16 49 9 13 16 43 17 69 0
26 4 55 9 65 7 14 3 23 -16 38 -31 24 -33 35 -7 42 13 3 25 26 41 81 14 46 28
76 36 76 18 0 18 0 -6 -60 -11 -28 -20 -56 -20 -62 0 -16 38 21 46 45 6 18 8
18 15 4 7 -11 0 -31 -21 -67 -34 -57 -37 -82 -16 -131 12 -28 16 -31 22 -16 3
10 13 16 20 13 9 -4 14 2 14 15 0 15 -5 19 -15 15 -24 -9 -19 46 10 95 14 24
25 53 25 65 0 11 11 53 25 93 17 51 22 78 15 90 -6 12 -4 38 6 77 8 32 16 69
18 82 6 41 16 36 16 -7 0 -30 3 -40 12 -35 8 5 9 2 3 -12 -5 -10 -9 -32 -10
-49 -1 -16 -3 -32 -4 -35 -2 -3 -4 -39 -7 -81 -2 -51 -12 -98 -30 -145 -28
-71 -33 -129 -15 -147 8 -8 11 0 11 28 0 26 7 47 23 64 12 14 14 19 5 12 -25
-19 -24 4 2 47 12 20 18 42 15 53 -7 21 26 84 35 68 4 -5 15 21 24 58 26 100
34 117 35 67 1 -52 -17 -150 -35 -191 -8 -17 -14 -41 -14 -52 0 -12 -7 -24
-15 -27 -8 -4 -12 -10 -9 -15 2 -5 0 -17 -6 -28 -11 -22 -3 -54 13 -48 20 6
47 71 42 99 -7 28 12 68 31 68 14 0 32 41 40 93 4 23 11 47 16 54 7 8 3 22
-11 42 -12 16 -21 37 -21 46 0 11 -5 15 -15 11 -21 -8 -19 2 15 59 l29 50 -6
-40 -6 -40 23 25 c21 23 22 24 16 3 -4 -12 -2 -24 4 -28 5 -3 10 -20 10 -37
l0 -31 21 27 c24 31 43 34 34 6 -3 -10 -8 -43 -10 -72 -4 -44 -2 -50 7 -33 7
11 14 28 15 38 2 10 10 28 18 40 8 13 16 32 18 42 5 27 47 95 58 95 5 0 15
-12 21 -26 9 -20 9 -30 0 -45 -7 -10 -8 -19 -3 -19 14 0 7 -140 -7 -167 -10
-19 -7 -33 8 -33 13 0 39 58 44 99 6 57 26 78 27 31 l1 -35 9 30 c5 17 6 37 3
47 -2 9 0 19 6 23 13 8 13 85 0 85 -12 0 -30 -33 -30 -55 0 -9 5 -13 10 -10 6
3 10 -1 10 -10 0 -12 -5 -15 -16 -11 -9 3 -19 6 -23 6 -3 0 -5 18 -3 40 2 22
8 37 13 34 5 -3 12 2 15 10 9 24 40 2 55 -38 8 -21 17 -32 26 -29 16 6 17 45
2 60 -12 12 -3 37 11 28 5 -3 16 5 24 17 15 21 16 18 11 -42 -3 -35 -8 -66
-10 -68 -5 -6 23 -62 32 -62 3 0 3 15 -1 33 -4 23 -3 28 4 17 14 -21 26 0 35
59 4 25 15 62 26 83 10 20 19 44 19 52 0 13 30 39 37 32 1 -1 -4 -20 -12 -41z
m341 13 c-18 -26 -22 -17 -5 14 6 11 13 17 16 15 3 -3 -2 -16 -11 -29z m49 23
c3 -5 1 -12 -5 -16 -5 -3 -10 1 -10 9 0 18 6 21 15 7z m-532 -29 c-3 -12 -9
-22 -14 -22 -12 0 -11 7 3 30 15 24 19 21 11 -8z m1162 9 c3 -5 1 -12 -5 -16
-5 -3 -10 1 -10 9 0 18 6 21 15 7z m-2049 -29 c-18 -16 -18 -16 -6 6 6 13 14
21 18 18 3 -4 -2 -14 -12 -24z m2528 3 c-6 -16 -34 -21 -34 -7 0 13 11 22 26
22 8 0 11 -6 8 -15z m-1922 -17 c-7 -7 -12 -8 -12 -2 0 6 3 14 7 17 3 4 9 5
12 2 2 -3 -1 -11 -7 -17z m814 -30 c-11 -15 -16 -18 -16 -7 0 16 21 42 28 34
2 -2 -3 -14 -12 -27z m904 -28 c0 -5 -2 -10 -4 -10 -3 0 -8 5 -11 10 -3 6 -1
10 4 10 6 0 11 -4 11 -10z m-1388 -32 c-15 -15 -26 -4 -18 18 5 13 9 15 18 6
9 -9 9 -15 0 -24z m475 0 c-3 -8 -6 -5 -6 6 -1 11 2 17 5 13 3 -3 4 -12 1 -19z
m253 -8 c0 -5 -4 -10 -10 -10 -5 0 -10 5 -10 10 0 6 5 10 10 10 6 0 10 -4 10
-10z m-1465 -102 c-6 -117 -13 -148 -31 -148 -10 0 -13 6 -10 18 3 9 8 42 11
72 4 30 9 58 10 61 2 3 5 24 6 47 2 23 7 42 11 42 5 0 6 -42 3 -92z m1495 66
c0 -8 -5 -12 -10 -9 -6 4 -8 11 -5 16 9 14 15 11 15 -7z m-260 -4 c0 -5 -4
-10 -10 -10 -5 0 -10 5 -10 10 0 6 5 10 10 10 6 0 10 -4 10 -10z m-1288 -51
c-3 -22 -7 -27 -13 -18 -13 21 -11 49 4 49 9 0 12 -10 9 -31z m-28 -40 c4 -33
9 -66 12 -73 3 -7 -7 -25 -21 -40 -24 -26 -36 -74 -15 -61 6 3 10 1 10 -6 0
-13 -52 -113 -62 -117 -3 -2 -2 -19 4 -38 5 -19 6 -49 3 -65 -4 -17 -8 -62
-10 -102 -3 -67 -38 -207 -52 -207 -3 0 -3 22 0 48 5 40 3 50 -14 60 -24 15
-25 32 0 32 20 0 31 25 31 73 0 16 4 37 10 47 8 16 11 63 8 152 -1 15 6 42 15
61 15 30 27 99 31 165 0 12 6 20 12 18 7 -3 9 5 6 20 -5 30 6 94 17 94 5 0 12
-27 15 -61z m-100 4 c-10 -47 -13 -54 -23 -49 -9 6 -7 48 4 65 13 21 25 10 19
-16z m1386 6 c0 -6 -24 -19 -36 -19 -2 0 -4 6 -4 14 0 9 9 14 20 13 11 -1 20
-4 20 -8z m1023 -63 c21 6 21 5 6 -12 -18 -22 -25 -99 -10 -109 6 -3 11 1 11
9 0 8 12 28 26 43 15 15 22 21 17 13 -13 -20 -26 -104 -24 -156 1 -23 -3 -52
-8 -66 -6 -15 -5 -42 1 -74 6 -27 9 -78 9 -113 -3 -101 -36 -140 -36 -43 0 77
-20 65 -21 -13 -1 -38 -6 -71 -12 -73 -15 -5 -22 27 -17 78 2 28 0 47 -8 52
-9 6 -9 12 1 28 10 16 10 20 0 20 -10 0 -13 54 -13 238 -1 130 2 226 5 213 4
-19 7 -21 16 -10 6 8 15 23 20 34 7 16 9 12 12 -23 3 -39 5 -42 25 -36z
m-2373 37 c0 -21 -3 -24 -9 -14 -5 8 -7 20 -4 28 8 21 13 15 13 -14z m-94 -31
c-14 -14 -16 -14 -16 -1 0 20 23 44 29 28 2 -6 -4 -18 -13 -27z m1743 -19 c1
-7 -3 -13 -9 -13 -5 0 -10 15 -9 33 0 27 2 29 9 12 5 -11 9 -26 9 -32z m-1449
27 c0 -5 -7 -10 -16 -10 -8 0 -12 5 -9 10 3 6 10 10 16 10 5 0 9 -4 9 -10z
m-465 -72 c-4 -24 -8 -59 -10 -78 -3 -42 -19 -85 -35 -95 -9 -6 -9 -2 -1 12 7
14 7 23 -1 31 -7 7 -7 20 1 43 6 17 11 45 11 60 0 24 23 65 39 68 2 1 0 -18
-4 -41z m665 33 c0 -6 -4 -13 -10 -16 -5 -3 -10 1 -10 9 0 9 5 16 10 16 6 0
10 -4 10 -9z m-560 -22 c0 -11 -4 -18 -10 -14 -5 3 -7 12 -3 20 7 21 13 19 13
-6z m1660 -11 c0 -16 -3 -19 -11 -11 -6 6 -8 16 -5 22 11 17 16 13 16 -11z
m-232 -40 c6 -23 7 -38 1 -38 -5 0 -9 8 -9 18 0 10 -5 23 -11 29 -6 6 -8 16
-4 23 9 15 11 12 23 -32z m-1373 -65 c-4 -38 -11 -72 -17 -78 -7 -7 -8 0 -4
20 3 17 8 51 12 78 10 72 17 56 9 -20z m1225 57 c0 -5 -4 -10 -10 -10 -5 0
-10 5 -10 10 0 6 5 10 10 10 6 0 10 -4 10 -10z m190 -11 c0 -6 -4 -7 -10 -4
-5 3 -10 11 -10 16 0 6 5 7 10 4 6 -3 10 -11 10 -16z m-1551 -55 l-13 -29 -4
27 c-2 15 3 37 10 50 12 22 13 22 16 2 1 -11 -3 -34 -9 -50z m91 27 c0 -6 -4
-13 -10 -16 -5 -3 -10 1 -10 9 0 9 5 16 10 16 6 0 10 -4 10 -9z m-90 -75 c0
-16 -18 -31 -27 -22 -8 8 5 36 17 36 5 0 10 -6 10 -14z m142 -68 c-7 -7 -12
-8 -12 -2 0 6 3 14 7 17 3 4 9 5 12 2 2 -3 -1 -11 -7 -17z m995 -135 l-15 -88
4 100 c4 128 4 124 16 98 8 -16 6 -46 -5 -110z m760 102 c-4 -34 -17 -44 -17
-13 0 22 7 38 17 38 2 0 2 -11 0 -25z m-54 -46 c-5 -18 -14 -34 -20 -36 -8 -3
-6 14 5 48 18 55 29 45 15 -12z m391 2 c-6 -31 -7 -31 -27 -14 -19 18 -19 17
-12 -7 4 -14 13 -28 18 -32 7 -4 1 -16 -16 -32 -32 -30 -37 -31 -37 -11 0 7 8
18 18 24 14 8 15 13 5 30 -16 26 0 76 22 67 8 -3 17 -1 21 5 11 18 14 4 8 -30z
m-2294 13 c0 -8 -5 -12 -10 -9 -6 4 -8 11 -5 16 9 14 15 11 15 -7z m165 -34
c-3 -5 -11 -10 -16 -10 -6 0 -7 5 -4 10 3 6 11 10 16 10 6 0 7 -4 4 -10z
m1803 -22 c-16 -48 -28 -57 -28 -22 0 28 15 54 31 54 5 0 3 -15 -3 -32z
m-1943 -5 c-10 -24 -12 -173 -2 -173 9 0 6 -70 -4 -76 -10 -6 -32 54 -32 87 0
16 -3 29 -7 29 -4 0 -7 13 -7 30 0 26 2 27 13 12 12 -15 13 -14 14 10 0 14 -5
28 -12 30 -8 3 -5 15 11 36 24 35 37 42 26 15z m1891 -9 c-4 -9 -9 -15 -11
-12 -3 3 -3 13 1 22 4 9 9 15 11 12 3 -3 3 -13 -1 -22z m-1676 -24 c0 -11 -4
-20 -10 -20 -5 0 -10 9 -10 20 0 11 5 20 10 20 6 0 10 -9 10 -20z m80 -19 c0
-12 -20 -25 -27 -18 -7 7 6 27 18 27 5 0 9 -4 9 -9z m729 -12 c-7 -14 -14 -18
-21 -11 -13 13 -2 32 18 32 12 0 13 -4 3 -21z m1241 17 c0 -3 -4 -8 -10 -11
-5 -3 -10 -1 -10 4 0 6 5 11 10 11 6 0 10 -2 10 -4z m-980 -47 c0 -5 -4 -9
-10 -9 -5 0 -10 7 -10 16 0 8 5 12 10 9 6 -3 10 -10 10 -16z m60 11 c0 -5 -4
-10 -10 -10 -5 0 -10 5 -10 10 0 6 5 10 10 10 6 0 10 -4 10 -10z m1220 -35 c0
-8 -4 -17 -10 -20 -6 -4 -10 5 -10 20 0 15 4 24 10 20 6 -3 10 -12 10 -20z
m-2374 -67 c-4 -23 -14 -47 -24 -54 -14 -10 -15 -15 -4 -25 10 -11 12 -10 12
5 0 9 5 14 11 11 7 -5 4 -14 -8 -27 -10 -11 -19 -15 -21 -9 -6 18 -19 13 -25
-9 -5 -21 -27 -28 -27 -10 0 18 27 64 49 84 15 14 18 23 11 31 -13 16 -2 45
17 45 13 0 14 -8 9 -42z m-50 -15 c-10 -10 -19 5 -10 18 6 11 8 11 12 0 2 -7
1 -15 -2 -18z m231 -10 c-2 -15 -9 -29 -15 -31 -15 -5 -15 -1 -2 32 12 34 22
33 17 -1z m783 17 c0 -5 -5 -10 -11 -10 -5 0 -7 5 -4 10 3 6 8 10 11 10 2 0 4
-4 4 -10z m220 0 c0 -5 -5 -10 -11 -10 -5 0 -7 5 -4 10 3 6 8 10 11 10 2 0 4
-4 4 -10z m87 -12 c-3 -8 -6 -5 -6 6 -1 11 2 17 5 13 3 -3 4 -12 1 -19z m-517
-3 c0 -15 -38 -84 -59 -107 -14 -16 -19 -28 -12 -28 7 0 9 -5 6 -10 -4 -6 -11
-8 -16 -4 -11 6 -49 -23 -49 -37 0 -4 -5 -20 -12 -36 -6 -15 -10 -35 -9 -45 1
-9 -3 -19 -9 -23 -13 -8 -13 -25 0 -25 6 0 10 6 10 14 0 16 27 29 41 20 5 -3
9 2 9 10 0 9 5 16 10 16 6 0 10 6 10 14 0 21 21 31 30 15 7 -10 11 -10 24 0
14 12 17 9 22 -18 6 -31 27 -34 22 -3 -2 13 3 16 20 14 13 -2 30 2 39 10 28
22 6 -42 -25 -76 l-27 -29 32 18 c39 23 55 57 47 102 -5 27 -2 38 15 54 18 17
25 18 36 9 8 -7 15 -9 15 -5 0 4 7 2 15 -5 22 -18 26 -8 10 23 -8 15 -9 27 -4
27 5 0 19 -21 31 -47 14 -33 22 -42 25 -30 3 9 8 17 13 17 5 0 10 17 12 38 4
36 4 36 12 10 17 -57 -15 -105 -54 -80 -13 8 -21 7 -29 -1 -8 -8 -11 -6 -11 9
0 31 -9 34 -34 10 -25 -23 -43 -66 -28 -66 5 0 17 10 26 23 15 21 16 21 27 4
6 -10 22 -22 36 -28 14 -5 30 -23 36 -39 6 -17 15 -30 20 -30 5 0 6 7 3 16 -4
10 1 25 11 36 13 14 18 39 20 85 1 36 4 67 7 71 3 3 6 -2 6 -11 0 -10 6 -26
12 -37 10 -16 10 -24 1 -39 -13 -21 -15 -114 -3 -106 12 7 33 103 27 125 -6
24 15 32 48 20 29 -11 30 -13 9 -45 -9 -13 -14 -30 -11 -37 2 -8 12 1 25 21
l21 34 6 -39 c9 -52 43 -154 44 -129 0 11 -8 63 -18 115 -10 51 -15 101 -11
110 4 8 13 26 18 40 l11 25 0 -25 c1 -14 -3 -40 -8 -58 -8 -26 -7 -34 5 -39
21 -8 29 4 15 20 -7 9 -8 23 -3 37 8 20 9 19 26 -19 10 -22 16 -47 13 -55 -3
-8 -3 -16 1 -18 11 -5 50 -110 57 -153 5 -34 2 -44 -16 -60 -12 -11 -26 -31
-31 -45 -10 -23 -11 -22 -23 28 -7 30 -18 59 -25 65 -10 10 -11 8 -5 -8 17
-47 24 -94 20 -150 -2 -39 -1 -50 4 -30 4 17 29 60 54 97 26 37 47 73 47 80 0
7 27 41 60 76 58 61 61 62 70 40 6 -13 24 -43 40 -68 16 -25 35 -58 41 -73 15
-37 34 -21 20 17 -6 14 -27 51 -46 81 -36 57 -44 89 -23 101 8 5 9 0 6 -14 -4
-12 -2 -22 3 -22 5 0 9 16 9 35 0 31 26 103 34 93 2 -1 6 -15 10 -31 4 -18 3
-26 -5 -25 -11 3 -32 -62 -24 -71 2 -2 11 4 20 13 20 20 39 20 54 3 11 -14 61
-160 57 -165 -2 -1 -24 20 -49 48 -49 53 -65 64 -45 28 14 -24 38 -52 38 -45
0 3 14 -8 30 -23 17 -15 30 -33 30 -39 0 -6 6 -11 14 -11 18 0 38 -25 53 -68
10 -31 10 -40 -3 -59 -22 -35 -63 -58 -77 -44 -16 16 -30 14 -23 -5 4 -11 2
-15 -8 -11 -19 8 -56 -20 -56 -43 0 -13 -5 -17 -15 -14 -19 8 -19 23 0 44 13
15 13 21 2 50 -9 19 -17 28 -21 21 -4 -6 -2 -19 4 -30 12 -24 13 -31 2 -31 -5
0 -16 15 -26 33 -9 17 -14 23 -10 12 13 -43 16 -93 5 -99 -6 -4 -11 0 -11 10
0 22 -50 124 -61 124 -4 0 -1 -12 7 -27 17 -34 18 -57 3 -82 -11 -17 -15 -15
-50 23 -24 25 -39 35 -39 26 0 -9 -7 -26 -16 -39 l-17 -24 -14 24 c-14 23 -14
23 -9 -11 l6 -35 -19 25 -19 24 -4 -29 c-1 -15 -8 -30 -15 -32 -8 -3 -11 4 -8
18 2 12 0 29 -5 38 -8 13 -9 13 -10 -6 0 -12 -4 -25 -10 -28 -5 -3 -10 0 -10
8 0 8 -7 21 -17 28 -15 13 -16 11 -9 -14 5 -23 2 -29 -19 -39 -14 -6 -25 -15
-25 -20 0 -4 -5 -8 -11 -8 -6 0 -9 6 -6 13 2 6 8 23 12 37 7 24 7 24 -12 8
-24 -22 -33 -23 -33 -3 0 17 -26 20 -36 4 -3 -6 -1 -16 5 -22 17 -17 13 -29
-5 -19 -17 9 -28 73 -15 82 4 3 4 19 0 35 -4 17 -7 23 -8 15 -1 -8 -8 -28 -16
-44 -8 -15 -12 -32 -9 -37 3 -5 -1 -9 -10 -9 -8 0 -28 -12 -45 -26 -45 -37
-38 -14 8 32 37 36 39 39 26 63 -21 39 -67 91 -58 66 3 -11 12 -29 20 -40 15
-22 17 -61 4 -69 -5 -4 -11 -3 -14 1 -2 5 -3 3 -1 -3 3 -14 -50 -54 -71 -54
-9 0 -25 -5 -35 -10 -16 -9 -21 -6 -26 15 -7 27 -30 29 -28 3 2 -29 -34 -17
-46 15 -27 72 -42 97 -51 91 -6 -4 -4 -15 5 -30 9 -13 16 -31 16 -41 0 -15 -4
-14 -20 7 -11 14 -20 33 -20 43 0 9 -7 17 -15 17 -18 0 -18 -8 0 -40 18 -32
18 -41 0 -34 -8 4 -15 13 -15 21 0 9 -6 12 -19 8 -12 -4 -21 0 -26 12 -5 15
-10 11 -26 -21 -20 -41 -18 -59 6 -49 8 3 15 0 15 -6 0 -10 -7 -12 -50 -15 -9
-1 -15 -11 -15 -29 -1 -29 13 -35 33 -15 9 9 12 9 12 0 0 -11 -31 -32 -48 -32
-15 0 -20 34 -12 79 6 34 5 39 -6 30 -17 -14 -29 10 -21 41 3 10 -2 27 -10 37
-13 16 -13 15 -8 -15 4 -19 2 -38 -4 -46 -7 -8 -11 -18 -10 -22 1 -5 1 -20 0
-33 -1 -20 -4 -22 -13 -13 -17 17 -59 15 -86 -4 -15 -10 -22 -11 -22 -3 0 7
-8 9 -21 6 -32 -9 -51 2 -43 25 4 15 3 18 -6 13 -6 -4 -10 -15 -7 -25 4 -15
-3 -20 -35 -25 -22 -4 -41 -12 -44 -18 -5 -13 -74 -18 -74 -6 0 4 16 14 35 23
33 16 42 42 10 29 -28 -10 -15 23 20 56 23 21 35 41 35 59 1 24 2 25 11 9 6
-10 8 -25 5 -33 -8 -22 12 -17 24 6 6 11 18 20 26 20 13 0 15 8 12 32 -3 20 2
51 14 77 10 24 20 53 22 63 3 24 53 88 68 88 12 0 192 180 233 234 14 19 24
40 20 46 -4 6 4 10 19 10 17 0 28 8 38 30 11 25 28 41 28 25z m80 1 c0 -2 -7
-6 -15 -10 -8 -3 -15 -1 -15 4 0 6 7 10 15 10 8 0 15 -2 15 -4z m585 -6 c-4
-6 -3 -16 3 -23 5 -7 12 -21 15 -32 6 -18 5 -18 -12 3 -36 42 -42 21 -12 -42
36 -74 36 -89 1 -105 -32 -14 -56 -7 -30 9 8 5 11 12 8 15 -14 14 -28 -8 -28
-43 0 -25 3 -32 9 -23 11 17 51 5 51 -15 0 -13 -12 -18 -33 -15 -4 1 -3 -8 3
-20 8 -15 9 -24 1 -32 -7 -7 -13 -3 -20 15 -5 15 -14 29 -19 32 -5 3 -13 27
-17 53 -4 27 -16 70 -26 98 -23 59 -24 81 -3 43 18 -35 26 -36 18 -3 -4 16 -2
25 6 25 7 0 11 -13 9 -32 -1 -18 -1 -42 0 -52 2 -38 23 1 27 49 3 54 24 105
42 105 7 0 10 -5 7 -10z m-467 -25 c-6 -14 -15 -25 -20 -25 -11 0 -10 7 4 30
18 29 30 25 16 -5z m201 -4 c17 -31 -11 -46 -40 -21 l-24 19 23 1 c12 0 22 5
22 10 0 16 8 12 19 -9z m1115 -26 c-7 -18 7 -20 24 -3 6 6 15 9 18 5 4 -4 -4
-15 -17 -26 -20 -16 -21 -21 -10 -35 17 -20 31 -21 31 -1 0 22 15 18 26 -7 6
-13 9 -17 7 -10 -4 18 18 15 33 -5 11 -14 13 -15 9 -2 -5 12 1 16 25 16 16 0
30 -4 30 -9 0 -4 -4 -8 -9 -8 -6 0 -8 -20 -6 -45 3 -26 0 -45 -5 -45 -6 0 -10
5 -10 10 0 6 -4 10 -10 10 -5 0 -7 -6 -4 -13 3 -8 -2 -20 -11 -27 -8 -7 -15
-20 -15 -30 0 -10 -7 -21 -16 -24 -9 -4 -14 -13 -10 -21 10 -26 -5 -74 -20
-68 -8 3 -14 0 -14 -6 0 -6 11 -11 25 -11 16 0 25 -6 25 -15 0 -8 -5 -15 -11
-15 -5 0 -7 -5 -4 -10 4 -6 11 -8 16 -5 10 7 11 -31 0 -58 -6 -15 -12 -11 -39
27 -41 57 -47 59 -19 6 l22 -40 -28 -24 c-16 -14 -26 -30 -22 -36 5 -9 10 -9
18 -1 6 6 16 11 22 11 5 0 1 -7 -9 -15 -22 -17 -56 -20 -56 -6 0 5 -14 23 -31
40 -26 26 -31 39 -32 85 -2 65 -24 96 -63 88 -22 -4 -25 -8 -19 -31 3 -14 12
-30 19 -36 17 -13 36 -50 36 -68 0 -10 -7 -13 -20 -10 -11 3 -18 9 -15 13 3 5
1 11 -4 15 -12 7 -31 -26 -31 -54 0 -12 6 -21 14 -21 8 0 17 -7 20 -16 4 -12
1 -14 -14 -9 -27 8 -58 -38 -40 -60 9 -10 9 -15 1 -15 -6 0 -11 -9 -11 -19 0
-10 -7 -22 -15 -25 -21 -8 -57 15 -50 32 3 8 5 18 5 24 0 6 9 0 19 -13 18 -22
20 -22 26 -6 4 10 5 30 2 45 -3 15 -2 47 3 72 9 49 -11 117 -30 105 -8 -5 -7
-14 3 -28 16 -26 11 -100 -7 -94 -6 2 -13 14 -14 28 -5 33 -20 47 -28 25 -4
-11 1 -25 15 -40 24 -25 27 -45 9 -47 -28 -3 -34 -4 -51 -15 -27 -16 -13 -67
16 -58 16 5 19 3 14 -10 -4 -9 -2 -15 5 -13 6 1 12 -3 15 -9 2 -7 -10 -14 -27
-16 -23 -4 -34 0 -38 11 -3 9 -12 22 -19 29 -16 17 -17 52 -1 52 17 0 -35 45
-54 47 -20 2 -24 -13 -6 -19 8 -3 5 -13 -10 -33 -20 -26 -22 -26 -22 -6 0 25
-8 26 -35 5 -16 -12 -17 -17 -6 -23 10 -7 11 -13 2 -30 -15 -27 -34 -28 -26
-1 5 15 3 18 -9 14 -9 -3 -16 -15 -16 -25 0 -26 -16 -24 -24 4 -4 16 2 28 23
47 15 14 44 39 64 57 23 20 38 44 43 67 3 20 10 36 15 36 5 0 9 5 9 10 0 19
-21 10 -32 -15 -14 -31 -22 -25 -52 33 -22 43 -22 49 -9 70 10 14 11 22 4 22
-6 0 -11 7 -11 16 0 8 -5 12 -10 9 -6 -3 -7 -17 -4 -29 3 -15 1 -25 -8 -28 -9
-4 -13 4 -13 23 0 16 3 29 6 29 11 0 -16 68 -34 88 -23 26 -21 45 8 80 14 17
25 35 25 41 0 6 5 11 10 11 16 0 11 -33 -10 -60 -20 -25 -26 -45 -12 -36 4 2
16 -2 26 -9 16 -12 17 -18 7 -46 -13 -38 -6 -53 8 -18 10 23 10 23 11 -6 0
-16 5 -37 10 -45 7 -11 10 -2 10 33 0 26 4 55 9 65 5 9 12 26 16 36 5 19 6 19
20 0 8 -11 15 -14 15 -6 0 6 3 12 8 12 4 0 7 -22 8 -49 0 -50 46 -161 65 -161
5 0 20 10 32 21 l22 21 -24 -7 c-19 -6 -23 -4 -18 9 3 8 2 18 -4 21 -5 4 -7
11 -4 16 4 5 1 9 -5 9 -7 0 -9 8 -5 19 3 11 1 22 -5 26 -13 8 -13 62 0 70 6 4
9 26 6 53 l-6 47 19 -24 c10 -13 31 -48 47 -77 28 -53 29 -53 9 -68 -20 -15
-20 -15 1 -16 17 0 23 -8 28 -40 3 -22 3 -52 0 -65 -4 -15 -2 -25 5 -25 16 0
24 45 18 97 l-5 46 24 -29 c13 -16 23 -33 24 -37 0 -10 20 1 20 12 0 4 -11 21
-25 37 -30 35 -30 32 -2 65 42 51 59 46 94 -25 l32 -64 -20 -26 c-10 -13 -15
-27 -10 -30 11 -7 41 37 41 62 0 19 -53 129 -70 146 -6 6 -16 3 -28 -7 -10 -9
-24 -17 -31 -17 -6 0 -14 -7 -17 -15 -4 -8 -10 -15 -15 -15 -10 0 0 31 15 45
6 6 31 17 55 25 43 14 67 40 39 40 -18 0 -61 87 -48 95 6 3 10 -1 10 -9 0 -9
5 -16 10 -16 6 0 10 -7 10 -16 0 -14 3 -14 15 -4 17 14 21 35 5 25 -5 -3 -10
1 -10 9 0 42 67 -1 72 -46 2 -17 9 -33 16 -36 17 -5 15 13 -7 58 -21 43 -18
54 10 39 10 -5 16 -16 13 -24z m-1194 -5 c0 -10 -4 -21 -8 -24 -5 -3 -9 8 -9
24 0 16 4 27 9 24 4 -3 8 -14 8 -24z m210 20 c0 -5 -2 -10 -4 -10 -3 0 -8 5
-11 10 -3 6 -1 10 4 10 6 0 11 -4 11 -10z m-1063 -16 c-3 -3 -12 -4 -19 -1 -8
3 -5 6 6 6 11 1 17 -2 13 -5z m1244 -37 c-8 -8 -11 -5 -11 9 0 27 14 41 18 19
2 -9 -1 -22 -7 -28z m-541 23 c0 -5 -4 -10 -10 -10 -5 0 -10 5 -10 10 0 6 5
10 10 10 6 0 10 -4 10 -10z m625 0 c3 -5 2 -10 -4 -10 -5 0 -13 5 -16 10 -3 6
-2 10 4 10 5 0 13 -4 16 -10z m-1658 -22 c-3 -8 -6 -5 -6 6 -1 11 2 17 5 13 3
-3 4 -12 1 -19z m1771 -34 c7 -23 12 -49 12 -58 0 -28 -17 -8 -23 26 -3 18 -9
47 -13 63 -10 45 10 18 24 -31z m448 39 c12 -28 15 -73 4 -73 -11 0 -25 48
-16 57 3 3 1 12 -5 20 -7 8 -8 13 -1 13 5 0 13 -8 18 -17z m-199 -15 c-3 -8
-6 -5 -6 6 -1 11 2 17 5 13 3 -3 4 -12 1 -19z m-1017 8 c0 -2 -7 -7 -16 -10
-8 -3 -12 -2 -9 4 6 10 25 14 25 6z m1147 -42 c-8 -8 -37 21 -37 38 0 7 9 4
22 -9 12 -13 19 -25 15 -29z m-1637 27 c0 -5 -7 -11 -14 -14 -10 -4 -13 -1 -9
9 6 15 23 19 23 5z m90 -1 c0 -15 -59 -77 -60 -62 0 15 40 72 52 72 4 0 8 -4
8 -10z m-145 -19 c-3 -6 -11 -8 -17 -5 -6 4 -5 9 3 15 16 10 23 4 14 -10z m95
15 c0 -3 -4 -8 -10 -11 -5 -3 -10 -1 -10 4 0 6 5 11 10 11 6 0 10 -2 10 -4z
m1279 -8 c0 -7 -4 -22 -8 -32 -10 -26 -25 -3 -16 24 7 22 25 28 24 8z m90 -30
c1 -5 -3 -8 -9 -8 -5 0 -10 12 -9 28 0 24 1 25 9 7 5 -11 9 -23 9 -27z m-1064
3 c-3 -6 -11 -11 -17 -11 -6 0 -6 6 2 15 14 17 26 13 15 -4z m748 -63 c-4 -21
-8 -26 -14 -16 -9 14 -9 76 0 93 9 16 20 -46 14 -77z m-1133 53 c0 -6 -5 -13
-11 -17 -7 -4 -8 -9 -1 -13 16 -9 26 -61 13 -61 -6 0 -11 7 -11 15 0 8 -5 15
-10 15 -6 0 -9 -19 -9 -42 2 -49 -8 -163 -17 -190 -8 -25 -22 -23 -27 5 -3 20
-4 20 -12 4 -11 -25 -52 -66 -59 -59 -3 3 -6 18 -6 34 0 15 -4 28 -10 28 -5 0
-10 -7 -10 -17 0 -9 -17 -32 -39 -52 -36 -33 -62 -70 -93 -129 -10 -19 -9 -25
2 -32 12 -7 12 -14 -3 -44 -9 -20 -21 -36 -27 -36 -14 0 -12 11 5 34 17 22 19
36 6 36 -5 0 -14 -13 -21 -29 -6 -16 -23 -39 -36 -52 -14 -13 -20 -25 -14 -29
6 -4 4 -13 -6 -26 -15 -18 -15 -18 -9 4 5 16 2 22 -9 22 -22 0 -20 17 4 30 11
6 18 15 15 21 -4 5 0 23 9 40 8 16 13 36 10 44 -3 8 3 22 15 31 11 10 18 21
16 25 -3 4 2 12 10 19 8 7 15 19 15 27 0 9 6 13 15 9 10 -3 15 1 15 14 0 10 7
31 15 47 9 15 20 40 25 56 5 15 16 27 24 27 11 0 13 9 9 39 -4 26 -1 41 8 46
8 5 15 3 17 -4 5 -15 42 36 42 57 0 7 10 34 21 60 20 43 22 45 36 27 11 -16
15 -17 22 -6 5 7 13 11 19 7 5 -3 15 1 22 9 14 17 30 20 30 6z m470 5 c0 -2
-8 -10 -17 -17 -16 -13 -17 -12 -4 4 13 16 21 21 21 13z m947 -18 c-3 -8 -6
-5 -6 6 -1 11 2 17 5 13 3 -3 4 -12 1 -19z m-997 -8 c0 -5 -5 -10 -11 -10 -5
0 -7 5 -4 10 3 6 8 10 11 10 2 0 4 -4 4 -10z m-383 -32 c-3 -8 -6 -5 -6 6 -1
11 2 17 5 13 3 -3 4 -12 1 -19z m-337 2 c0 -5 -5 -10 -11 -10 -5 0 -7 5 -4 10
3 6 8 10 11 10 2 0 4 -4 4 -10z m1955 0 c3 -5 1 -10 -4 -10 -6 0 -11 5 -11 10
0 6 2 10 4 10 3 0 8 -4 11 -10z m-1579 -24 c0 -13 -4 -22 -7 -20 -11 6 -19
-24 -12 -42 4 -11 -1 -22 -12 -30 -42 -31 -46 -10 -10 64 27 56 44 67 41 28z
m210 -13 c-11 -11 -17 4 -9 23 7 18 8 18 11 1 2 -10 1 -21 -2 -24z m1241 -5
c-3 -8 -6 -5 -6 6 -1 11 2 17 5 13 3 -3 4 -12 1 -19z m-1864 -5 c-11 -31 -25
-43 -48 -43 -19 0 -35 -16 -39 -40 -1 -3 -11 -19 -23 -35 -12 -17 -23 -44 -25
-60 -1 -15 -8 -30 -14 -32 -17 -6 4 116 27 153 14 24 25 30 42 27 14 -3 31 4
47 20 30 30 42 33 33 10z m1411 -31 c-12 -18 -19 -22 -22 -13 -3 8 3 20 12 26
9 7 16 18 17 26 0 11 2 11 6 1 3 -7 -3 -25 -13 -40z m-1314 3 c-7 -8 -10 -22
-6 -30 3 -8 0 -28 -6 -43 l-11 -27 -8 30 c-7 23 -4 36 14 62 12 17 23 30 26
28 2 -3 -2 -11 -9 -20z m1800 -70 c0 -9 -6 -12 -15 -9 -8 4 -15 10 -15 15 0 5
7 9 15 9 8 0 15 -7 15 -15z m-1880 -14 c0 -6 -4 -13 -10 -16 -13 -8 -13 -85 0
-105 6 -10 4 -20 -7 -32 -21 -24 -48 -24 -38 0 4 9 9 40 12 67 5 52 20 95 35
95 4 0 8 -4 8 -9z m-80 -15 c0 -3 -4 -8 -10 -11 -5 -3 -10 -1 -10 4 0 6 5 11
10 11 6 0 10 -2 10 -4z m114 -47 c1 -17 -5 -35 -11 -41 -10 -8 -13 -3 -13 20
0 62 22 81 24 21z m2089 -4 c2 -14 1 -25 -2 -25 -15 0 -31 25 -31 48 0 20 3
22 14 13 8 -6 16 -23 19 -36z m227 19 c0 -8 -4 -12 -10 -9 -5 3 -10 10 -10 16
0 5 5 9 10 9 6 0 10 -7 10 -16z m-2430 -49 c0 -8 -6 -15 -14 -15 -7 0 -19 -13
-26 -30 -14 -33 -30 -40 -30 -13 0 17 47 73 62 73 4 0 8 -7 8 -15z m340 -35
c0 -5 -5 -10 -11 -10 -5 0 -7 5 -4 10 3 6 8 10 11 10 2 0 4 -4 4 -10z m-95
-22 c-4 -13 -8 -30 -11 -38 -5 -21 -44 -45 -44 -27 0 6 9 18 20 25 11 7 20 23
20 37 0 14 5 25 11 25 6 0 8 -9 4 -22z m-245 -2 c0 -8 -4 -18 -10 -21 -5 -3
-10 3 -10 14 0 12 5 21 10 21 6 0 10 -6 10 -14z m2230 -61 c-17 -32 -22 -27
-14 14 5 22 10 29 17 22 7 -7 6 -18 -3 -36z m-1901 7 c-1 -15 -2 -15 -6 1 -2
9 -9 14 -15 11 -7 -4 -8 -2 -4 5 10 15 26 4 25 -17z m-404 -78 c-9 -9 -18 -14
-21 -12 -13 14 -12 55 3 78 l17 25 9 -37 c7 -30 6 -41 -8 -54z m45 59 c0 -22
-2 -25 -10 -13 -13 20 -13 40 0 40 6 0 10 -12 10 -27z m2293 -8 c-7 -21 -13
-19 -13 6 0 11 4 18 10 14 5 -3 7 -12 3 -20z m-2038 -45 c-5 -8 -11 -8 -17 -2
-6 6 -7 16 -3 22 5 8 11 8 17 2 6 -6 7 -16 3 -22z m2115 11 c0 -20 -13 -35
-23 -25 -7 8 4 44 14 44 5 0 9 -9 9 -19z m-325 -11 c3 -5 1 -10 -4 -10 -6 0
-11 5 -11 10 0 6 2 10 4 10 3 0 8 -4 11 -10z m-2015 -4 c0 -3 -4 -8 -10 -11
-5 -3 -10 -1 -10 4 0 6 5 11 10 11 6 0 10 -2 10 -4z m182 -13 c-6 -3 -10 -8
-7 -13 7 -11 -15 -60 -27 -60 -4 0 -8 15 -8 33 0 24 6 35 23 43 12 5 24 8 27
6 3 -3 -1 -7 -8 -9z m518 7 c0 -5 -4 -10 -10 -10 -5 0 -10 5 -10 10 0 6 5 10
10 10 6 0 10 -4 10 -10z m1189 -60 c5 0 13 5 16 10 12 20 31 9 43 -23 15 -42
15 -54 0 -39 -8 8 -15 9 -25 1 -16 -14 -17 3 -1 19 6 6 8 15 4 19 -4 4 -11 1
-16 -7 -7 -10 -10 -11 -10 -2 0 19 -18 14 -25 -7 -3 -11 -13 -22 -22 -25 -14
-6 -14 -4 -2 10 7 9 12 33 11 53 -1 31 0 33 8 14 5 -13 14 -23 19 -23z m-1164
20 c-3 -5 -11 -10 -16 -10 -6 0 -7 5 -4 10 3 6 11 10 16 10 6 0 7 -4 4 -10z
m909 1 c3 -4 -3 -16 -14 -26 -20 -18 -25 -11 -14 19 7 18 20 21 28 7z m66 -1
c0 -5 -5 -10 -11 -10 -5 0 -7 5 -4 10 3 6 8 10 11 10 2 0 4 -4 4 -10z m572
-27 c-17 -8 -33 -24 -36 -36 -4 -16 -8 -19 -17 -10 -8 8 -6 16 9 31 26 26 55
42 65 35 5 -3 -4 -12 -21 -20z m-142 1 c0 -8 -4 -12 -10 -9 -5 3 -10 10 -10
16 0 5 5 9 10 9 6 0 10 -7 10 -16z m-445 -4 c-3 -5 -11 -10 -16 -10 -6 0 -7 5
-4 10 3 6 11 10 16 10 6 0 7 -4 4 -10z m-1705 -14 c0 -16 -18 -31 -27 -22 -8
8 5 36 17 36 5 0 10 -6 10 -14z m1010 3 c0 -5 -4 -7 -10 -4 -5 3 -18 2 -27 -3
-10 -5 -38 -13 -63 -16 l-45 -7 25 20 c27 22 120 30 120 10z m51 -6 c13 -16
12 -17 -3 -4 -10 7 -18 15 -18 17 0 8 8 3 21 -13z m129 -12 c-6 -12 -18 -21
-27 -21 -13 0 -12 5 7 25 27 29 37 27 20 -4z m886 -1 c8 0 14 -4 14 -10 0 -5
-5 -10 -11 -10 -15 0 -39 26 -31 34 4 4 8 2 10 -3 2 -6 10 -11 18 -11z m-1226
-1 c0 -6 -35 -19 -54 -19 -5 0 -4 6 2 13 11 13 52 18 52 6z m506 -3 c22 -22
17 -29 -16 -23 -16 4 -32 2 -35 -3 -4 -6 -11 -8 -16 -4 -9 5 28 43 44 44 5 0
15 -6 23 -14z m306 1 c15 -12 15 -14 -4 -26 -17 -10 -22 -10 -28 0 -9 13 -2
39 9 39 3 0 14 -6 23 -13z m-1543 -21 c-24 -25 -39 -25 -39 -1 0 13 17 21 49
24 8 1 4 -9 -10 -23z m205 9 c-8 -19 -39 -37 -48 -28 -8 9 24 43 40 43 8 0 11
-6 8 -15z m76 1 c0 -7 -13 -16 -29 -18 -23 -3 -27 -1 -23 14 5 21 52 25 52 4z
m70 4 c0 -5 -5 -10 -11 -10 -5 0 -7 5 -4 10 3 6 8 10 11 10 2 0 4 -4 4 -10z
m1343 -22 c-10 -11 -19 -15 -21 -8 -5 15 18 41 30 34 5 -3 1 -15 -9 -26z
m-373 -9 c0 -5 -4 -9 -10 -9 -5 0 -10 7 -10 16 0 8 5 12 10 9 6 -3 10 -10 10
-16z m100 12 c0 -5 -11 -11 -25 -13 -28 -6 -35 8 -7 15 28 8 32 7 32 -2z m180
-1 c-19 -13 -30 -13 -30 0 0 6 10 10 23 10 18 0 19 -2 7 -10z m-1570 -40 c0
-5 -10 -10 -22 -10 -19 0 -20 2 -8 10 19 13 30 13 30 0z m350 -14 c0 -3 -4 -8
-10 -11 -5 -3 -10 -1 -10 4 0 6 5 11 10 11 6 0 10 -2 10 -4z m-225 -26 c22 -6
25 -8 10 -10 -11 -1 -24 -1 -30 0 -14 2 -87 -21 -104 -34 -12 -9 -12 -7 -1 14
7 14 18 28 24 32 13 9 61 8 101 -2z m926 -50 c23 0 25 -16 3 -24 -20 -8 -20
-8 -28 24 -3 14 -3 19 0 13 3 -7 14 -13 25 -13z m-188 -24 c-3 -6 -13 -19 -21
-28 -16 -19 -6 -46 11 -29 6 6 15 11 19 11 12 0 10 -48 -2 -55 -6 -4 -8 -15
-5 -25 4 -13 -3 -23 -25 -36 -20 -13 -32 -29 -36 -52 -9 -48 3 -51 16 -4 8 30
19 45 41 56 17 9 35 14 39 11 4 -3 13 2 20 10 17 21 29 19 23 -4 -3 -10 0 -22
6 -25 9 -6 5 -63 -5 -75 -2 -2 -15 11 -29 28 -15 17 -31 31 -37 31 -5 0 -2 -7
7 -16 9 -9 23 -27 32 -40 8 -13 22 -24 29 -24 8 0 15 -6 16 -12 0 -7 4 28 8
77 7 88 24 145 42 145 5 0 7 -13 4 -30 -16 -83 -17 -95 -7 -80 9 13 11 13 11
-1 0 -9 -7 -19 -15 -23 -8 -3 -15 -13 -15 -22 0 -13 7 -10 27 12 30 33 50 119
32 140 -12 15 -4 34 15 34 9 0 12 -9 8 -25 -3 -16 0 -25 8 -25 8 0 10 -8 7
-22 l-6 -23 17 21 c17 20 53 44 67 44 3 0 -5 -10 -19 -22 -37 -34 -76 -115
-76 -160 0 -22 4 -37 8 -34 5 3 6 -8 4 -25 -2 -16 -2 -29 1 -29 10 0 37 63 37
86 0 13 5 26 10 29 6 3 10 15 10 26 0 11 8 22 18 26 9 3 25 13 35 21 9 8 17
11 17 6 0 -12 -37 -44 -50 -44 -6 0 -10 -10 -11 -22 -3 -90 0 -112 16 -124 18
-13 12 -36 -9 -32 -6 2 -13 -1 -15 -7 -1 -5 -9 -14 -17 -18 -14 -8 -14 -11 0
-26 12 -13 14 -25 7 -48 -7 -23 -5 -34 5 -45 8 -8 16 -32 18 -54 2 -24 9 -39
17 -39 8 0 15 -14 16 -35 2 -19 8 -39 14 -45 7 -7 8 -2 4 17 -4 15 -2 35 4 45
9 14 11 5 9 -43 -2 -50 1 -66 16 -83 11 -12 16 -24 13 -28 -4 -3 1 -12 11 -19
19 -15 17 -15 -45 -18 -30 -1 -43 2 -43 11 0 7 -4 13 -10 13 -5 0 -10 -4 -10
-9 0 -5 -10 -15 -22 -23 l-23 -15 0 71 c-1 39 -5 91 -9 116 -15 87 -18 177 -7
199 10 17 9 25 -4 37 -15 15 -18 15 -35 -1 -18 -16 -19 -28 -14 -124 3 -58 5
-125 4 -148 -1 -47 15 -64 35 -37 12 17 14 16 13 -16 0 -49 -7 -71 -23 -68 -8
2 -20 -6 -28 -17 -12 -16 -17 -17 -30 -6 -9 7 -21 10 -27 6 -20 -12 -10 13 16
38 14 14 23 30 21 35 -3 4 -8 99 -12 210 -3 111 -8 209 -11 217 -11 29 -19 15
-18 -31 1 -27 -6 -65 -17 -90 -17 -37 -19 -57 -13 -137 5 -66 3 -96 -5 -101
-7 -5 -11 4 -12 26 0 18 -2 47 -4 63 -3 17 -9 81 -14 144 -10 115 -21 158 -21
85 0 -57 -9 -81 -32 -87 -14 -4 -18 -11 -14 -24 3 -10 7 -39 8 -65 2 -27 6
-48 9 -48 3 0 6 -36 8 -81 2 -72 0 -81 -17 -86 -23 -6 -47 -46 -39 -65 3 -9
-4 -14 -22 -15 -14 0 -36 -4 -48 -8 -19 -6 -23 -4 -23 14 0 12 6 21 15 21 10
0 15 10 15 34 0 38 -18 96 -30 96 -7 0 -19 -33 -21 -57 0 -5 -5 -14 -11 -20
-8 -10 -6 -13 5 -13 10 0 14 -6 11 -14 -4 -11 -20 -22 -67 -44 -4 -2 -5 8 -1
22 5 21 3 25 -10 20 -9 -4 -16 -18 -16 -34 0 -24 -3 -27 -22 -23 -17 3 -19 2
-9 -5 19 -14 6 -29 -24 -29 -29 0 -34 12 -19 52 7 20 7 20 -14 1 -12 -11 -22
-25 -22 -33 0 -22 -33 -11 -36 12 -6 42 -24 119 -30 124 -3 3 -12 -3 -19 -14
-26 -37 -35 -44 -50 -39 -11 5 -8 14 17 45 l32 39 -18 55 c-9 30 -14 60 -11
65 7 12 -12 78 -29 99 -6 7 -19 32 -29 55 l-18 41 5 -35 c4 -38 -11 -69 -31
-63 -7 3 -13 0 -13 -6 0 -6 5 -11 11 -11 11 0 9 -16 -6 -52 -5 -14 -2 -18 14
-18 12 0 21 -6 21 -15 0 -9 -7 -15 -16 -13 -9 2 -20 -4 -24 -12 -35 -72 -42
-93 -42 -125 0 -35 -1 -36 -15 -15 -8 11 -12 27 -9 35 3 9 -1 15 -10 15 -8 0
-17 7 -21 16 -8 22 -40 -16 -83 -101 -22 -44 -38 -64 -47 -61 -8 3 -26 -6 -41
-21 -15 -15 -20 -22 -12 -16 8 6 38 14 66 17 28 3 63 12 79 20 16 8 32 13 35
11 4 -2 13 7 20 20 18 33 32 32 19 -1 -15 -41 -20 -46 -34 -34 -10 8 -16 8
-22 -2 -12 -19 -51 -37 -103 -47 -25 -5 -52 -12 -61 -15 -11 -5 -21 5 -38 41
-13 26 -26 55 -30 62 -10 20 14 68 54 111 24 26 34 48 39 85 20 148 50 245 77
245 6 0 7 10 4 23 -17 57 -17 57 -1 51 9 -3 16 -16 16 -28 1 -20 1 -20 15 -2
8 10 12 23 9 27 -4 8 44 89 53 89 2 0 1 -10 -2 -22 -6 -17 -4 -20 9 -15 19 7
20 3 6 -23 -13 -24 1 -33 34 -20 17 6 26 17 26 31 0 17 3 19 14 10 10 -8 16
-9 21 -1 9 15 25 12 25 -5 0 -8 -4 -15 -10 -15 -5 0 -9 -10 -9 -22 1 -18 2
-19 6 -5 8 31 28 12 38 -38 13 -57 41 -79 32 -24 -5 25 -1 40 12 57 21 24 33
29 29 10 -4 -19 24 -98 35 -98 12 0 -1 70 -16 88 -5 7 -11 36 -11 65 -1 29 -4
57 -9 63 -4 7 0 14 8 18 20 7 19 26 -1 26 -8 0 -12 5 -9 10 3 6 20 10 37 10
31 0 31 0 13 -20 -14 -16 -18 -34 -16 -77 1 -32 4 -59 6 -61 2 -2 11 12 20 32
10 20 23 36 31 36 18 0 101 110 106 140 1 14 11 26 21 28 26 5 21 -30 -8 -58
-36 -34 -31 -43 20 -36 49 8 64 -7 18 -18 -31 -7 -79 -43 -70 -53 4 -3 14 0
24 8 15 12 16 12 10 -4 -4 -10 -7 -23 -7 -29 0 -6 -6 -8 -14 -5 -12 5 -13 -2
-9 -31 7 -45 11 -50 19 -26 19 58 32 83 63 117 49 55 91 83 101 68 9 -16 -23
-79 -50 -98 -11 -8 -18 -18 -15 -23 3 -5 1 -11 -5 -15 -5 -3 -10 -11 -10 -16
0 -5 12 -2 26 7 17 12 21 19 14 24 -9 6 -9 9 0 15 7 4 16 1 21 -6 6 -10 9 -6
9 13 0 32 25 59 45 52 17 -7 21 11 5 21 -12 8 -13 65 -1 65 10 0 24 39 21 59
-1 13 1 13 14 2 9 -7 13 -18 9 -25z m350 -10 c-14 -19 -19 -21 -21 -9 -2 9 2
19 10 24 24 16 29 9 11 -15z m-1223 -25 c0 -5 -9 -11 -21 -14 -16 -4 -18 -3
-8 9 13 16 29 19 29 5z m532 -33 c-12 -12 -24 -19 -28 -15 -4 3 4 15 17 26 31
25 39 17 11 -11z m173 5 c-31 -22 -54 -16 -25 6 13 11 29 17 34 14 5 -3 1 -12
-9 -20z m-305 8 c0 -10 -24 -21 -43 -21 -7 0 -3 7 7 15 22 17 36 19 36 6z
m559 -6 c-16 -9 -29 -26 -32 -45 -4 -18 -13 -30 -22 -30 -19 0 -19 11 -1 55
13 30 20 35 48 35 l33 -1 -26 -14z m161 5 c0 -5 -4 -10 -9 -10 -6 0 -13 5 -16
10 -3 6 1 10 9 10 9 0 16 -4 16 -10z m410 -9 c0 -11 4 -22 9 -26 6 -3 6 -18 0
-38 -11 -39 -12 -87 -1 -87 4 0 8 -21 9 -47 1 -27 4 -68 8 -93 11 -70 -2 -43
-20 40 -21 99 -31 270 -16 270 6 0 11 -9 11 -19z m90 -12 c0 -11 -4 -17 -10
-14 -5 3 -10 13 -10 21 0 8 5 14 10 14 6 0 10 -9 10 -21z m299 -19 c0 -10 -3
-8 -9 5 -12 27 -12 43 0 25 5 -8 9 -22 9 -30z m110 9 c3 -11 1 -12 -11 -2 -8
7 -19 9 -23 5 -5 -4 -5 -1 -1 6 9 16 28 11 35 -9z m70 4 c-8 -10 -18 -21 -24
-25 -6 -5 -4 -12 5 -18 22 -14 34 -12 21 4 -10 12 -8 17 10 26 19 11 21 10 16
-4 -3 -8 -2 -18 3 -21 6 -3 0 -19 -12 -36 -15 -20 -19 -32 -11 -40 7 -7 12 0
17 23 7 32 7 32 22 13 34 -45 69 -111 70 -134 0 -14 7 -27 14 -29 19 -7 7 54
-24 120 -29 61 -32 82 -13 76 6 -3 19 -24 28 -49 8 -24 23 -62 32 -84 19 -43
14 -95 -9 -95 -8 0 -14 -5 -14 -11 0 -5 5 -7 10 -4 6 3 15 -6 21 -22 5 -15 16
-31 22 -35 9 -5 9 -10 -1 -20 -9 -9 -12 -9 -12 4 0 18 -27 44 -37 35 -3 -4 8
-21 26 -37 29 -28 31 -34 23 -64 -7 -24 -6 -35 3 -42 8 -5 16 -37 20 -71 7
-61 6 -63 -16 -63 -12 0 -19 -3 -16 -6 4 -4 -2 -15 -13 -24 -23 -20 -27 -63
-9 -107 7 -18 9 -36 5 -40 -5 -4 -10 -3 -12 2 -3 6 -24 37 -49 70 -25 34 -47
75 -50 97 -4 21 -15 62 -26 90 -10 29 -19 61 -19 70 0 10 -4 18 -10 18 -15 0
-11 -31 10 -79 24 -51 28 -140 7 -119 -8 7 -13 19 -12 28 1 8 0 10 -2 5 -6
-16 -62 -35 -81 -28 -14 6 -13 1 4 -28 11 -19 26 -49 32 -67 11 -32 10 -33
-11 -26 -12 4 -29 7 -37 6 -8 -1 -32 4 -52 10 -29 9 -38 16 -38 33 0 20 31 71
53 86 6 4 2 26 -7 51 -10 24 -16 48 -15 54 1 5 -1 16 -4 24 -3 8 -7 51 -9 94
-2 51 -8 81 -16 84 -14 4 -16 52 -2 52 6 0 11 -8 11 -17 1 -16 2 -16 6 0 3 10
-3 24 -12 31 -10 7 -18 27 -19 44 0 18 -6 32 -13 32 -9 0 -11 -10 -6 -32 3
-18 7 -35 9 -37 2 -2 -3 -10 -11 -18 -9 -9 -14 -31 -14 -56 2 -34 3 -36 6 -12
6 38 23 58 23 27 0 -13 7 -34 16 -47 12 -19 14 -38 9 -84 -5 -48 -3 -68 14
-105 16 -37 17 -46 5 -46 -16 0 -19 -16 -4 -25 15 -10 -7 -45 -25 -39 -8 3
-22 26 -31 50 -19 49 -33 53 -16 4 8 -22 8 -38 0 -55 -14 -31 -1 -46 18 -21
18 25 28 15 20 -19 -5 -21 -10 -24 -25 -16 -10 6 -21 8 -24 5 -8 -8 -56 89
-73 145 -17 59 -18 86 -4 191 10 81 10 86 -10 99 -20 14 -28 51 -10 51 18 0
11 97 -9 132 -14 24 -17 39 -10 56 9 25 13 26 39 12 13 -7 21 -7 25 0 8 14 45
13 45 -1 0 -7 -5 -29 -12 -50 -13 -43 -3 -65 15 -34 12 20 14 26 16 58 1 23
22 22 28 -3 6 -22 29 -27 36 -7 3 7 6 4 6 -6 1 -10 6 -15 12 -11 6 3 9 15 6
25 -3 12 0 19 8 19 8 0 15 -12 17 -27 l4 -28 13 30 c12 29 13 29 27 11 8 -11
15 -29 16 -40 0 -12 2 -33 3 -49 3 -44 13 -42 23 5 5 25 5 53 0 68 -8 20 -5
28 12 42 28 23 46 23 29 1z m-523 -67 c-4 -20 -11 -36 -16 -36 -6 0 -6 10 0
25 5 14 7 40 5 57 -5 30 -4 31 6 11 7 -13 9 -36 5 -57z m-606 54 c0 -5 -5 -10
-11 -10 -5 0 -7 5 -4 10 3 6 8 10 11 10 2 0 4 -4 4 -10z m400 -25 c0 -14 -4
-25 -10 -25 -11 0 -14 33 -3 43 11 11 13 8 13 -18z m-986 -36 c-9 -27 -14 -61
-10 -89 l5 -45 -16 34 c-12 29 -13 42 -2 80 12 45 28 75 36 68 2 -2 -4 -24
-13 -48z m1356 -72 c0 -43 -2 -48 -15 -37 -13 11 -15 8 -15 -14 0 -15 7 -40
15 -56 16 -31 14 -72 -4 -94 -6 -7 -15 -30 -20 -52 -7 -32 -9 -34 -10 -11 -1
15 -5 27 -11 27 -15 0 -23 -47 -17 -102 5 -42 3 -56 -15 -81 -12 -17 -16 -27
-8 -22 8 5 18 2 27 -10 12 -17 13 -16 13 13 0 22 5 32 15 32 8 0 15 4 15 9 0
5 3 17 7 27 4 12 3 15 -5 10 -17 -10 -15 36 2 60 20 27 26 16 32 -65 4 -49 15
-93 35 -136 16 -36 29 -67 29 -69 0 -3 -22 -4 -49 -3 -36 1 -53 7 -61 21 -8
13 -9 21 -1 25 13 9 -23 41 -46 41 -9 0 -13 -3 -10 -7 4 -3 0 -14 -8 -23 -9
-10 -15 -24 -13 -31 2 -8 -3 -13 -11 -11 -8 2 -18 -3 -22 -10 -7 -10 -11 -10
-21 0 -9 9 -9 12 5 12 10 0 20 13 25 33 6 17 13 41 18 52 7 18 4 17 -23 -5
-18 -14 -30 -31 -28 -38 3 -7 -7 -25 -21 -40 l-26 -27 8 25 c4 14 6 32 5 40
-5 45 1 123 15 180 23 101 33 181 28 232 -3 38 1 58 21 97 41 77 79 78 80 2 0
-21 3 -37 8 -34 12 7 8 56 -7 84 -7 15 -11 39 -8 54 l5 27 33 -38 c29 -32 34
-45 34 -87z m-320 68 c0 -17 -2 -17 -10 -5 -5 8 -10 24 -10 35 0 17 2 17 10 5
5 -8 10 -24 10 -35z m-1260 20 c0 -3 -7 -22 -17 -43 -18 -42 -31 -23 -14 21 9
23 31 38 31 22z m-430 -9 c0 -2 -8 -10 -17 -17 -16 -13 -17 -12 -4 4 13 16 21
21 21 13z m54 -11 c-6 -16 -24 -21 -24 -7 0 11 11 22 21 22 5 0 6 -7 3 -15z
m1572 -72 c-11 -116 -16 -133 -38 -133 -19 0 -19 1 -4 25 9 13 16 40 16 58 0
59 12 127 23 127 6 0 7 -27 3 -77z m-1616 47 c0 -14 -49 -44 -58 -35 -4 3 4
15 17 26 26 21 41 24 41 9z m287 -12 c-3 -8 -6 -5 -6 6 -1 11 2 17 5 13 3 -3
4 -12 1 -19z m1183 -22 c0 -12 -5 -27 -12 -34 -9 -9 -9 -18 1 -38 13 -28 9
-40 -8 -29 -13 8 -15 82 -2 89 5 3 7 16 3 28 -3 14 -2 19 6 14 7 -4 12 -17 12
-30z m-100 -7 c0 -5 -4 -9 -10 -9 -5 0 -10 7 -10 16 0 8 5 12 10 9 6 -3 10
-10 10 -16z m-1173 -14 c-7 -14 -19 -27 -28 -30 -9 -3 -19 -14 -22 -24 -3 -14
-11 -17 -30 -14 -14 3 -28 -1 -32 -8 -6 -9 -3 -11 8 -6 27 10 20 -8 -17 -45
l-34 -34 -4 48 c-4 63 21 92 70 82 25 -5 32 -3 32 10 0 9 6 16 14 16 8 0 16 7
20 15 3 8 12 15 20 15 11 0 12 -5 3 -25z m85 3 c-7 -7 -12 -8 -12 -2 0 6 3 14
7 17 3 4 9 5 12 2 2 -3 -1 -11 -7 -17z m1233 -82 c11 -36 23 -66 28 -66 9 0 9
-85 1 -129 -4 -17 -10 -31 -14 -31 -12 0 -19 37 -8 48 6 6 4 22 -5 45 -8 19
-15 50 -15 69 0 19 -7 51 -16 73 -16 37 -15 72 2 62 4 -3 16 -35 27 -71z
m-1615 34 c0 -5 -4 -10 -10 -10 -5 0 -10 5 -10 10 0 6 5 10 10 10 6 0 10 -4
10 -10z m361 -53 c-8 -8 -11 -5 -11 9 0 27 14 41 18 19 2 -9 -1 -22 -7 -28z
m1508 -21 c1 -13 -3 -16 -8 -10 -10 10 -15 39 -11 64 2 18 18 -26 19 -54z
m-50 -38 c1 -15 -3 -30 -9 -33 -6 -4 -10 6 -10 22 0 15 -2 46 -5 68 l-5 40 14
-35 c8 -19 15 -47 15 -62z m-1716 28 c-10 -21 -21 -32 -29 -29 -11 4 -9 11 7
34 28 40 42 37 22 -5z m115 -6 c-14 -22 -44 -38 -32 -17 14 23 27 37 35 37 5
0 4 -9 -3 -20z m122 -16 c0 -8 -4 -14 -9 -14 -18 0 -50 -96 -49 -148 2 -60 12
-66 32 -19 13 28 14 29 15 9 1 -13 -9 -32 -21 -41 -11 -10 -22 -29 -24 -42 -1
-13 -3 -31 -4 -39 -1 -8 -5 -2 -10 13 -5 15 -6 44 -4 65 3 20 2 48 -1 61 l-6
25 -30 -32 c-16 -17 -29 -36 -29 -41 0 -15 -17 -14 -23 2 -3 7 -6 4 -6 -6 -1
-24 -26 -16 -26 9 0 10 11 24 23 30 13 6 41 31 63 55 34 38 39 49 39 92 0 39
3 48 15 44 8 -4 17 -2 21 4 8 13 34 -8 34 -27z m-340 22 c0 -2 -8 -10 -17 -17
-16 -13 -17 -12 -4 4 13 16 21 21 21 13z m381 -23 c12 -32 3 -66 -11 -43 -10
16 -14 70 -5 70 3 0 10 -12 16 -27z m1314 -16 c0 -15 7 -23 23 -25 26 -4 27
-11 7 -38 -18 -24 -21 -64 -3 -46 7 7 18 12 25 12 11 0 11 -5 3 -20 -15 -27
-3 -43 26 -36 30 8 31 -4 3 -28 -17 -14 -20 -24 -14 -54 10 -55 15 -57 43 -17
l26 36 13 -48 c22 -78 24 -100 8 -113 -12 -10 -15 -9 -15 3 0 9 -6 14 -13 11
-26 -10 -58 43 -83 137 -22 82 -35 108 -54 109 -6 0 -2 -151 4 -190 2 -14 5
-28 5 -32 2 -16 21 -7 21 9 0 12 3 14 11 6 6 -6 9 -21 7 -34 -2 -19 -9 -23
-37 -24 -33 0 -35 2 -39 39 -2 25 0 36 7 31 15 -9 14 7 -3 30 -26 39 -29 98
-6 137 16 29 20 48 17 94 -5 59 0 90 12 79 3 -4 6 -17 6 -28z m-1725 -7 c0 -5
-5 -10 -11 -10 -5 0 -7 5 -4 10 3 6 8 10 11 10 2 0 4 -4 4 -10z m1617 -4 c-3
-7 1 -25 8 -40 19 -35 4 -33 -23 4 -28 37 -28 50 -1 50 14 0 19 -5 16 -14z
m227 -90 c-9 -14 -21 -26 -26 -26 -14 0 0 51 20 74 17 18 17 18 20 -2 2 -12
-4 -32 -14 -46z m-1104 24 c0 -24 -10 -50 -20 -50 -5 0 -6 51 -1 78 3 12 21
-13 21 -28z m559 -38 c1 -7 -3 -10 -9 -7 -5 3 -10 21 -9 38 1 31 1 31 9 7 4
-14 8 -31 9 -38z m-899 13 c0 -19 -2 -35 -4 -35 -2 0 -6 16 -8 35 -2 19 0 35
4 35 4 0 8 -16 8 -35z m909 -125 c1 -31 6 -61 13 -68 16 -16 18 -52 4 -77 -9
-17 -12 -14 -19 30 -13 80 -18 213 -8 190 5 -11 10 -45 10 -75z m-549 65 c10
-12 9 -16 -4 -21 -9 -3 -16 -10 -16 -16 0 -5 5 -6 10 -3 12 8 13 3 1 -28 -5
-13 -23 -30 -40 -37 -24 -10 -34 -22 -44 -58 -8 -25 -19 -48 -25 -50 -15 -5
-16 14 -2 23 6 3 10 22 10 40 0 23 6 38 19 44 10 6 29 35 42 66 24 59 30 63
49 40z m1107 -27 c-3 -8 -6 -5 -6 6 -1 11 2 17 5 13 3 -3 4 -12 1 -19z m-1687
-38 c0 -5 7 -10 15 -10 8 0 15 -5 15 -11 0 -6 -6 -9 -13 -6 -7 3 -19 -4 -25
-14 -7 -10 -18 -19 -26 -19 -8 0 -28 -17 -45 -37 l-32 -38 22 45 c29 59 60
100 76 100 7 0 13 -4 13 -10z m180 6 c0 -3 -4 -8 -10 -11 -5 -3 -10 -1 -10 4
0 6 5 11 10 11 6 0 10 -2 10 -4z m-125 -16 c3 -5 1 -10 -4 -10 -6 0 -11 5 -11
10 0 6 2 10 4 10 3 0 8 -4 11 -10z m-3 -54 c-3 -30 5 -33 24 -9 17 25 30 8 16
-22 -12 -25 -74 -59 -80 -43 -7 16 -22 7 -37 -22 -9 -17 -20 -28 -25 -25 -6 4
-10 1 -10 -5 0 -7 9 -14 19 -17 24 -6 35 -33 20 -47 -9 -8 -10 -7 -6 7 8 22
-9 22 -21 0 -8 -14 -62 -29 -62 -17 0 3 7 19 16 35 8 17 13 37 10 45 -6 16 19
44 77 84 24 16 37 33 37 48 0 15 5 22 13 19 6 -2 11 -16 9 -31z m2492 -38 c6
-4 8 -8 3 -8 -4 0 -1 -13 8 -30 19 -37 19 -51 0 -26 -13 17 -15 17 -15 4 0 -9
5 -20 10 -23 12 -7 13 -25 2 -25 -15 0 -34 60 -23 74 7 9 7 16 -1 24 -18 18
-28 15 -21 -5 5 -15 3 -16 -7 -6 -11 10 -11 18 -1 40 12 26 13 27 23 8 6 -11
16 -23 22 -27z m-238 7 c4 -9 13 -14 21 -13 9 2 20 -6 27 -17 6 -11 21 -35 34
-52 13 -18 21 -33 18 -33 -2 0 -11 -3 -20 -6 -11 -4 -16 -1 -16 11 0 12 -5 15
-19 10 -11 -3 -23 -1 -26 6 -6 8 -10 7 -16 -2 -8 -11 -12 -10 -24 5 -8 11 -15
29 -15 40 1 20 1 20 20 -3 23 -27 25 -23 8 14 -6 14 -17 24 -24 21 -16 -6 -28
10 -19 24 10 15 45 12 51 -5z m-2359 -22 c-9 -9 -19 -14 -22 -11 -3 3 2 13 11
22 9 9 19 14 22 11 3 -3 -2 -13 -11 -22z m607 -15 c-4 -7 -16 -19 -26 -26 -10
-7 -18 -21 -18 -30 -1 -19 -27 -58 -34 -51 -11 11 15 85 36 101 27 20 53 24
42 6z m1330 -4 c9 -22 8 -24 -9 -24 -8 0 -15 9 -15 20 0 24 15 27 24 4z
m-1779 -14 c-5 -15 -3 -18 9 -14 19 7 22 -12 4 -20 -10 -5 -10 -7 0 -12 16 -8
15 -44 -3 -68 -8 -11 -15 -15 -15 -9 0 6 -9 9 -22 5 -18 -4 -20 -2 -16 16 4
15 2 19 -8 15 -8 -3 -14 -10 -14 -15 0 -22 -25 1 -31 28 -7 39 6 63 44 79 46
20 60 19 52 -5z m255 11 c0 -6 -4 -13 -10 -16 -5 -3 -10 1 -10 9 0 9 5 16 10
16 6 0 10 -4 10 -9z m1260 -12 c0 -5 -4 -9 -10 -9 -5 0 -10 7 -10 16 0 8 5 12
10 9 6 -3 10 -10 10 -16z m880 -30 c0 -10 -4 -19 -10 -19 -5 0 -10 12 -10 26
0 14 4 23 10 19 6 -3 10 -15 10 -26z m-2756 6 c-4 -8 -8 -15 -10 -15 -2 0 -4
7 -4 15 0 8 4 15 10 15 5 0 7 -7 4 -15z m842 -12 c-10 -10 -19 5 -10 18 6 11
8 11 12 0 2 -7 1 -15 -2 -18z m-604 -5 c-7 -7 -12 -8 -12 -2 0 14 12 26 19 19
2 -3 -1 -11 -7 -17z m2118 12 c0 -5 -4 -10 -9 -10 -6 0 -13 5 -16 10 -3 6 1
10 9 10 9 0 16 -4 16 -10z m-1186 -15 c-4 -8 -10 -15 -15 -15 -5 0 -9 7 -9 15
0 8 7 15 15 15 9 0 12 -6 9 -15z m-39 -5 c3 -5 1 -10 -4 -10 -6 0 -11 5 -11
10 0 6 2 10 4 10 3 0 8 -4 11 -10z m-425 -14 c-16 -14 -101 -34 -87 -20 10 10
66 31 87 33 13 1 13 -1 0 -13z m940 -142 c-17 -19 -76 -44 -104 -43 -11 0 4 9
34 20 30 10 59 24 64 29 16 16 20 12 6 -6z m-165 -44 c18 -8 18 -9 -5 -9 -14
0 -32 4 -40 9 -12 8 -12 10 5 9 11 0 29 -4 40 -9z m-149 -516 c3 -103 2 -185
-2 -181 -4 4 -9 44 -10 90 -2 45 -6 131 -9 192 -4 79 -3 107 5 99 7 -7 13 -84
16 -200z m21 74 c-3 -8 -6 -5 -6 6 -1 11 2 17 5 13 3 -3 4 -12 1 -19z m3 -93
l-7 -50 -1 65 c-1 39 2 59 7 50 4 -8 5 -37 1 -65z m-20 -195 c0 -5 -4 -10 -10
-10 -5 0 -10 5 -10 10 0 6 5 10 10 10 6 0 10 -4 10 -10z m-1320 -976 c0 -8 -5
-12 -10 -9 -6 4 -8 11 -5 16 9 14 15 11 15 -7z"/>
<path d="M5245 9640 c-87 -14 -150 -35 -240 -78 -230 -112 -395 -318 -467
-583 -33 -122 -33 -356 0 -478 60 -221 201 -421 372 -530 87 -55 90 -57 90
-91 0 -59 81 -88 129 -46 13 11 37 12 131 4 136 -13 257 0 365 37 40 14 85 25
102 25 17 0 47 12 68 26 34 23 41 24 63 12 14 -7 49 -13 78 -12 147 1 254 178
186 309 l-19 38 33 72 c61 132 79 220 79 395 0 130 -4 168 -23 239 -55 202
-172 381 -325 497 -77 58 -222 128 -307 149 -83 19 -238 27 -315 15z m221 -68
c5 -4 21 -34 34 -67 22 -53 25 -57 31 -35 4 14 7 37 8 52 1 15 6 30 12 34 24
15 28 -14 14 -96 -8 -47 -15 -86 -15 -87 0 0 -9 1 -19 4 -13 3 -27 26 -42 66
-18 48 -24 56 -30 41 -4 -10 -8 -30 -8 -44 -2 -36 -17 -58 -31 -44 -8 8 -8 29
0 75 19 116 21 119 46 101z m-158 -14 c17 -17 15 -65 -3 -75 -13 -8 -10 -14
15 -38 35 -34 38 -45 9 -45 -11 0 -32 14 -46 30 -13 17 -33 30 -44 30 -17 0
-18 -5 -13 -40 6 -35 4 -40 -13 -40 -17 0 -22 9 -27 53 -4 28 -10 68 -13 89
-5 32 -3 37 18 41 49 9 105 7 117 -5z m460 -85 c60 -34 58 -31 44 -45 -8 -8
-20 -5 -47 11 -20 12 -41 19 -46 16 -19 -13 -8 -36 26 -52 19 -9 35 -20 35
-24 0 -19 -23 -19 -54 -1 -25 15 -37 17 -45 9 -20 -20 -12 -36 29 -57 39 -20
49 -33 31 -44 -10 -6 -120 54 -121 66 0 14 82 148 92 148 5 0 30 -12 56 -27z
m-696 -44 c47 -43 66 -65 59 -72 -7 -7 -18 -6 -35 3 -22 11 -29 11 -51 -4 -15
-10 -25 -26 -25 -40 0 -19 -26 -45 -35 -34 -1 2 -6 45 -11 96 -8 80 -7 95 6
102 8 5 17 10 19 10 2 0 35 -28 73 -61z m-219 -85 c12 -12 -6 -34 -27 -34 -26
0 -46 -18 -46 -40 0 -20 51 -70 72 -70 22 0 40 25 36 52 -2 17 2 23 17 23 13
0 21 -8 23 -22 5 -32 -15 -63 -51 -78 -88 -37 -170 83 -102 150 22 23 64 33
78 19z m477 -4 c25 -7 49 -7 81 1 43 11 50 10 94 -14 26 -15 60 -27 76 -27 46
0 75 -17 111 -63 18 -24 39 -42 46 -39 24 8 61 -28 88 -83 14 -31 36 -63 49
-71 27 -17 45 -62 45 -108 0 -17 8 -43 17 -56 15 -20 18 -48 19 -150 1 -136
-10 -180 -46 -180 -24 0 -24 4 -6 33 18 28 17 251 -2 284 -7 12 -14 46 -17 75
-5 47 -10 57 -50 94 -25 23 -45 50 -45 61 0 27 -53 83 -78 83 -11 0 -34 16
-51 36 -24 30 -39 38 -82 45 -31 5 -61 17 -75 30 -14 13 -34 21 -51 20 -15 -1
-65 -2 -111 -2 -71 0 -87 -3 -119 -24 -21 -15 -50 -25 -70 -25 -26 0 -43 -8
-66 -32 -18 -18 -50 -42 -72 -53 -30 -15 -46 -33 -65 -71 -14 -28 -40 -65 -57
-82 -26 -23 -33 -38 -33 -68 0 -20 -12 -61 -27 -90 -24 -48 -26 -57 -16 -100
7 -30 8 -57 2 -72 -15 -39 -10 -75 16 -117 14 -22 25 -48 25 -57 0 -16 3 -16
41 -3 83 29 144 15 331 -75 172 -84 272 -101 389 -66 122 35 154 124 69 188
-64 47 -155 35 -281 -37 -52 -29 -97 -51 -101 -49 -19 12 -5 44 32 78 28 25
40 44 40 63 1 24 2 25 11 11 14 -25 29 -22 30 5 1 18 2 18 6 4 3 -13 10 -16
21 -11 10 4 46 15 82 25 240 69 418 -74 297 -239 -97 -131 -341 -179 -550
-108 -42 14 -81 26 -86 26 -8 0 -41 -121 -41 -151 0 -6 9 0 21 15 29 36 73 57
126 59 38 2 48 -2 67 -25 17 -22 30 -28 59 -28 27 0 35 4 31 14 -8 21 35 46
79 46 31 0 40 -4 44 -21 5 -19 7 -19 37 9 40 38 88 62 124 62 33 0 69 -33 74
-68 3 -22 6 -20 34 20 17 24 48 52 69 62 l37 18 64 -31 c68 -33 95 -69 109
-142 9 -49 -27 -139 -70 -178 -33 -28 -89 -51 -128 -51 -29 0 -87 28 -108 52
l-19 23 6 -26 c8 -37 -34 -69 -91 -69 -54 0 -58 10 -49 112 4 43 4 78 1 78 -3
0 -10 -33 -17 -72 -17 -111 -19 -117 -43 -130 -12 -6 -44 -13 -72 -14 -27 -2
-64 -6 -81 -9 -24 -5 -37 -1 -62 20 l-31 26 -52 -36 c-39 -26 -62 -35 -93 -35
-23 0 -47 5 -53 11 -8 8 -17 5 -32 -10 -26 -26 -64 -36 -89 -22 -46 25 -42
235 7 424 17 65 31 121 31 123 0 3 -24 16 -52 29 -56 26 -93 31 -118 15 -12
-7 -12 -12 4 -29 17 -18 17 -21 3 -21 -28 0 -29 -19 -2 -46 21 -21 33 -25 68
-22 39 2 42 1 42 -22 0 -54 -134 -81 -200 -40 -35 22 -65 73 -65 112 0 13 14
45 30 71 35 55 38 89 10 134 -23 39 -27 64 -16 125 5 30 4 59 -4 82 -10 32 -9
42 14 92 14 31 26 71 26 90 0 43 17 80 47 100 14 8 36 40 49 70 17 38 32 58
51 65 59 24 71 32 84 56 17 31 58 53 101 53 18 0 51 12 73 25 45 28 55 29 105
15z m630 -14 c21 -23 30 -69 16 -83 -9 -10 -35 17 -30 31 7 17 -26 50 -38 38
-5 -5 0 -27 11 -52 20 -46 17 -64 -14 -90 -13 -11 -22 -11 -51 3 -40 19 -59
55 -50 91 8 34 34 23 38 -16 3 -34 31 -59 48 -42 6 6 3 22 -10 47 -24 45 -25
61 -4 81 23 23 57 20 84 -8z m-303 -317 c17 -27 27 -49 21 -49 -5 0 -7 -7 -4
-16 5 -12 2 -15 -10 -10 -8 3 -20 6 -25 6 -6 0 -5 9 1 21 9 17 7 27 -12 55
-13 18 -27 34 -31 34 -5 0 -6 4 -2 10 10 16 29 1 62 -51z m-260 -31 c-4 -14 0
-26 11 -35 13 -10 14 -14 4 -21 -9 -6 -11 -21 -6 -50 4 -27 3 -42 -4 -42 -6 0
-13 6 -15 13 -3 7 -6 6 -6 -5 -1 -19 -55 -61 -65 -51 -3 3 -6 2 -6 -3 0 -23
-76 -1 -111 32 l-35 35 -20 -22 c-19 -22 -19 -22 3 -15 15 5 27 0 42 -15 26
-28 28 -48 3 -26 -25 22 -39 22 -19 0 14 -17 14 -20 -7 -44 -21 -25 -24 -25
-43 -9 -15 12 -18 21 -11 33 10 18 -6 25 -17 7 -13 -20 -21 -9 -24 32 -1 23
-4 45 -7 50 -9 14 6 48 21 48 8 0 21 -12 29 -27 9 -16 15 -22 16 -12 0 8 -5
20 -12 27 -6 6 -12 34 -12 62 l-1 50 58 0 c53 0 127 -20 127 -35 0 -4 -7 -13
-16 -22 -18 -18 -15 -79 4 -75 16 3 15 -8 -4 -29 -9 -10 -11 -19 -5 -23 5 -3
18 5 28 18 19 24 19 24 32 4 19 -31 39 -5 45 59 4 41 1 56 -15 76 -20 26 -15
35 25 36 14 1 17 -4 13 -21z m193 -38 c0 -5 -3 -10 -7 -10 -12 0 -60 -81 -67
-112 -3 -15 -15 -32 -26 -38 -23 -12 -27 2 -6 19 8 7 18 26 21 42 4 17 13 33
20 36 8 2 19 20 25 39 10 31 40 49 40 24z m-131 -152 c-7 -18 -14 -40 -14 -48
0 -21 -28 -19 -31 3 -1 9 2 17 7 17 5 0 9 5 9 10 0 15 32 62 38 56 2 -3 -1
-20 -9 -38z m-457 -73 c-2 -19 -6 -35 -8 -35 -2 0 -4 16 -4 35 0 19 4 35 8 35
4 0 6 -16 4 -35z m42 -35 c-9 -26 -13 -58 -9 -76 3 -20 1 -35 -6 -40 -7 -4 -9
-3 -5 4 3 6 2 13 -3 17 -12 7 -4 101 12 133 18 38 27 9 11 -38z m585 -122 c4
-13 11 -53 14 -90 7 -77 -6 -99 -48 -80 -18 8 -26 8 -35 -4 -20 -23 -67 -17
-86 11 -36 55 7 155 67 155 15 0 29 7 33 15 9 23 45 18 55 -7z"/>
<path d="M5221 9531 c-24 -15 -5 -43 26 -39 20 2 29 9 31 26 3 17 -1 22 -20
22 -13 0 -29 -4 -37 -9z"/>
<path d="M5006 9413 c9 -35 8 -35 28 -27 22 8 20 16 -10 37 l-25 19 7 -29z"/>
<path d="M5545 8636 c-83 -24 -141 -53 -184 -92 -23 -20 -40 -39 -37 -41 2 -3
33 14 68 36 120 75 206 90 288 49 51 -26 86 -83 76 -123 -19 -75 -116 -125
-245 -125 -95 0 -157 18 -282 81 -187 94 -266 107 -357 60 -96 -49 -118 -136
-52 -202 24 -24 37 -29 78 -29 57 0 112 17 112 34 0 7 -14 10 -38 8 -30 -3
-45 2 -68 21 -55 47 -30 147 37 147 35 0 125 -33 149 -55 17 -15 17 -19 -5
-88 -37 -117 -55 -220 -55 -321 0 -136 20 -172 75 -132 16 12 18 26 16 122 -2
114 19 280 43 339 l14 33 89 -30 c244 -85 528 -11 572 148 27 99 -40 164 -174
171 -41 1 -91 -3 -120 -11z"/>
<path d="M5909 8297 c-79 -53 -124 -199 -85 -275 49 -95 204 -73 257 36 49
100 25 185 -66 234 -62 33 -64 33 -106 5z m85 -101 c9 -19 16 -51 16 -73 0
-42 -32 -103 -53 -103 -53 0 -71 121 -27 178 32 40 44 40 64 -2z"/>
<path d="M5940 8173 c-18 -23 -21 -36 -16 -73 8 -59 22 -72 47 -41 19 23 25
74 13 119 -8 29 -18 28 -44 -5z m23 -98 c-3 -9 -8 -14 -10 -11 -3 3 -2 9 2 15
9 16 15 13 8 -4z"/>
<path d="M5665 8264 c-21 -14 -47 -37 -57 -50 -25 -31 -34 -30 -42 1 -5 20
-12 25 -40 25 -56 0 -58 -11 -31 -168 13 -78 27 -146 30 -152 9 -14 31 -12 64
5 24 12 29 22 34 67 8 68 35 168 49 185 18 22 30 15 24 -14 -3 -16 -8 -72 -12
-125 l-6 -98 36 0 c70 0 71 2 74 164 2 91 -1 153 -8 166 -15 29 -68 26 -115
-6z"/>
<path d="M5245 8225 c-22 -8 -48 -24 -57 -36 -56 -68 -65 -267 -14 -301 33
-22 106 1 158 50 l27 25 31 -33 c26 -28 35 -32 62 -26 40 8 45 13 30 34 -27
38 -35 71 -36 152 l-1 85 -28 3 c-38 5 -53 -10 -73 -71 -19 -58 -57 -129 -80
-148 -13 -10 -17 -10 -25 2 -13 19 -5 156 12 192 11 25 17 28 44 23 20 -4 38
-1 50 9 20 15 20 15 -4 35 -27 23 -42 24 -96 5z"/>
<path d="M5260 8122 c-5 -21 -10 -61 -10 -91 0 -66 15 -59 53 27 42 96 42 98
2 99 -32 1 -35 -2 -45 -35z"/>
<path d="M5463 8054 c7 -65 15 -94 26 -94 9 0 -14 138 -24 148 -4 4 -5 -20 -2
-54z"/>
<path d="M5148 8973 c7 -3 16 -2 19 1 4 3 -2 6 -13 5 -11 0 -14 -3 -6 -6z"/>
<path d="M5176 8929 c-8 -49 1 -67 10 -20 4 17 11 34 15 37 14 8 11 24 -5 24
-8 0 -16 -16 -20 -41z"/>
<path d="M5585 8549 c-7 -10 2 -110 12 -136 3 -7 12 -13 20 -13 14 0 14 19 -3
128 -5 32 -17 41 -29 21z"/>
<path d="M5508 8520 c-20 -12 -33 -69 -24 -105 4 -17 13 -25 29 -25 25 0 67
26 67 41 0 14 -17 11 -34 -6 -8 -8 -19 -15 -25 -15 -20 0 -11 28 15 44 46 31
20 94 -28 66z m13 -53 c-8 -8 -11 -7 -11 4 0 9 3 19 7 23 4 4 9 2 11 -4 3 -7
-1 -17 -7 -23z"/>
<path d="M5003 7265 c-11 -33 -10 -35 12 -35 23 0 23 2 13 33 -6 17 -12 33
-13 34 -1 2 -6 -13 -12 -32z"/>
<path d="M3950 6795 l0 -45 40 0 c27 0 42 5 48 18 18 35 -12 72 -60 72 -27 0
-28 -2 -28 -45z"/>
<path d="M5150 6832 c-29 -9 -40 -36 -40 -97 0 -67 17 -95 57 -95 36 0 53 31
53 96 0 75 -26 110 -70 96z"/>
<path d="M5670 6740 l0 -100 30 0 c48 0 70 30 70 95 0 46 -4 60 -25 80 -13 14
-36 25 -50 25 l-25 0 0 -100z"/>
<path d="M6253 6745 c-11 -33 -10 -35 12 -35 23 0 23 2 13 33 -6 17 -12 33
-13 34 -1 2 -6 -13 -12 -32z"/>
<path d="M4995 5754 c-8 -20 -15 -46 -14 -58 1 -14 4 -10 11 13 5 18 16 44 25
57 9 15 11 24 4 24 -6 0 -18 -16 -26 -36z"/>
<path d="M4950 5760 c-1 -8 -5 -34 -9 -57 -5 -24 -4 -40 0 -37 5 3 9 14 9 25
0 10 6 28 12 39 10 15 10 22 0 32 -9 9 -12 9 -12 -2z"/>
<path d="M5240 5739 c0 -5 5 -7 10 -4 6 3 10 8 10 11 0 2 -4 4 -10 4 -5 0 -10
-5 -10 -11z"/>
<path d="M4822 5703 c1 -10 -1 -24 -5 -30 -9 -15 0 -36 12 -29 12 8 12 76 0
76 -6 0 -9 -8 -7 -17z"/>
<path d="M4995 5645 c-9 -20 -14 -39 -11 -42 3 -3 13 11 21 32 9 20 14 39 12
41 -2 3 -12 -12 -22 -31z"/>
<path d="M4862 5619 c-7 -10 -12 -29 -11 -41 0 -15 2 -18 6 -8 3 8 12 19 19
23 15 9 19 33 6 41 -4 2 -13 -4 -20 -15z"/>
<path d="M4692 5540 c-3 -36 -20 -59 -30 -42 -6 9 -14 -1 -26 -33 -18 -45 -15
-82 4 -70 6 4 10 -5 10 -19 0 -43 14 -29 33 32 12 35 17 76 15 107 -3 28 -5
39 -6 25z"/>
<path d="M4491 5524 c0 -11 3 -14 6 -6 3 7 2 16 -1 19 -3 4 -6 -2 -5 -13z"/>
<path d="M4783 5451 c-1 -20 1 -28 4 -18 2 9 9 17 14 17 14 0 11 27 -4 33 -9
3 -13 -6 -14 -32z"/>
<path d="M4570 5451 c-11 -21 -14 -69 -4 -58 7 6 24 77 18 77 -2 0 -8 -9 -14
-19z"/>
<path d="M4469 5422 c-5 -15 -11 -32 -14 -39 -2 -6 5 -13 16 -16 10 -3 19 0
19 6 0 6 6 18 14 26 23 26 23 43 -2 47 -17 3 -25 -2 -33 -24z"/>
<path d="M4590 5390 c0 -5 5 -10 10 -10 6 0 10 5 10 10 0 6 -4 10 -10 10 -5 0
-10 -4 -10 -10z"/>
<path d="M4640 5331 c0 -5 5 -13 10 -16 6 -3 10 -2 10 4 0 5 -4 13 -10 16 -5
3 -10 2 -10 -4z"/>
<path d="M4700 5254 c0 -10 7 -28 15 -38 26 -34 16 -37 -25 -10 -52 35 -61 26
-16 -17 22 -20 32 -37 27 -42 -6 -6 -17 -3 -28 9 -17 17 -18 17 -21 -16 -3
-28 2 -39 25 -57 35 -29 45 -29 41 -2 -2 16 3 23 19 25 18 3 23 -2 29 -32 4
-20 2 -53 -5 -74 -16 -55 -14 -66 10 -37 21 28 34 123 20 142 -5 5 -16 31 -26
57 -22 60 -65 121 -65 92z"/>
<path d="M4530 5216 c0 -8 5 -18 10 -21 6 -3 10 1 10 9 0 8 -4 18 -10 21 -5 3
-10 -1 -10 -9z"/>
<path d="M4601 5113 c12 -24 26 -43 31 -43 14 0 8 14 -24 50 l-31 35 24 -42z"/>
<path d="M4386 5131 c5 -5 20 -12 34 -15 24 -7 24 -6 6 8 -21 17 -57 23 -40 7z"/>
<path d="M4303 5103 c-7 -2 -13 -11 -13 -18 0 -7 -6 -15 -12 -18 -10 -3 -8 -9
5 -24 9 -11 17 -25 17 -31 0 -7 5 -12 10 -12 6 0 10 7 10 15 0 8 -4 15 -10 15
-16 0 -12 47 6 64 15 16 11 19 -13 9z"/>
<path d="M4430 5041 c0 -5 5 -13 10 -16 6 -3 10 -2 10 4 0 5 -4 13 -10 16 -5
3 -10 2 -10 -4z"/>
<path d="M4710 5012 c0 -12 19 -26 26 -19 2 2 -2 10 -11 17 -9 8 -15 8 -15 2z"/>
<path d="M4401 4963 c11 -34 19 -42 19 -20 0 7 -7 22 -15 33 -13 17 -14 16 -4
-13z"/>
<path d="M4533 4973 c4 -3 2 -12 -4 -20 -15 -17 -2 -17 16 1 14 14 10 26 -8
26 -6 0 -7 -3 -4 -7z"/>
<path d="M4670 4959 c0 -5 5 -7 10 -4 6 3 10 8 10 11 0 2 -4 4 -10 4 -5 0 -10
-5 -10 -11z"/>
<path d="M4610 4945 c-7 -9 -11 -17 -9 -20 3 -2 10 5 17 15 14 24 10 26 -8 5z"/>
<path d="M4790 4930 c0 -11 5 -20 10 -20 6 0 10 9 10 20 0 11 -4 20 -10 20 -5
0 -10 -9 -10 -20z"/>
<path d="M4550 4933 c0 -4 5 -15 10 -23 8 -13 10 -13 10 2 0 9 -4 20 -10 23
-5 3 -10 3 -10 -2z"/>
<path d="M4332 4917 c-17 -20 -26 -67 -13 -67 6 0 11 7 11 16 0 8 5 12 10 9 6
-3 10 -15 10 -26 0 -11 4 -18 8 -15 7 4 9 49 3 89 -2 11 -17 8 -29 -6z"/>
<path d="M4390 4889 c0 -11 5 -17 10 -14 6 3 10 13 10 21 0 8 -4 14 -10 14 -5
0 -10 -9 -10 -21z"/>
<path d="M4573 4886 c-10 -11 -9 -15 2 -20 10 -4 15 1 15 14 0 23 -1 24 -17 6z"/>
<path d="M5955 5699 c-6 -19 0 -38 9 -28 10 12 16 49 7 49 -5 0 -13 -9 -16
-21z"/>
<path d="M6192 5668 c-14 -14 -16 -38 -3 -38 8 0 23 41 17 47 -1 1 -8 -3 -14
-9z"/>
<path d="M6410 5634 c0 -14 4 -23 10 -19 6 3 10 15 10 26 0 10 -4 19 -10 19
-5 0 -10 -12 -10 -26z"/>
<path d="M6430 5595 c-7 -9 -19 -14 -27 -11 -16 6 -41 -40 -28 -52 4 -4 10 -1
12 6 3 6 13 12 22 12 10 0 23 12 30 26 14 31 9 41 -9 19z"/>
<path d="M6469 5552 c-1 -18 -1 -43 -1 -57 0 -49 2 -55 22 -55 25 0 27 32 4
55 -15 15 -15 17 1 29 18 13 17 14 -3 36 l-22 24 -1 -32z"/>
<path d="M6576 5390 c8 -31 24 -50 24 -29 0 8 -7 24 -16 35 -14 18 -15 18 -8
-6z"/>
<path d="M6775 5020 c-3 -5 -1 -10 4 -10 6 0 11 5 11 10 0 6 -2 10 -4 10 -3 0
-8 -4 -11 -10z"/>
<path d="M5535 5079 c-4 -6 -5 -13 -2 -16 7 -7 27 6 27 18 0 12 -17 12 -25 -2z"/>
<path d="M4175 4880 c-3 -5 3 -10 14 -10 11 0 23 5 26 10 3 6 -3 10 -14 10
-11 0 -23 -4 -26 -10z"/>
<path d="M6418 4683 c6 -2 12 -12 12 -21 0 -12 3 -13 11 -5 14 14 3 33 -19 32
-11 0 -12 -3 -4 -6z"/>
<path d="M6469 4689 c-3 -20 -6 -69 -4 -69 1 0 10 11 18 24 14 21 14 26 2 36
-8 7 -15 11 -16 9z"/>
<path d="M5920 4665 c0 -8 5 -15 10 -15 6 0 10 7 10 15 0 8 -4 15 -10 15 -5 0
-10 -7 -10 -15z"/>
<path d="M6030 4646 c0 -14 5 -28 10 -31 6 -3 10 5 10 19 0 14 -4 28 -10 31
-6 3 -10 -5 -10 -19z"/>
<path d="M6241 4520 c0 -19 4 -51 9 -70 7 -25 7 -43 -1 -63 -13 -30 -4 -51 11
-27 13 20 11 85 -5 145 -12 48 -13 48 -14 15z"/>
<path d="M6372 4500 c-1 -27 3 -52 9 -55 5 -4 9 -13 9 -22 0 -11 -5 -9 -20 8
-13 17 -19 19 -19 9 0 -24 45 -114 52 -103 11 18 11 88 -1 110 -7 12 -12 40
-12 62 0 23 -4 41 -9 41 -5 0 -9 -22 -9 -50z"/>
<path d="M6061 4504 c0 -11 3 -14 6 -6 3 7 2 16 -1 19 -3 4 -6 -2 -5 -13z"/>
<path d="M6206 4423 c2 -86 17 -142 29 -110 5 11 1 25 -11 38 -12 14 -15 22
-7 27 13 8 11 114 -2 119 -6 2 -9 -29 -9 -74z"/>
<path d="M6030 4476 c0 -9 5 -16 10 -16 6 0 10 4 10 9 0 6 -4 13 -10 16 -5 3
-10 -1 -10 -9z"/>
<path d="M6164 4479 c-3 -6 -1 -16 5 -22 8 -8 11 -5 11 11 0 24 -5 28 -16 11z"/>
<path d="M5992 4450 c0 -19 2 -27 5 -17 2 9 2 25 0 35 -3 9 -5 1 -5 -18z"/>
<path d="M6155 4329 c-4 -6 -5 -13 -2 -16 7 -7 27 6 27 18 0 12 -17 12 -25 -2z"/>
<path d="M5981 4314 c0 -11 3 -14 6 -6 3 7 2 16 -1 19 -3 4 -6 -2 -5 -13z"/>
<path d="M6109 4320 c-7 -18 1 -60 11 -60 4 0 10 7 14 15 3 8 1 15 -4 15 -5 0
-10 10 -12 23 -2 15 -5 17 -9 7z"/>
<path d="M6271 4304 c0 -11 3 -14 6 -6 3 7 2 16 -1 19 -3 4 -6 -2 -5 -13z"/>
<path d="M6170 4264 c0 -19 -9 -39 -24 -53 -18 -17 -24 -19 -23 -7 1 8 -2 14
-8 13 -11 -2 -8 -27 6 -42 6 -6 22 4 45 26 34 34 34 36 19 65 l-15 29 0 -31z"/>
<path d="M6177 4143 c-4 -3 -7 -13 -7 -22 1 -13 3 -13 11 2 11 19 8 33 -4 20z"/>
<path d="M6130 4097 c-14 -29 -7 -48 11 -30 6 6 9 21 7 34 l-4 24 -14 -28z"/>
<path d="M6458 4055 c-8 -8 3 -55 13 -55 14 0 21 19 14 40 -6 20 -16 25 -27
15z"/>
<path d="M6350 4010 c0 -5 5 -10 10 -10 6 0 10 5 10 10 0 6 -4 10 -10 10 -5 0
-10 -4 -10 -10z"/>
<path d="M6350 3900 c0 -5 5 -10 10 -10 6 0 10 5 10 10 0 6 -4 10 -10 10 -5 0
-10 -4 -10 -10z"/>
<path d="M5510 4801 c0 -11 -4 -23 -10 -26 -12 -8 -13 -35 -1 -35 5 0 11 10
14 23 2 12 8 30 12 40 4 10 3 17 -4 17 -6 0 -11 -9 -11 -19z"/>
<path d="M5215 4577 c-4 -10 0 -28 9 -42 20 -30 20 -35 0 -35 -14 0 -15 -7
-10 -40 6 -39 -5 -53 -21 -28 -8 13 -21 -27 -30 -92 -6 -45 30 -128 60 -139
16 -6 23 -5 25 6 3 9 11 12 24 7 11 -3 18 -2 15 2 -3 5 0 23 7 39 11 26 10 33
-7 57 -16 22 -18 32 -9 55 24 63 24 85 0 132 -13 25 -26 48 -29 51 -3 3 -11
14 -17 25 -10 18 -11 19 -17 2z m-1 -209 c-1 -25 -7 -42 -13 -40 -6 1 -11 -6
-11 -15 0 -15 -2 -15 -9 -4 -9 14 -8 23 11 74 15 40 25 33 22 -15z m46 2 c-7
-17 -15 -29 -17 -26 -3 3 1 18 8 35 17 39 26 31 9 -9z m11 -106 c-9 -17 -10
-18 -11 -1 0 9 -4 17 -10 17 -5 0 -10 -9 -10 -21 0 -11 -4 -17 -10 -14 -5 3
-10 18 -10 32 0 18 4 24 15 19 8 -3 15 0 15 6 0 8 6 6 16 -4 12 -12 14 -20 5
-34z"/>
<path d="M4696 4534 c-9 -24 -7 -28 9 -14 17 14 20 30 6 30 -5 0 -12 -7 -15
-16z"/>
<path d="M5083 4469 c1 -41 -2 -87 -6 -104 -8 -29 -8 -29 12 5 17 29 19 46 14
95 -8 87 -22 90 -20 4z"/>
<path d="M5347 4533 c-4 -3 -7 -11 -7 -17 0 -6 5 -5 12 2 6 6 9 14 7 17 -3 3
-9 2 -12 -2z"/>
<path d="M5301 4514 c0 -11 3 -14 6 -6 3 7 2 16 -1 19 -3 4 -6 -2 -5 -13z"/>
<path d="M5320 4491 c0 -5 5 -13 10 -16 6 -3 10 -2 10 4 0 5 -4 13 -10 16 -5
3 -10 2 -10 -4z"/>
<path d="M5046 4463 c-4 -16 -9 -37 -13 -48 -3 -14 -2 -17 5 -10 11 11 28 85
19 85 -3 0 -8 -12 -11 -27z"/>
<path d="M4730 4450 c-6 -11 -9 -35 -7 -53 l4 -32 1 36 c1 19 7 40 14 47 6 6
9 14 6 18 -4 3 -12 -4 -18 -16z"/>
<path d="M5140 4404 c0 -8 5 -12 10 -9 6 3 10 10 10 16 0 5 -4 9 -10 9 -5 0
-10 -7 -10 -16z"/>
<path d="M4822 4356 c-10 -23 -10 -36 0 -65 l13 -36 3 33 c2 17 2 47 0 65 l-4
32 -12 -29z"/>
<path d="M5020 4328 c0 -7 5 -20 10 -28 8 -12 10 -11 10 7 0 12 -4 25 -10 28
-5 3 -10 0 -10 -7z"/>
<path d="M4686 4271 c-4 -7 -5 -15 -2 -18 9 -9 19 4 14 18 -4 11 -6 11 -12 0z"/>
<path d="M4835 4180 c3 -30 6 -65 5 -77 0 -13 5 -23 11 -23 12 0 4 79 -12 128
-6 20 -7 12 -4 -28z"/>
<path d="M5320 4215 c0 -12 33 -70 44 -77 20 -13 18 0 -5 41 -20 36 -39 53
-39 36z"/>
<path d="M4359 4088 c-5 -51 -4 -68 7 -68 7 0 15 -6 18 -12 3 -7 4 1 1 17 -4
17 -6 38 -6 47 0 21 -18 35 -20 16z"/>
<path d="M4886 4013 c-6 -14 -5 -15 5 -6 7 7 10 15 7 18 -3 3 -9 -2 -12 -12z"/>
<path d="M4906 3991 c-4 -7 -5 -15 -2 -18 9 -9 19 4 14 18 -4 11 -6 11 -12 0z"/>
<path d="M4371 3974 c0 -11 3 -14 6 -6 3 7 2 16 -1 19 -3 4 -6 -2 -5 -13z"/>
<path d="M4712 3958 c-7 -7 -12 -23 -12 -37 1 -24 2 -24 16 8 16 37 14 47 -4
29z"/>
<path d="M4667 3953 c-4 -3 -7 -11 -7 -17 0 -6 5 -5 12 2 6 6 9 14 7 17 -3 3
-9 2 -12 -2z"/>
<path d="M4321 4394 c0 -11 3 -14 6 -6 3 7 2 16 -1 19 -3 4 -6 -2 -5 -13z"/>
<path d="M6612 4379 c-7 -12 -11 -24 -7 -27 7 -8 25 17 25 36 0 17 -3 15 -18
-9z"/>
<path d="M6641 4244 c0 -11 3 -14 6 -6 3 7 2 16 -1 19 -3 4 -6 -2 -5 -13z"/>
<path d="M6616 4081 c-3 -5 3 -11 15 -14 16 -4 18 -3 8 9 -13 16 -16 17 -23 5z"/>
<path d="M6616 4005 c4 -8 10 -12 15 -9 11 6 2 24 -11 24 -5 0 -7 -7 -4 -15z"/>
<path d="M5805 3559 c-4 -6 -5 -13 -2 -16 7 -7 27 6 27 18 0 12 -17 12 -25 -2z"/>
<path d="M4890 3522 c0 -5 7 -15 15 -22 8 -7 15 -8 15 -2 0 5 -7 15 -15 22 -8
7 -15 8 -15 2z"/>
<path d="M5162 3500 c0 -14 2 -19 5 -12 2 6 2 18 0 25 -3 6 -5 1 -5 -13z"/>
<path d="M4810 3478 c-17 -23 -20 -35 -13 -47 11 -17 -2 -71 -17 -71 -5 0 -18
-13 -29 -29 -19 -26 -19 -29 -3 -27 39 3 86 75 71 111 -13 33 -10 45 9 45 21
0 42 18 42 37 0 24 -36 13 -60 -19z"/>
<path d="M4694 3487 c-10 -12 -20 -43 -30 -91 -4 -21 -33 -56 -46 -56 -5 0 -7
4 -4 9 4 5 -5 6 -20 2 -18 -5 -32 -20 -46 -54 -12 -26 -18 -50 -15 -53 3 -3
18 1 34 10 15 8 36 18 46 22 9 3 17 14 17 24 0 10 7 23 15 30 21 18 51 86 58
133 3 20 5 37 4 37 -1 -1 -7 -6 -13 -13z m-99 -167 c-3 -5 -11 -10 -16 -10 -6
0 -7 5 -4 10 3 6 11 10 16 10 6 0 7 -4 4 -10z m-33 -52 c-7 -7 -12 -8 -12 -2
0 6 3 14 7 17 3 4 9 5 12 2 2 -3 -1 -11 -7 -17z"/>
<path d="M4750 3490 c0 -5 5 -10 10 -10 6 0 10 5 10 10 0 6 -4 10 -10 10 -5 0
-10 -4 -10 -10z"/>
<path d="M5670 3496 c0 -4 7 -20 15 -36 8 -16 14 -33 13 -37 -1 -4 2 -30 7
-58 l9 -50 6 40 c7 49 -2 87 -29 121 -12 15 -21 24 -21 20z"/>
<path d="M5047 3483 c-16 -15 -5 -53 23 -83 17 -18 30 -35 30 -39 0 -3 9 -17
20 -31 26 -34 26 -5 0 35 -32 48 -37 58 -52 93 -8 17 -18 29 -21 25z"/>
<path d="M5490 3476 c0 -15 18 -31 26 -23 7 7 -7 37 -17 37 -5 0 -9 -6 -9 -14z"/>
<path d="M5233 3453 c11 -61 32 -133 39 -133 12 0 6 72 -9 100 -7 14 -13 33
-13 43 0 9 -5 17 -11 17 -7 0 -9 -11 -6 -27z"/>
<path d="M4737 3463 c-11 -10 -8 -43 3 -43 6 0 10 11 10 25 0 26 -2 29 -13 18z"/>
<path d="M4850 3441 c-12 -24 -13 -44 -1 -37 8 5 22 56 15 56 -2 0 -8 -9 -14
-19z"/>
<path d="M4906 3430 c-11 -19 -32 -50 -48 -69 -16 -18 -26 -36 -23 -40 6 -6
18 7 73 79 13 16 22 38 20 47 -3 14 -9 9 -22 -17z"/>
<path d="M5297 3453 c-4 -3 -7 -11 -7 -17 0 -6 5 -5 12 2 6 6 9 14 7 17 -3 3
-9 2 -12 -2z"/>
<path d="M5620 3426 c0 -7 8 -20 17 -27 15 -12 16 -12 10 4 -4 10 -7 23 -7 28
0 5 -4 9 -10 9 -5 0 -10 -6 -10 -14z"/>
<path d="M5501 3403 c7 -12 15 -20 18 -17 3 2 -3 12 -13 22 -17 16 -18 16 -5
-5z"/>
<path d="M5845 3400 c3 -5 8 -10 11 -10 2 0 4 5 4 10 0 6 -5 10 -11 10 -5 0
-7 -4 -4 -10z"/>
<path d="M5604 3358 c10 -15 14 -33 10 -44 -4 -10 -3 -16 1 -11 5 4 19 -3 32
-15 32 -30 29 -9 -6 40 -33 44 -63 69 -37 30z"/>
<path d="M4709 3333 c-13 -16 -12 -17 4 -4 16 13 21 21 13 21 -2 0 -10 -8 -17
-17z"/>
<path d="M4950 3319 c0 -5 5 -7 10 -4 6 3 10 8 10 11 0 2 -4 4 -10 4 -5 0 -10
-5 -10 -11z"/>
<path d="M5815 3316 c-3 -9 -7 -23 -10 -31 -2 -8 -1 -15 4 -15 10 0 25 50 17
58 -3 2 -8 -3 -11 -12z"/>
<path d="M5370 3298 c0 -19 2 -20 10 -8 13 19 13 30 0 30 -5 0 -10 -10 -10
-22z"/>
<path d="M4791 3297 c-9 -12 -8 -16 3 -20 19 -7 27 4 17 21 -6 10 -10 10 -20
-1z"/>
<path d="M5872 3290 c0 -14 2 -19 5 -12 2 6 2 18 0 25 -3 6 -5 1 -5 -13z"/>
<path d="M5261 3284 c0 -11 3 -14 6 -6 3 7 2 16 -1 19 -3 4 -6 -2 -5 -13z"/>
<path d="M4675 3263 c3 -15 14 -33 23 -40 28 -21 35 -15 13 13 -12 15 -21 33
-21 40 0 8 -5 14 -11 14 -7 0 -9 -10 -4 -27z"/>
<path d="M5311 3272 c-7 -13 -11 -26 -8 -28 8 -8 29 25 25 38 -3 8 -9 4 -17
-10z"/>
<path d="M4745 3260 c4 -6 11 -8 16 -5 14 9 11 15 -7 15 -8 0 -12 -5 -9 -10z"/>
<path d="M4896 3261 c-3 -5 5 -11 19 -13 17 -4 25 -1 25 8 0 15 -36 19 -44 5z"/>
<path d="M4612 3220 c2 -27 3 -28 19 -12 11 12 13 21 7 30 -17 21 -28 13 -26
-18z"/>
<path d="M4985 3240 c4 -6 11 -8 16 -5 14 9 11 15 -7 15 -8 0 -12 -5 -9 -10z"/>
<path d="M5615 3220 c-3 -5 -1 -10 4 -10 6 0 11 5 11 10 0 6 -2 10 -4 10 -3 0
-8 -4 -11 -10z"/>
<path d="M5016 3211 c-4 -7 -5 -15 -2 -18 9 -9 19 4 14 18 -4 11 -6 11 -12 0z"/>
<path d="M4580 3195 c0 -6 5 -16 12 -23 8 -8 8 -15 -2 -27 -12 -14 -8 -14 23
2 40 20 50 39 15 30 -14 -4 -26 0 -34 11 -8 9 -14 12 -14 7z"/>
<path d="M5481 3184 c0 -11 3 -14 6 -6 3 7 2 16 -1 19 -3 4 -6 -2 -5 -13z"/>
<path d="M5040 3162 c0 -12 19 -26 26 -19 2 2 -2 10 -11 17 -9 8 -15 8 -15 2z"/>
<path d="M4500 3144 c0 -8 5 -12 10 -9 6 4 8 11 5 16 -9 14 -15 11 -15 -7z"/>
<path d="M4418 3105 c-4 -20 -2 -23 8 -14 7 6 10 17 7 25 -7 20 -10 18 -15
-11z"/>
<path d="M5580 3695 c0 -8 5 -15 10 -15 6 0 10 7 10 15 0 8 -4 15 -10 15 -5 0
-10 -7 -10 -15z"/>
<path d="M5580 3660 c0 -5 5 -10 11 -10 5 0 7 5 4 10 -3 6 -8 10 -11 10 -2 0
-4 -4 -4 -10z"/>
<path d="M6386 3715 c-3 -8 -1 -15 4 -15 6 0 10 7 10 15 0 8 -2 15 -4 15 -2 0
-6 -7 -10 -15z"/>
<path d="M6387 3653 c-4 -3 -7 -11 -7 -17 0 -6 5 -5 12 2 6 6 9 14 7 17 -3 3
-9 2 -12 -2z"/>
<path d="M6320 3560 c0 -5 -7 -10 -16 -10 -10 0 -14 -6 -11 -14 4 -10 1 -13
-9 -9 -7 3 -14 1 -14 -5 0 -15 28 -34 40 -27 6 4 10 3 9 -2 -2 -14 13 -53 21
-53 4 0 13 6 19 14 9 11 8 15 -5 20 -13 5 -14 9 -4 21 9 10 9 15 1 15 -6 0
-11 14 -11 30 0 17 -4 30 -10 30 -5 0 -10 -4 -10 -10z"/>
<path d="M6021 3503 c-10 -36 -8 -53 5 -40 7 7 15 77 9 77 -2 0 -9 -17 -14
-37z"/>
<path d="M6140 3505 c0 -8 5 -15 10 -15 6 0 10 7 10 15 0 8 -4 15 -10 15 -5 0
-10 -7 -10 -15z"/>
<path d="M6051 3454 c0 -11 3 -14 6 -6 3 7 2 16 -1 19 -3 4 -6 -2 -5 -13z"/>
<path d="M6064 3404 c3 -9 6 -28 7 -42 l1 -27 9 30 c10 33 5 55 -12 55 -6 0
-8 -7 -5 -16z"/>
<path d="M6010 3381 c0 -11 5 -23 10 -26 6 -4 10 5 10 19 0 14 -4 26 -10 26
-5 0 -10 -9 -10 -19z"/>
<path d="M6110 3309 c0 -5 5 -7 10 -4 6 3 10 8 10 11 0 2 -4 4 -10 4 -5 0 -10
-5 -10 -11z"/>
<path d="M6470 3280 c0 -5 5 -10 10 -10 6 0 10 5 10 10 0 6 -4 10 -10 10 -5 0
-10 -4 -10 -10z"/>
<path d="M6110 3256 c0 -9 5 -16 10 -16 6 0 10 4 10 9 0 6 -4 13 -10 16 -5 3
-10 -1 -10 -9z"/>
<path d="M6155 3210 c3 -5 8 -10 11 -10 2 0 4 5 4 10 0 6 -5 10 -11 10 -5 0
-7 -4 -4 -10z"/>
<path d="M4487 3506 c3 -51 1 -56 -26 -75 -31 -22 -57 -28 -46 -11 3 6 2 10
-3 10 -13 0 -23 -39 -12 -45 5 -3 11 -1 14 4 3 4 24 11 47 15 33 5 39 9 30 20
-8 10 -7 16 4 26 20 16 21 110 2 110 -10 0 -13 -14 -10 -54z"/>
<path d="M4450 3529 c0 -11 4 -18 10 -14 5 3 7 12 3 20 -7 21 -13 19 -13 -6z"/>
<path d="M4415 3470 c-3 -5 -2 -10 4 -10 5 0 13 5 16 10 3 6 2 10 -4 10 -5 0
-13 -4 -16 -10z"/>
<path d="M4320 3355 c0 -8 5 -15 10 -15 6 0 10 7 10 15 0 8 -4 15 -10 15 -5 0
-10 -7 -10 -15z"/>
<path d="M4800 2636 c0 -13 8 -30 17 -37 15 -13 16 -11 10 11 -4 14 -7 31 -7
38 0 6 -4 12 -10 12 -5 0 -10 -11 -10 -24z"/>
<path d="M4550 2568 c3 -38 1 -50 -10 -43 -5 3 -10 15 -10 26 0 11 -4 17 -10
14 -11 -7 -13 -54 -4 -79 5 -14 10 -12 30 9 13 15 29 23 34 20 13 -8 13 -1 -4
40 -17 40 -28 45 -26 13z"/>
<path d="M4992 2570 c0 -14 2 -19 5 -12 2 6 2 18 0 25 -3 6 -5 1 -5 -13z"/>
<path d="M4922 2547 c-6 -7 -7 -19 -3 -26 6 -9 10 -5 13 13 6 30 5 31 -10 13z"/>
<path d="M4991 2524 c0 -11 3 -14 6 -6 3 7 2 16 -1 19 -3 4 -6 -2 -5 -13z"/>
<path d="M5066 2522 c-8 -13 -8 -93 0 -141 5 -34 4 -42 -6 -36 -12 8 -12 7 5
-53 l7 -24 13 26 c10 19 11 42 3 103 -6 43 -11 90 -12 105 -1 30 -2 32 -10 20z"/>
<path d="M5370 2490 c-12 -8 -11 -10 8 -10 12 0 22 5 22 10 0 13 -11 13 -30 0z"/>
<path d="M4933 2465 c3 -16 10 -46 14 -65 8 -32 10 -33 15 -12 7 24 -7 80 -25
97 -6 7 -7 0 -4 -20z"/>
<path d="M4480 2449 c0 -27 -5 -38 -19 -42 -21 -5 -32 -46 -24 -93 3 -18 0
-34 -6 -38 -6 -4 -11 -17 -10 -29 l0 -22 9 21 c4 12 23 33 40 46 21 16 39 45
51 79 23 65 23 62 -1 54 -15 -5 -20 -2 -20 12 0 10 -5 25 -10 33 -7 11 -10 6
-10 -21z m0 -123 c0 -3 -4 -8 -10 -11 -5 -3 -10 -1 -10 4 0 6 5 11 10 11 6 0
10 -2 10 -4z"/>
<path d="M4747 2463 c-11 -10 -8 -61 3 -65 19 -6 39 -81 40 -145 0 -35 4 -63
10 -63 6 0 7 35 3 93 -3 50 -5 103 -4 117 0 17 -2 21 -8 12 -6 -11 -10 -10
-15 3 -3 9 -6 25 -6 36 0 19 -11 25 -23 12z"/>
<path d="M4390 2432 c0 -7 -11 -24 -25 -38 -20 -20 -26 -36 -25 -67 1 -100 -7
-126 -54 -177 -48 -51 -56 -70 -31 -70 20 0 19 -17 -2 -29 -10 -5 -15 -12 -12
-16 11 -10 91 39 100 62 4 11 13 24 18 28 6 3 11 15 11 26 0 10 5 19 10 19 6
0 10 5 10 10 0 6 -6 10 -12 9 -32 -4 -41 1 -29 15 8 9 9 16 2 21 -6 3 1 22 18
45 32 44 51 144 32 163 -8 8 -11 8 -11 -1z m-15 -84 c-8 -36 -12 -44 -20 -36
-8 8 7 68 17 68 6 0 7 -14 3 -32z"/>
<path d="M4857 2424 c-3 -3 -3 -11 -1 -18 3 -7 0 -24 -5 -39 -6 -15 -7 -38 -1
-56 5 -20 5 -31 -1 -31 -6 0 -9 -8 -8 -17 5 -51 -2 -75 -22 -80 -17 -5 -19
-11 -13 -37 3 -17 12 -42 19 -55 l13 -25 7 35 c5 19 9 41 10 49 11 95 32 170
48 170 8 0 7 3 -2 9 -7 5 -11 14 -7 19 4 6 0 27 -8 47 -15 36 -18 39 -29 29z
m33 -98 c0 -3 -4 -8 -10 -11 -5 -3 -10 -1 -10 4 0 6 5 11 10 11 6 0 10 -2 10
-4z m-50 -166 c0 -5 -4 -10 -10 -10 -5 0 -10 5 -10 10 0 6 5 10 10 10 6 0 10
-4 10 -10z"/>
<path d="M5394 2330 c11 -89 37 -190 48 -190 12 0 8 26 -19 147 -22 96 -39
122 -29 43z"/>
<path d="M4750 2312 c0 -12 19 -26 26 -19 2 2 -2 10 -11 17 -9 8 -15 8 -15 2z"/>
<path d="M4506 2265 c-3 -9 0 -15 9 -15 8 0 15 7 15 15 0 8 -4 15 -9 15 -5 0
-11 -7 -15 -15z"/>
<path d="M4965 2253 c4 -10 10 -26 12 -35 3 -10 9 -15 14 -12 5 3 2 18 -6 35
-17 31 -32 40 -20 12z"/>
<path d="M4922 2189 c1 -79 19 -87 38 -19 6 20 5 30 -2 30 -6 0 -17 8 -24 18
-11 15 -13 11 -12 -29z"/>
<path d="M5080 2174 c0 -30 -5 -65 -11 -77 -10 -20 -10 -21 5 -7 20 19 35 140
17 140 -7 0 -11 -21 -11 -56z"/>
<path d="M4495 2211 c-3 -5 -1 -12 5 -16 5 -3 10 1 10 9 0 18 -6 21 -15 7z"/>
<path d="M5127 2151 c-5 -22 1 -33 14 -25 12 7 12 44 0 44 -5 0 -11 -9 -14
-19z"/>
<path d="M4772 2115 c0 -16 2 -22 5 -12 2 9 2 23 0 30 -3 6 -5 -1 -5 -18z"/>
<path d="M5470 2123 c0 -13 5 -23 10 -23 13 0 13 11 0 30 -8 12 -10 11 -10 -7z"/>
<path d="M4792 2080 c-6 -11 -8 -21 -3 -25 5 -3 13 4 16 16 9 28 2 33 -13 9z"/>
<path d="M6192 2610 c-1 -39 12 -79 19 -64 3 5 0 29 -7 54 -12 45 -12 45 -12
10z"/>
<path d="M6245 2595 c4 -22 12 -46 18 -54 7 -8 15 -39 18 -70 l6 -56 2 63 c1
51 -4 72 -25 110 l-26 47 7 -40z"/>
<path d="M6060 2590 c0 -5 5 -10 10 -10 6 0 10 5 10 10 0 6 -4 10 -10 10 -5 0
-10 -4 -10 -10z"/>
<path d="M6085 2507 c0 -66 18 -89 29 -36 9 46 8 54 -11 76 -17 20 -18 18 -18
-40z"/>
<path d="M6351 2534 c0 -11 3 -14 6 -6 3 7 2 16 -1 19 -3 4 -6 -2 -5 -13z"/>
<path d="M6327 2494 c-4 -4 -7 -17 -7 -28 1 -19 1 -20 11 -3 11 19 8 43 -4 31z"/>
<path d="M6462 2428 c2 -6 10 -14 16 -16 7 -2 10 2 6 12 -7 18 -28 22 -22 4z"/>
<path d="M6098 2395 c-3 -14 -1 -28 3 -31 5 -3 9 9 9 25 0 38 -6 40 -12 6z"/>
<path d="M6332 2395 c3 -30 25 -41 40 -20 11 15 10 35 -2 35 -5 0 -10 -8 -10
-17 -1 -14 -4 -12 -16 7 l-14 25 2 -30z"/>
<path d="M6477 2393 c-5 -7 -5 -17 -2 -23 3 -5 2 -17 -3 -25 -7 -13 -10 -11
-21 11 -6 15 -14 24 -17 21 -4 -3 6 -31 20 -63 14 -31 26 -68 27 -83 l0 -26
12 25 c6 14 15 28 20 31 15 10 -3 51 -19 45 -15 -6 -19 5 -6 20 5 5 6 25 3 44
-4 23 -9 31 -14 23z m33 -113 c0 -5 -4 -10 -10 -10 -5 0 -10 5 -10 10 0 6 5
10 10 10 6 0 10 -4 10 -10z"/>
<path d="M6262 2355 c-1 -28 2 -36 13 -32 7 3 16 1 19 -6 2 -7 5 -3 5 8 0 11
-8 31 -18 44 l-18 23 -1 -37z"/>
<path d="M6406 2313 c-4 -9 -2 -21 4 -27 7 -7 10 -2 10 17 0 31 -5 34 -14 10z"/>
<path d="M6136 2302 c-2 -4 -1 -14 5 -22 7 -12 9 -10 9 8 0 23 -5 28 -14 14z"/>
<path d="M6321 2244 c0 -11 3 -14 6 -6 3 7 2 16 -1 19 -3 4 -6 -2 -5 -13z"/>
<path d="M6543 2205 c-3 -9 -3 -18 -1 -21 3 -3 8 4 11 16 6 23 -1 27 -10 5z"/>
<path d="M6511 2154 c0 -11 3 -14 6 -6 3 7 2 16 -1 19 -3 4 -6 -2 -5 -13z"/>
<path d="M6480 2116 c0 -8 5 -18 10 -21 6 -3 10 3 10 14 0 12 -4 21 -10 21 -5
0 -10 -6 -10 -14z"/>
<path d="M5961 2500 c0 -33 1 -34 11 -12 8 17 8 26 0 34 -9 9 -12 4 -11 -22z"/>
<path d="M5896 2439 c-3 -17 -6 -45 -6 -61 0 -16 -5 -38 -10 -49 -12 -21 2
-26 18 -6 13 16 25 147 13 147 -5 0 -11 -14 -15 -31z"/>
<path d="M5981 2194 c0 -11 3 -14 6 -6 3 7 2 16 -1 19 -3 4 -6 -2 -5 -13z"/>
<path d="M4131 2031 c-13 -10 -19 -21 -14 -24 10 -7 50 29 42 37 -2 3 -15 -3
-28 -13z"/>
<path d="M4165 2000 c-16 -7 -17 -9 -3 -9 9 -1 20 4 23 9 7 11 7 11 -20 0z"/>
</g>
</svg>
